<?xml version="1.0" encoding="UTF-8" standalone="no"?>
<!-- Created with Inkscape (http://www.inkscape.org/) -->

<svg
   xmlns:dc="http://purl.org/dc/elements/1.1/"
   xmlns:cc="http://creativecommons.org/ns#"
   xmlns:rdf="http://www.w3.org/1999/02/22-rdf-syntax-ns#"
   xmlns:svg="http://www.w3.org/2000/svg"
   xmlns="http://www.w3.org/2000/svg"
   xmlns:sodipodi="http://sodipodi.sourceforge.net/DTD/sodipodi-0.dtd"
   xmlns:inkscape="http://www.inkscape.org/namespaces/inkscape"
   width="210mm"
   height="297mm"
   viewBox="0 0 210 297"
   version="1.1"
   id="svg8"
   inkscape:version="0.92.4 5da689c313, 2019-01-14"
   sodipodi:docname="20190719-sloppyIde.svg">
  <defs
     id="defs2">
    <inkscape:path-effect
       effect="spiro"
       id="path-effect823"
       is_visible="true" />
    <inkscape:path-effect
       effect="spiro"
       id="path-effect819"
       is_visible="true" />
  </defs>
  <sodipodi:namedview
     id="base"
     pagecolor="#ffffff"
     bordercolor="#666666"
     borderopacity="1.0"
     inkscape:pageopacity="0.0"
     inkscape:pageshadow="2"
     inkscape:zoom="0.35355339"
     inkscape:cx="-110.73925"
     inkscape:cy="668.57143"
     inkscape:document-units="mm"
     inkscape:current-layer="layer1"
     showgrid="false"
     showguides="false"
     inkscape:window-width="1920"
     inkscape:window-height="1080"
     inkscape:window-x="0"
     inkscape:window-y="0"
     inkscape:window-maximized="0" />
  <metadata
     id="metadata5">
    <rdf:RDF>
      <cc:Work
         rdf:about="">
        <dc:format>image/svg+xml</dc:format>
        <dc:type
           rdf:resource="http://purl.org/dc/dcmitype/StillImage" />
        <dc:title />
      </cc:Work>
    </rdf:RDF>
  </metadata>
  <g
     inkscape:label="Layer 1"
     inkscape:groupmode="layer"
     id="layer1">
    <circle
       style="fill:#8ca573;stroke:none;stroke-width:1.61850011;stroke-miterlimit:4;stroke-dasharray:none"
       id="path815"
       cx="107.78135"
       cy="185.47038"
       r="74.19075" />
    <path
       style="fill:#2f2926;stroke:none;stroke-width:0.26458332px;stroke-linecap:butt;stroke-linejoin:miter;stroke-opacity:1"
       d="m 58.371665,32.082443 c -2.937019,0.0061 -5.886814,0.05139 -8.785886,0.522038 -2.899071,0.470642 -5.763601,1.383795 -8.211384,3.006903 -2.447783,1.623107 -4.458162,3.999832 -5.312008,6.810003 -0.426924,1.405086 -0.560235,2.903903 -0.341058,4.355968 0.219178,1.452064 0.794845,2.854766 1.696405,4.013955 1.05693,1.358958 2.538681,2.356703 4.148086,2.967999 1.609405,0.611296 3.34418,0.849138 5.065768,0.847727 3.443177,-0.0028 6.806465,-0.938431 10.194273,-1.553428 3.387809,-0.614998 6.982342,-0.892874 10.188134,0.363455 1.602897,0.628165 3.072727,1.645101 4.109562,3.019452 1.036836,1.374351 1.617481,3.116775 1.466845,4.831761 -0.100348,1.14246 -0.51844,2.24798 -1.14917,3.205823 -0.63073,0.957843 -1.469967,1.770479 -2.413872,2.421884 -1.887808,1.302809 -4.153609,1.949631 -6.415746,2.32893 -2.262138,0.379299 -4.560384,0.511994 -6.821275,0.898651 -2.260892,0.386656 -4.523927,1.048861 -6.398931,2.370033 -1.896269,1.336156 -3.2959,3.280514 -4.326755,5.358611 -1.030855,2.078097 -1.721252,4.304637 -2.442563,6.509372 -0.721312,2.204736 -1.484884,4.414077 -2.645704,6.422471 -1.160819,2.008394 -2.753299,3.823675 -4.803718,4.90854 -2.364706,1.251153 -5.221275,1.439853 -7.803136,0.738987 C 24.787671,95.730711 22.4779,94.183819 20.65712,92.223722 17.015559,88.303529 15.375624,82.95611 14.218739,77.732079 13.721955,75.488803 13.288598,73.214657 12.418644,71.088095 11.548691,68.961534 10.190912,66.958969 8.2319012,65.758403 6.5650646,64.736894 4.5282735,64.358552 2.5939803,64.641986 c -1.93429331,0.283435 -3.7571152,1.214511 -5.1721806,2.563368 -1.4150654,1.348857 -2.424785,3.104087 -2.9514074,4.98677 -0.5266223,1.882683 -0.5765466,3.888009 -0.2179033,5.809779 0.7172866,3.84354 3.042692,7.265193 6.00816407,9.813384 2.96547213,2.548191 6.54458123,4.288479 10.21631193,5.632241 4.980623,1.822784 10.18393,2.960422 15.23143,4.588885 5.047499,1.628462 10.035271,3.811337 13.954403,7.384787 4.251967,3.87693 6.96102,9.11172 9.728654,14.15652 2.767635,5.0448 5.812844,10.16272 10.476921,13.53261 3.064965,2.2145 6.859582,3.58392 10.622056,3.20733 1.881237,-0.18829 3.727033,-0.81424 5.290054,-1.87795 1.563022,-1.0637 2.834351,-2.57085 3.54511,-4.3228 0.561763,-1.38469 0.769566,-2.90236 0.676421,-4.39375 -0.09315,-1.4914 -0.48242,-2.95708 -1.071647,-4.33031 -1.178455,-2.74645 -3.127869,-5.09136 -5.22273,-7.22287 -2.09486,-2.13151 -4.362709,-4.09432 -6.353056,-6.32373 -1.990347,-2.22941 -3.719984,-4.77657 -4.492789,-7.66353 -0.744043,-2.779516 -0.550312,-5.798236 0.524492,-8.467339 1.074803,-2.669103 3.021876,-4.975481 5.462347,-6.499755 3.911727,-2.443195 8.985362,-2.769306 13.308361,-1.162294 4.322999,1.607013 7.869491,5.033054 9.947115,9.150612 2.077624,4.117559 2.734959,8.879296 2.211835,13.461556 -0.523124,4.58227 -2.189702,8.99056 -4.513383,12.97444 -2.720961,4.66501 -6.311912,8.74949 -9.625288,13.01417 -3.313377,4.26467 -6.413885,8.83381 -7.920328,14.02 -0.753221,2.59309 -1.092666,5.32173 -0.829568,8.00915 0.263097,2.68743 1.142093,5.33266 2.678903,7.55295 1.536809,2.22029 3.745872,3.99828 6.300526,4.87305 2.554653,0.87477 5.448103,0.81032 7.899047,-0.32297 2.024794,-0.93624 3.683644,-2.54984 4.941596,-4.3921 1.257952,-1.84225 2.140523,-3.91361 2.904366,-6.00953 1.527685,-4.19185 2.692403,-8.68619 5.624427,-12.04902 1.94009,-2.22515 4.59788,-3.82053 7.48056,-4.45721 2.88268,-0.63668 5.97492,-0.30611 8.64531,0.95256 2.67038,1.25868 4.89929,3.44214 6.18607,6.0991 1.28678,2.65696 1.61682,5.77034 0.88705,8.63087 -0.59235,2.32185 -1.84105,4.42257 -3.2237,6.37965 -1.38264,1.95708 -2.91617,3.81018 -4.18044,5.84575 -1.26426,2.03556 -2.26432,4.29781 -2.43656,6.68783 -0.0861,1.19502 0.0392,2.41091 0.42652,3.54469 0.38731,1.13378 1.04131,2.18328 1.93063,2.98614 1.33811,1.20801 3.1454,1.80401 4.94281,1.94248 1.7974,0.13846 3.6004,-0.1484 5.36379,-0.52296 1.76338,-0.37457 3.51189,-0.83848 5.30073,-1.06181 1.78884,-0.22333 3.64242,-0.19721 5.3466,0.39065 1.61292,0.55638 3.01756,1.58776 4.3155,2.6952 1.29795,1.10745 2.52154,2.30908 3.91641,3.29164 3.01956,2.12702 6.85942,3.13856 10.50183,2.52633 1.8212,-0.30611 3.57832,-1.00874 5.08958,-2.07016 1.51125,-1.06142 2.77283,-2.48247 3.61843,-4.12425 0.84561,-1.64177 1.2706,-3.50258 1.18867,-5.34751 -0.0819,-1.84493 -0.67437,-3.66892 -1.71937,-5.19157 -1.04501,-1.52264 -2.54251,-2.73615 -4.26085,-3.41274 -1.71835,-0.67659 -3.65158,-0.80864 -5.43804,-0.34062 -1.57387,0.41232 -2.99575,1.26519 -4.32857,2.19829 -1.33282,0.9331 -2.60472,1.95906 -4.00898,2.78072 -1.40427,0.82166 -2.97323,1.43987 -4.6001,1.45951 -0.81343,0.01 -1.63279,-0.13291 -2.37883,-0.45723 -0.74605,-0.32433 -1.41669,-0.83363 -1.89568,-1.49116 -0.68126,-0.93519 -0.94502,-2.11846 -0.98344,-3.27484 -0.0384,-1.15639 0.13109,-2.30801 0.23509,-3.46035 0.72988,-8.08744 -1.81639,-16.23145 -5.98684,-23.199 -2.57784,-4.30678 -5.88817,-8.33651 -10.29053,-10.74749 -2.20118,-1.20549 -4.65424,-1.98188 -7.16041,-2.11427 -2.50616,-0.13239 -5.06376,0.39482 -7.24476,1.63645 -2.86147,1.62901 -4.9112,4.34888 -7.4169,6.48503 -1.252849,1.06808 -2.647518,2.00445 -4.210149,2.52273 -1.562631,0.51827 -3.31118,0.59139 -4.836757,-0.0275 -0.966731,-0.39219 -1.818976,-1.05235 -2.464813,-1.87166 -0.645836,-0.81931 -1.086591,-1.79469 -1.305125,-2.8148 -0.437066,-2.04022 0.02729,-4.21622 1.060316,-6.02906 1.033023,-1.81284 2.602974,-3.28074 4.36045,-4.40537 1.757475,-1.12463 3.703634,-1.92314 5.676858,-2.6013 3.94645,-1.35633 8.12444,-2.29157 11.59023,-4.61588 1.73289,-1.16215 3.2625,-2.67717 4.22992,-4.52585 0.96742,-1.84868 1.33833,-4.04794 0.79951,-6.06368 -0.50985,-1.90737 -1.77701,-3.52447 -3.18033,-4.91325 -1.40332,-1.38877 -2.97205,-2.60892 -4.30321,-4.06701 -2.49149,-2.729047 -4.04914,-6.179131 -5.25802,-9.671099 -1.20888,-3.491968 -2.111948,-7.091896 -3.512638,-10.511441 -1.40069,-3.419546 -3.359977,-6.712557 -6.269242,-8.991022 -1.454632,-1.139233 -3.135026,-2.006456 -4.933055,-2.431776 -1.798029,-0.425319 -3.714583,-0.398654 -5.471105,0.17444 -1.874204,0.61149 -3.504639,1.813619 -4.932285,3.173174 -1.427646,1.359554 -2.682673,2.88822 -4.047973,4.310373 -3.821239,3.98036 -8.466183,7.087064 -12.375812,10.980639 -1.954815,1.946788 -3.729921,4.101393 -5.025773,6.536973 -1.295851,2.43558 -2.099834,5.167948 -2.055635,7.926449 0.05683,3.54678 1.514032,6.96961 3.608982,9.83214 2.09495,2.86252 4.804874,5.21703 7.616337,7.38002 0.996038,0.7663 2.010139,1.51378 2.929882,2.37015 0.919744,0.85638 1.748705,1.83062 2.302419,2.95876 0.553714,1.12815 0.81909,2.42218 0.594935,3.65873 -0.112078,0.61828 -0.345794,1.21638 -0.699907,1.73545 -0.354113,0.51906 -0.829681,0.95761 -1.385555,1.25058 -0.536248,0.28262 -1.140483,0.42704 -1.746175,0.45105 -0.605692,0.024 -1.213008,-0.0703 -1.793583,-0.24459 -1.161149,-0.34855 -2.202802,-1.00716 -3.195435,-1.70317 -2.75428,-1.93125 -5.259496,-4.21143 -7.483547,-6.73519 -5.591495,-6.345 -9.429416,-14.50473 -9.423932,-22.961901 0.0027,-4.228587 0.972858,-8.473827 2.961905,-12.2054 1.989046,-3.731574 5.010341,-6.932581 8.707091,-8.985624 3.089238,-1.715652 6.573948,-2.608577 10.070474,-3.119614 3.496526,-0.511036 7.034775,-0.656418 10.55406,-0.974975 3.519286,-0.318557 7.052013,-0.817765 10.380583,-2.004134 3.328571,-1.186368 6.465162,-3.103724 8.657681,-5.874953 1.652184,-2.088273 2.725667,-4.617079 3.161636,-7.243964 0.435968,-2.626886 0.241208,-5.347214 -0.485036,-7.909082 C 97.013511,46.229977 93.462824,41.844127 89.084518,38.81216 84.706213,35.780193 79.540073,34.026888 74.294363,33.107701 69.048652,32.188513 63.697288,32.071465 58.371665,32.082443 Z"
       id="path817"
       inkscape:connector-curvature="0"
       inkscape:path-effect="#path-effect819"
       inkscape:original-d="M 58.371665,32.082443 C 45.898821,20.607937 44.402642,44.554759 37.417734,50.79131 c -6.98491,6.236555 23.448711,6.984379 35.172668,10.476966 11.72396,3.492587 -15.465731,7.483282 -23.198994,11.225321 -7.733263,3.742036 -9.478894,15.465731 -14.21874,23.198994 C 30.432824,103.42585 21.203647,83.718653 14.218739,77.732079 7.2338305,71.745506 10.227778,69.749365 8.2319012,65.758403 6.2360243,61.767444 9.7288754,84.217554 10.476965,93.447528 c 0.74809,9.229972 19.457485,7.982182 29.185833,11.973672 9.728345,3.99149 13.470649,18.45915 20.205575,27.68913 6.734927,9.22997 12.971746,-1.99588 19.45722,-2.99342 6.485478,-0.99755 -10.975601,-19.95639 -16.463801,-29.93419 -5.488199,-9.977799 3.991489,-9.978328 5.986839,-14.967094 1.995347,-4.988767 13.96955,22.949274 20.953928,34.424314 6.984381,11.47504 -0.99754,31.43063 -1.496708,47.14635 -0.499169,15.71571 8.980521,-14.96736 13.470389,-22.45065 4.48986,-7.48328 15.46626,7.48329 23.19899,11.22532 7.73273,3.74204 -4.98877,16.96244 -7.48355,25.44406 -2.49478,8.48162 13.96955,0.49864 20.95393,0.74836 6.98438,0.24971 5.4882,3.99096 8.23191,5.98684 2.7437,1.99587 5.9871,-11.97394 8.98025,-17.96052 2.99315,-5.98657 -11.47451,2.99316 -17.21216,4.49013 -5.73765,1.49697 -0.49864,-4.49039 -0.74835,-6.73519 -0.24972,-2.2448 -3.99096,-15.46626 -5.98684,-23.199 -1.99588,-7.73273 -16.46354,-7.48381 -24.6957,-11.22531 -8.232169,-3.74151 -10.975607,5.98657 -16.463806,8.98025 -5.488199,2.99368 15.965166,-21.952 23.947346,-32.9276 7.98219,-10.975609 -4.98876,-5.98711 -7.48354,-8.98026 -2.49478,-2.993156 -16.962445,-20.954197 -25.44406,-31.430898 -8.481619,-10.476701 -5.986574,4.988767 -8.980258,7.483547 -2.993683,2.49478 -12.971216,16.962442 -19.45722,25.444061 -6.486006,8.48161 7.483811,11.4745 11.225319,17.21216 3.74151,5.73765 2.49478,7.98218 3.741774,11.97367 1.246992,3.99149 -4.489863,-0.99807 -6.735193,-1.49671 -2.245329,-0.49864 -4.988767,-4.49039 -7.483547,-6.73519 -2.49478,-2.2448 1.496976,-29.435549 2.245064,-44.152925 C 56.87469,63.763056 82.568729,70.49772 95.789397,66.506759 109.01006,62.515799 70.844507,43.556951 58.371665,32.082443 Z"
       transform="translate(24.235304,-8.9802564)" />
  </g>
</svg>
