<?xml version="1.0" encoding="UTF-8" standalone="no"?>
<!-- Created with Inkscape (http://www.inkscape.org/) -->

<svg
   xmlns:dc="http://purl.org/dc/elements/1.1/"
   xmlns:cc="http://creativecommons.org/ns#"
   xmlns:rdf="http://www.w3.org/1999/02/22-rdf-syntax-ns#"
   xmlns:svg="http://www.w3.org/2000/svg"
   xmlns="http://www.w3.org/2000/svg"
   xmlns:xlink="http://www.w3.org/1999/xlink"
   xmlns:sodipodi="http://sodipodi.sourceforge.net/DTD/sodipodi-0.dtd"
   xmlns:inkscape="http://www.inkscape.org/namespaces/inkscape"
   width="1920"
   height="1920"
   viewBox="0 0 507.99999 508.00001"
   version="1.1"
   id="svg8"
   inkscape:version="0.92.4 5da689c313, 2019-01-14"
   sodipodi:docname="201906161446-BeMoreMindful.svg"
   inkscape:export-filename="/home/thelibredesigner/Documents/sustainabilitistSlides/201906161446-BeMoreMindful.svg.png"
   inkscape:export-xdpi="96"
   inkscape:export-ydpi="96">
  <defs
     id="defs2">
    <clipPath
       clipPathUnits="userSpaceOnUse"
       id="clipPath921">
      <rect
         style="fill:none;stroke:#008080;stroke-width:12.79285145;stroke-miterlimit:4;stroke-dasharray:none"
         id="rect923"
         width="495.20715"
         height="495.20715"
         x="6.3964257"
         y="-204.60361" />
    </clipPath>
    <style
       id="style985">.cls-1{fill-rule:evenodd;}</style>
  </defs>
  <sodipodi:namedview
     id="base"
     pagecolor="#ffffff"
     bordercolor="#666666"
     borderopacity="1.0"
     inkscape:pageopacity="0.0"
     inkscape:pageshadow="2"
     inkscape:zoom="0.24748737"
     inkscape:cx="881.18852"
     inkscape:cy="1269.1476"
     inkscape:document-units="px"
     inkscape:current-layer="layer1"
     showgrid="false"
     units="px"
     inkscape:window-width="662"
     inkscape:window-height="718"
     inkscape:window-x="690"
     inkscape:window-y="12"
     inkscape:window-maximized="0" />
  <metadata
     id="metadata5">
    <rdf:RDF>
      <cc:Work
         rdf:about="">
        <dc:format>image/svg+xml</dc:format>
        <dc:type
           rdf:resource="http://purl.org/dc/dcmitype/StillImage" />
        <dc:title />
      </cc:Work>
    </rdf:RDF>
  </metadata>
  <g
     inkscape:label="Layer 1"
     inkscape:groupmode="layer"
     id="layer1"
     transform="translate(0,211.00002)">
    <image
       sodipodi:absref="/home/thelibredesigner/Documents/sustainabilitistSlides/links/image-from-rawpixel-id-523362-original.tif"
       xlink:href="links/image-from-rawpixel-id-523362-original.tif"
       clip-path="url(#clipPath921)"
       width="547.08221"
       height="661.08728"
       preserveAspectRatio="none"
       id="image916"
       x="-14.824193"
       y="-252.70468" />
    <text
       xml:space="preserve"
       style="font-style:normal;font-weight:normal;font-size:16.09399033px;line-height:1.25;font-family:sans-serif;letter-spacing:0px;word-spacing:0px;fill:#ffffff;fill-opacity:1;stroke:none;stroke-width:0.40234977;"
       x="14.468083"
       y="87.673187"
       id="text817"><tspan
         sodipodi:role="line"
         id="tspan815"
         x="14.468083"
         y="101.9126"
         style="font-style:normal;font-variant:normal;font-weight:normal;font-stretch:normal;font-size:107.29327393px;line-height:0.80000001;font-family:'Sporting Grotesque';-inkscape-font-specification:'Sporting Grotesque';stroke-width:0.40234977;fill:#ffffff;" /><tspan
         sodipodi:role="line"
         x="14.468083"
         y="180.42822"
         style="font-style:normal;font-variant:normal;font-weight:normal;font-stretch:normal;font-size:107.29327393px;line-height:0.80000001;font-family:'Sporting Grotesque';-inkscape-font-specification:'Sporting Grotesque';stroke-width:0.40234977;fill:#ffffff;"
         id="tspan819">More</tspan><tspan
         sodipodi:role="line"
         x="14.468083"
         y="266.26285"
         style="font-style:normal;font-variant:normal;font-weight:normal;font-stretch:normal;font-size:107.29327393px;line-height:0.80000001;font-family:'Sporting Grotesque';-inkscape-font-specification:'Sporting Grotesque';stroke-width:0.40234977;fill:#ffffff;"
         id="tspan821">Mindful</tspan></text>
    <g
       id="g997"
       transform="matrix(0.82144923,0,0,0.82144923,29.652916,-172.16035)">
      <g
         id="g995"
         style="fill:#000000"
         transform="matrix(0.69,0,0,0.69,15.5,15.5)">
        <svg
           id="svg993"
           version="1.1"
           y="0px"
           x="0px"
           viewBox="0 0 32 32"
           data-name="Manchester Citysets"
           width="100%"
           height="100%"
           style="fill:#000000">
          <defs
             id="defs987">
            <style
               id="style1008">.cls-1{fill-rule:evenodd;}</style>
          </defs>
          <title
             id="title989">bee</title>
          <path
             id="path991"
             d="M 28.979,16.9 23,11 A 7.118,7.118 0 0 0 19.47,4.931 L 21.106,3.295 19.693,1.88 17.422,4.151 v 0 A 6.639,6.639 0 0 0 16,4 7,7 0 0 0 14.549,4.15 v 0 L 12.279,1.88 10.864,3.294 12.5,4.93 v 0 A 7.133,7.133 0 0 0 8.989,11 l -5.97,5.9 a 5,5 0 0 0 7.07,7.07 l 0.11,-0.11 a 12.782,12.782 0 0 0 4.87,5.62 l 0.92,0.52 0.91,-0.52 a 12.855,12.855 0 0 0 4.89,-5.63 l 0.12,0.12 a 5,5 0 1 0 7.07,-7.07 z M 11.259,21 c -0.08,-0.29 -0.13,-0.57 -0.18,-0.85 A 7.582,7.582 0 0 1 11,19 H 21 A 7.408,7.408 0 0 1 20.9,20.13 7.084,7.084 0 0 1 20.72,21 Z M 15.989,6 A 5.015,5.015 0 0 1 21,10.99 V 13 H 11 V 11 A 4.984,4.984 0 0 1 15.989,6 Z M 21,17 H 10.989 V 15 H 21 Z M 8.669,22.56 a 3.0016704,3.0016704 0 0 1 -4.24,-4.25 l 4.56,-4.56 v 5.26 a 9.982,9.982 0 0 0 0.43,2.8 z m 7.32,5.14 A 10.994,10.994 0 0 1 12,23 h 8 a 11.1,11.1 0 0 1 -4.011,4.7 z m 11.58,-5.14 a 3.018,3.018 0 0 1 -4.24,0 l -0.76,-0.76 a 10.211,10.211 0 0 0 0.42,-2.79 v -5.28 l 4.58,4.58 a 3.012,3.012 0 0 1 0,4.25 z"
             class="cls-1"
             inkscape:connector-curvature="0"
             style="fill:#ffffff;fill-rule:evenodd" />
        </svg>
      </g>
    </g>
  </g>
</svg>
