<?xml version="1.0"?>
<svg xmlns="http://www.w3.org/2000/svg" width="1000" height="1000" viewBox="-500 -500 1000 1000">
    <path d="M-225,0L-375,-0.00" fill="none" stroke="#000000"/>
    <path d="M-229.50,7.79L-370.50,-7.79" fill="none" stroke="#000000"/>
    <path d="M-234,15.59L-366,-15.59" fill="none" stroke="#000000"/>
    <path d="M-238.50,23.38L-361.50,-23.38" fill="none" stroke="#000000"/>
    <path d="M-243,31.18L-357,-31.18" fill="none" stroke="#000000"/>
    <path d="M-247.50,38.97L-352.50,-38.97" fill="none" stroke="#000000"/>
    <path d="M-252,46.77L-348,-46.77" fill="none" stroke="#000000"/>
    <path d="M-256.50,54.56L-343.50,-54.56" fill="none" stroke="#000000"/>
    <path d="M-261,62.35L-339,-62.35" fill="none" stroke="#000000"/>
    <path d="M-268.50,64.95L-331.50,-64.95" fill="none" stroke="#000000"/>
    <path d="M-277.50,64.95L-322.50,-64.95" fill="none" stroke="#000000"/>
    <path d="M-286.50,64.95L-313.50,-64.95" fill="none" stroke="#000000"/>
    <path d="M-295.50,64.95L-304.50,-64.95" fill="none" stroke="#000000"/>
    <path d="M-304.50,64.95L-295.50,-64.95" fill="none" stroke="#000000"/>
    <path d="M-313.50,64.95L-286.50,-64.95" fill="none" stroke="#000000"/>
    <path d="M-322.50,64.95L-277.50,-64.95" fill="none" stroke="#000000"/>
    <path d="M-331.50,64.95L-268.50,-64.95" fill="none" stroke="#000000"/>
    <path d="M-339,62.35L-261,-62.35" fill="none" stroke="#000000"/>
    <path d="M-343.50,54.56L-256.50,-54.56" fill="none" stroke="#000000"/>
    <path d="M-348,46.77L-252.00,-46.77" fill="none" stroke="#000000"/>
    <path d="M-352.50,38.97L-247.50,-38.97" fill="none" stroke="#000000"/>
    <path d="M-357,31.18L-243.00,-31.18" fill="none" stroke="#000000"/>
    <path d="M-361.50,23.38L-238.50,-23.38" fill="none" stroke="#000000"/>
    <path d="M-366,15.59L-234.00,-15.59" fill="none" stroke="#000000"/>
    <path d="M-370.50,7.79L-229.50,-7.79" fill="none" stroke="#000000"/>
    <path d="M-375,-0.00L-75,0" fill="none" stroke="#000000"/>
    <path d="M-370.50,-7.79L-80.18,7.13" fill="none" stroke="#000000"/>
    <path d="M-366,-15.59L-85.36,14.27" fill="none" stroke="#000000"/>
    <path d="M-361.50,-23.38L-90.55,21.40" fill="none" stroke="#000000"/>
    <path d="M-357,-31.18L-95.73,28.53" fill="none" stroke="#000000"/>
    <path d="M-352.50,-38.97L-100.91,35.66" fill="none" stroke="#000000"/>
    <path d="M-348,-46.77L-106.09,42.80" fill="none" stroke="#000000"/>
    <path d="M-343.50,-54.56L-111.28,49.93" fill="none" stroke="#000000"/>
    <path d="M-339,-62.35L-116.46,57.06" fill="none" stroke="#000000"/>
    <path d="M-331.50,-64.95L-121.64,64.20" fill="none" stroke="#000000"/>
    <path d="M-322.50,-64.95L-126.82,71.33" fill="none" stroke="#000000"/>
    <path d="M-313.50,-64.95L-135.21,68.60" fill="none" stroke="#000000"/>
    <path d="M-304.50,-64.95L-143.59,65.88" fill="none" stroke="#000000"/>
    <path d="M-295.50,-64.95L-151.98,63.16" fill="none" stroke="#000000"/>
    <path d="M-286.50,-64.95L-160.36,60.43" fill="none" stroke="#000000"/>
    <path d="M-277.50,-64.95L-168.75,57.71" fill="none" stroke="#000000"/>
    <path d="M-268.50,-64.95L-177.14,54.98" fill="none" stroke="#000000"/>
    <path d="M-261,-62.35L-185.52,52.26" fill="none" stroke="#000000"/>
    <path d="M-256.50,-54.56L-193.91,49.53" fill="none" stroke="#000000"/>
    <path d="M-252.00,-46.77L-202.29,46.81" fill="none" stroke="#000000"/>
    <path d="M-247.50,-38.97L-210.68,44.08" fill="none" stroke="#000000"/>
    <path d="M-243.00,-31.18L-210.68,35.27" fill="none" stroke="#000000"/>
    <path d="M-238.50,-23.38L-210.68,26.45" fill="none" stroke="#000000"/>
    <path d="M-234.00,-15.59L-210.68,17.63" fill="none" stroke="#000000"/>
    <path d="M-229.50,-7.79L-210.68,8.82" fill="none" stroke="#000000"/>
    <path d="M-75,0L-210.68,0.00" fill="none" stroke="#000000"/>
    <path d="M-80.18,7.13L-210.68,-8.82" fill="none" stroke="#000000"/>
    <path d="M-85.36,14.27L-210.68,-17.63" fill="none" stroke="#000000"/>
    <path d="M-90.55,21.40L-210.68,-26.45" fill="none" stroke="#000000"/>
    <path d="M-95.73,28.53L-210.68,-35.27" fill="none" stroke="#000000"/>
    <path d="M-100.91,35.66L-210.68,-44.08" fill="none" stroke="#000000"/>
    <path d="M-106.09,42.80L-202.29,-46.81" fill="none" stroke="#000000"/>
    <path d="M-111.28,49.93L-193.91,-49.53" fill="none" stroke="#000000"/>
    <path d="M-116.46,57.06L-185.52,-52.26" fill="none" stroke="#000000"/>
    <path d="M-121.64,64.20L-177.14,-54.98" fill="none" stroke="#000000"/>
    <path d="M-126.82,71.33L-168.75,-57.71" fill="none" stroke="#000000"/>
    <path d="M-135.21,68.60L-160.36,-60.43" fill="none" stroke="#000000"/>
    <path d="M-143.59,65.88L-151.98,-63.16" fill="none" stroke="#000000"/>
    <path d="M-151.98,63.16L-143.59,-65.88" fill="none" stroke="#000000"/>
    <path d="M-160.36,60.43L-135.21,-68.60" fill="none" stroke="#000000"/>
    <path d="M-168.75,57.71L-126.82,-71.33" fill="none" stroke="#000000"/>
    <path d="M-177.14,54.98L-121.64,-64.20" fill="none" stroke="#000000"/>
    <path d="M-185.52,52.26L-116.46,-57.06" fill="none" stroke="#000000"/>
    <path d="M-193.91,49.53L-111.28,-49.93" fill="none" stroke="#000000"/>
    <path d="M-202.29,46.81L-106.09,-42.80" fill="none" stroke="#000000"/>
    <path d="M-210.68,44.08L-100.91,-35.66" fill="none" stroke="#000000"/>
    <path d="M-210.68,35.27L-95.73,-28.53" fill="none" stroke="#000000"/>
    <path d="M-210.68,26.45L-90.55,-21.40" fill="none" stroke="#000000"/>
    <path d="M-210.68,17.63L-85.36,-14.27" fill="none" stroke="#000000"/>
    <path d="M-210.68,8.82L-80.18,-7.13" fill="none" stroke="#000000"/>
    <path d="M-210.68,0.00L-54.50,-62.50" fill="none" stroke="#000000"/>
    <path d="M-210.68,-8.82L-44.50,-62.50" fill="none" stroke="#000000"/>
    <path d="M-210.68,-17.63L-34.50,-62.50" fill="none" stroke="#000000"/>
    <path d="M-210.68,-26.45L-24.50,-62.50" fill="none" stroke="#000000"/>
    <path d="M-210.68,-35.27L-14.50,-62.50" fill="none" stroke="#000000"/>
    <path d="M-210.68,-44.08L-4.50,-62.50" fill="none" stroke="#000000"/>
    <path d="M-202.29,-46.81L5.50,-62.50" fill="none" stroke="#000000"/>
    <path d="M-193.91,-49.53L15.50,-62.50" fill="none" stroke="#000000"/>
    <path d="M-185.52,-52.26L25.50,-62.50" fill="none" stroke="#000000"/>
    <path d="M-177.14,-54.98L35.50,-62.50" fill="none" stroke="#000000"/>
    <path d="M-168.75,-57.71L45.50,-62.50" fill="none" stroke="#000000"/>
    <path d="M-160.36,-60.43L55.50,-62.50" fill="none" stroke="#000000"/>
    <path d="M-151.98,-63.16L65.50,-62.50" fill="none" stroke="#000000"/>
    <path d="M-143.59,-65.88L70.50,-57.50" fill="none" stroke="#000000"/>
    <path d="M-135.21,-68.60L70.50,-47.50" fill="none" stroke="#000000"/>
    <path d="M-126.82,-71.33L70.50,-37.50" fill="none" stroke="#000000"/>
    <path d="M-121.64,-64.20L70.50,-27.50" fill="none" stroke="#000000"/>
    <path d="M-116.46,-57.06L70.50,-17.50" fill="none" stroke="#000000"/>
    <path d="M-111.28,-49.93L70.50,-7.50" fill="none" stroke="#000000"/>
    <path d="M-106.09,-42.80L70.50,2.50" fill="none" stroke="#000000"/>
    <path d="M-100.91,-35.66L70.50,12.50" fill="none" stroke="#000000"/>
    <path d="M-95.73,-28.53L70.50,22.50" fill="none" stroke="#000000"/>
    <path d="M-90.55,-21.40L70.50,32.50" fill="none" stroke="#000000"/>
    <path d="M-85.36,-14.27L70.50,42.50" fill="none" stroke="#000000"/>
    <path d="M-80.18,-7.13L70.50,52.50" fill="none" stroke="#000000"/>
    <path d="M-54.50,-62.50L70.50,62.50" fill="none" stroke="#000000"/>
    <path d="M-44.50,-62.50L60.50,62.50" fill="none" stroke="#000000"/>
    <path d="M-34.50,-62.50L50.50,62.50" fill="none" stroke="#000000"/>
    <path d="M-24.50,-62.50L40.50,62.50" fill="none" stroke="#000000"/>
    <path d="M-14.50,-62.50L30.50,62.50" fill="none" stroke="#000000"/>
    <path d="M-4.50,-62.50L20.50,62.50" fill="none" stroke="#000000"/>
    <path d="M5.50,-62.50L10.50,62.50" fill="none" stroke="#000000"/>
    <path d="M15.50,-62.50L0.50,62.50" fill="none" stroke="#000000"/>
    <path d="M25.50,-62.50L-9.50,62.50" fill="none" stroke="#000000"/>
    <path d="M35.50,-62.50L-19.50,62.50" fill="none" stroke="#000000"/>
    <path d="M45.50,-62.50L-29.50,62.50" fill="none" stroke="#000000"/>
    <path d="M55.50,-62.50L-39.50,62.50" fill="none" stroke="#000000"/>
    <path d="M65.50,-62.50L-49.50,62.50" fill="none" stroke="#000000"/>
    <path d="M70.50,-57.50L-54.50,57.50" fill="none" stroke="#000000"/>
    <path d="M70.50,-47.50L-54.50,47.50" fill="none" stroke="#000000"/>
    <path d="M70.50,-37.50L-54.50,37.50" fill="none" stroke="#000000"/>
    <path d="M70.50,-27.50L-54.50,27.50" fill="none" stroke="#000000"/>
    <path d="M70.50,-17.50L-54.50,17.50" fill="none" stroke="#000000"/>
    <path d="M70.50,-7.50L-54.50,7.50" fill="none" stroke="#000000"/>
    <path d="M70.50,2.50L-54.50,-2.50" fill="none" stroke="#000000"/>
    <path d="M70.50,12.50L-54.50,-12.50" fill="none" stroke="#000000"/>
    <path d="M70.50,22.50L-54.50,-22.50" fill="none" stroke="#000000"/>
    <path d="M70.50,32.50L-54.50,-32.50" fill="none" stroke="#000000"/>
    <path d="M70.50,42.50L-54.50,-42.50" fill="none" stroke="#000000"/>
    <path d="M70.50,52.50L-54.50,-52.50" fill="none" stroke="#000000"/>
    <path d="M70.50,62.50L213,0" fill="none" stroke="#000000"/>
    <path d="M60.50,62.50L206.25,3.90" fill="none" stroke="#000000"/>
    <path d="M50.50,62.50L199.50,7.79" fill="none" stroke="#000000"/>
    <path d="M40.50,62.50L192.75,11.69" fill="none" stroke="#000000"/>
    <path d="M30.50,62.50L186,15.59" fill="none" stroke="#000000"/>
    <path d="M20.50,62.50L179.25,19.49" fill="none" stroke="#000000"/>
    <path d="M10.50,62.50L172.50,23.38" fill="none" stroke="#000000"/>
    <path d="M0.50,62.50L165.75,27.28" fill="none" stroke="#000000"/>
    <path d="M-9.50,62.50L159,31.18" fill="none" stroke="#000000"/>
    <path d="M-19.50,62.50L152.25,35.07" fill="none" stroke="#000000"/>
    <path d="M-29.50,62.50L145.50,38.97" fill="none" stroke="#000000"/>
    <path d="M-39.50,62.50L138.75,42.87" fill="none" stroke="#000000"/>
    <path d="M-49.50,62.50L132,46.77" fill="none" stroke="#000000"/>
    <path d="M-54.50,57.50L125.25,50.66" fill="none" stroke="#000000"/>
    <path d="M-54.50,47.50L118.50,54.56" fill="none" stroke="#000000"/>
    <path d="M-54.50,37.50L111.75,58.46" fill="none" stroke="#000000"/>
    <path d="M-54.50,27.50L105,62.35" fill="none" stroke="#000000"/>
    <path d="M-54.50,17.50L100.50,62.35" fill="none" stroke="#000000"/>
    <path d="M-54.50,7.50L100.50,54.56" fill="none" stroke="#000000"/>
    <path d="M-54.50,-2.50L100.50,46.77" fill="none" stroke="#000000"/>
    <path d="M-54.50,-12.50L100.50,38.97" fill="none" stroke="#000000"/>
    <path d="M-54.50,-22.50L100.50,31.18" fill="none" stroke="#000000"/>
    <path d="M-54.50,-32.50L100.50,23.38" fill="none" stroke="#000000"/>
    <path d="M-54.50,-42.50L100.50,15.59" fill="none" stroke="#000000"/>
    <path d="M-54.50,-52.50L100.50,7.79" fill="none" stroke="#000000"/>
    <path d="M213,0L100.50,-0.00" fill="none" stroke="#000000"/>
    <path d="M206.25,3.90L100.50,-7.79" fill="none" stroke="#000000"/>
    <path d="M199.50,7.79L100.50,-15.59" fill="none" stroke="#000000"/>
    <path d="M192.75,11.69L100.50,-23.38" fill="none" stroke="#000000"/>
    <path d="M186,15.59L100.50,-31.18" fill="none" stroke="#000000"/>
    <path d="M179.25,19.49L100.50,-38.97" fill="none" stroke="#000000"/>
    <path d="M172.50,23.38L100.50,-46.77" fill="none" stroke="#000000"/>
    <path d="M165.75,27.28L100.50,-54.56" fill="none" stroke="#000000"/>
    <path d="M159,31.18L100.50,-62.35" fill="none" stroke="#000000"/>
    <path d="M152.25,35.07L105.00,-62.35" fill="none" stroke="#000000"/>
    <path d="M145.50,38.97L111.75,-58.46" fill="none" stroke="#000000"/>
    <path d="M138.75,42.87L118.50,-54.56" fill="none" stroke="#000000"/>
    <path d="M132,46.77L125.25,-50.66" fill="none" stroke="#000000"/>
    <path d="M125.25,50.66L132,-46.77" fill="none" stroke="#000000"/>
    <path d="M118.50,54.56L138.75,-42.87" fill="none" stroke="#000000"/>
    <path d="M111.75,58.46L145.50,-38.97" fill="none" stroke="#000000"/>
    <path d="M105.00,62.35L152.25,-35.07" fill="none" stroke="#000000"/>
    <path d="M100.50,62.35L159,-31.18" fill="none" stroke="#000000"/>
    <path d="M100.50,54.56L165.75,-27.28" fill="none" stroke="#000000"/>
    <path d="M100.50,46.77L172.50,-23.38" fill="none" stroke="#000000"/>
    <path d="M100.50,38.97L179.25,-19.49" fill="none" stroke="#000000"/>
    <path d="M100.50,31.18L186,-15.59" fill="none" stroke="#000000"/>
    <path d="M100.50,23.38L192.75,-11.69" fill="none" stroke="#000000"/>
    <path d="M100.50,15.59L199.50,-7.79" fill="none" stroke="#000000"/>
    <path d="M100.50,7.79L206.25,-3.90" fill="none" stroke="#000000"/>
    <path d="M100.50,-0.00L362.50,0" fill="none" stroke="#000000"/>
    <path d="M100.50,-7.79L361.97,8.15" fill="none" stroke="#000000"/>
    <path d="M100.50,-15.59L360.44,15.98" fill="none" stroke="#000000"/>
    <path d="M100.50,-23.38L357.96,23.43" fill="none" stroke="#000000"/>
    <path d="M100.50,-31.18L354.61,30.43" fill="none" stroke="#000000"/>
    <path d="M100.50,-38.97L350.44,36.91" fill="none" stroke="#000000"/>
    <path d="M100.50,-46.77L345.53,42.82" fill="none" stroke="#000000"/>
    <path d="M100.50,-54.56L339.94,48.07" fill="none" stroke="#000000"/>
    <path d="M100.50,-62.35L333.74,52.62" fill="none" stroke="#000000"/>
    <path d="M105.00,-62.35L326.99,56.39" fill="none" stroke="#000000"/>
    <path d="M111.75,-58.46L319.75,59.31" fill="none" stroke="#000000"/>
    <path d="M118.50,-54.56L312.11,61.33" fill="none" stroke="#000000"/>
    <path d="M125.25,-50.66L304.11,62.37" fill="none" stroke="#000000"/>
    <path d="M132,-46.77L295.89,62.37" fill="none" stroke="#000000"/>
    <path d="M138.75,-42.87L287.89,61.33" fill="none" stroke="#000000"/>
    <path d="M145.50,-38.97L280.25,59.31" fill="none" stroke="#000000"/>
    <path d="M152.25,-35.07L273.01,56.39" fill="none" stroke="#000000"/>
    <path d="M159,-31.18L266.26,52.62" fill="none" stroke="#000000"/>
    <path d="M165.75,-27.28L260.06,48.07" fill="none" stroke="#000000"/>
    <path d="M172.50,-23.38L254.47,42.82" fill="none" stroke="#000000"/>
    <path d="M179.25,-19.49L249.56,36.91" fill="none" stroke="#000000"/>
    <path d="M186,-15.59L245.39,30.43" fill="none" stroke="#000000"/>
    <path d="M192.75,-11.69L242.04,23.43" fill="none" stroke="#000000"/>
    <path d="M199.50,-7.79L239.56,15.98" fill="none" stroke="#000000"/>
    <path d="M206.25,-3.90L238.03,8.15" fill="none" stroke="#000000"/>
    <path d="M362.50,0L237.50,0" fill="none" stroke="#000000"/>
    <path d="M361.97,8.15L238.03,-8.15" fill="none" stroke="#000000"/>
    <path d="M360.44,15.98L239.56,-15.98" fill="none" stroke="#000000"/>
    <path d="M357.96,23.43L242.04,-23.43" fill="none" stroke="#000000"/>
    <path d="M354.61,30.43L245.39,-30.43" fill="none" stroke="#000000"/>
    <path d="M350.44,36.91L249.56,-36.91" fill="none" stroke="#000000"/>
    <path d="M345.53,42.82L254.47,-42.82" fill="none" stroke="#000000"/>
    <path d="M339.94,48.07L260.06,-48.07" fill="none" stroke="#000000"/>
    <path d="M333.74,52.62L266.26,-52.62" fill="none" stroke="#000000"/>
    <path d="M326.99,56.39L273.01,-56.39" fill="none" stroke="#000000"/>
    <path d="M319.75,59.31L280.25,-59.31" fill="none" stroke="#000000"/>
    <path d="M312.11,61.33L287.89,-61.33" fill="none" stroke="#000000"/>
    <path d="M304.11,62.37L295.89,-62.37" fill="none" stroke="#000000"/>
    <path d="M295.89,62.37L304.11,-62.37" fill="none" stroke="#000000"/>
    <path d="M287.89,61.33L312.11,-61.33" fill="none" stroke="#000000"/>
    <path d="M280.25,59.31L319.75,-59.31" fill="none" stroke="#000000"/>
    <path d="M273.01,56.39L326.99,-56.39" fill="none" stroke="#000000"/>
    <path d="M266.26,52.62L333.74,-52.62" fill="none" stroke="#000000"/>
    <path d="M260.06,48.07L339.94,-48.07" fill="none" stroke="#000000"/>
    <path d="M254.47,42.82L345.53,-42.82" fill="none" stroke="#000000"/>
    <path d="M249.56,36.91L350.44,-36.91" fill="none" stroke="#000000"/>
    <path d="M245.39,30.43L354.61,-30.43" fill="none" stroke="#000000"/>
    <path d="M242.04,23.43L357.96,-23.43" fill="none" stroke="#000000"/>
    <path d="M239.56,15.98L360.44,-15.98" fill="none" stroke="#000000"/>
    <path d="M238.03,8.15L361.97,-8.15" fill="none" stroke="#000000"/>
    <path d="M237.50,0L-225,0" fill="none" stroke="#000000"/>
    <path d="M238.03,-8.15L-229.50,7.79" fill="none" stroke="#000000"/>
    <path d="M239.56,-15.98L-234,15.59" fill="none" stroke="#000000"/>
    <path d="M242.04,-23.43L-238.50,23.38" fill="none" stroke="#000000"/>
    <path d="M245.39,-30.43L-243,31.18" fill="none" stroke="#000000"/>
    <path d="M249.56,-36.91L-247.50,38.97" fill="none" stroke="#000000"/>
    <path d="M254.47,-42.82L-252.00,46.77" fill="none" stroke="#000000"/>
    <path d="M260.06,-48.07L-256.50,54.56" fill="none" stroke="#000000"/>
    <path d="M266.26,-52.62L-261,62.35" fill="none" stroke="#000000"/>
    <path d="M273.01,-56.39L-268.50,64.95" fill="none" stroke="#000000"/>
    <path d="M280.25,-59.31L-277.50,64.95" fill="none" stroke="#000000"/>
    <path d="M287.89,-61.33L-286.50,64.95" fill="none" stroke="#000000"/>
    <path d="M295.89,-62.37L-295.50,64.95" fill="none" stroke="#000000"/>
    <path d="M304.11,-62.37L-304.50,64.95" fill="none" stroke="#000000"/>
    <path d="M312.11,-61.33L-313.50,64.95" fill="none" stroke="#000000"/>
    <path d="M319.75,-59.31L-322.50,64.95" fill="none" stroke="#000000"/>
    <path d="M326.99,-56.39L-331.50,64.95" fill="none" stroke="#000000"/>
    <path d="M333.74,-52.62L-339,62.35" fill="none" stroke="#000000"/>
    <path d="M339.94,-48.07L-343.50,54.56" fill="none" stroke="#000000"/>
    <path d="M345.53,-42.82L-348.00,46.77" fill="none" stroke="#000000"/>
    <path d="M350.44,-36.91L-352.50,38.97" fill="none" stroke="#000000"/>
    <path d="M354.61,-30.43L-357,31.18" fill="none" stroke="#000000"/>
    <path d="M357.96,-23.43L-361.50,23.38" fill="none" stroke="#000000"/>
    <path d="M360.44,-15.98L-366.00,15.59" fill="none" stroke="#000000"/>
    <path d="M361.97,-8.15L-370.50,7.79" fill="none" stroke="#000000"/>
</svg>