<?xml version="1.0" encoding="utf-8"?>
<!-- Generator: Adobe Illustrator 22.1.0, SVG Export Plug-In . SVG Version: 6.00 Build 0)  -->
<svg version="1.1" baseProfile="basic" id="AwardBUG_x5F_LeftSide_1_"
	 xmlns="http://www.w3.org/2000/svg" xmlns:xlink="http://www.w3.org/1999/xlink" x="0px" y="0px" viewBox="0 0 288 72"
	 xml:space="preserve">
<style type="text/css">
	.st0{fill:#FFFFFF;}
	.st1{fill:none;stroke:#231F20;stroke-width:0.25;stroke-miterlimit:10;}
	.st2{fill:#231F20;}
	.st3{fill:none;stroke:#000000;stroke-width:0.1;stroke-miterlimit:10;}
</style>
<g>
	<polygon points="5.5,61.4 5.5,61.6 6,62.4 6.1,62.4 	"/>
	<polygon points="5.8,60.7 5.7,60.8 6.6,62.4 6.8,62.4 	"/>
	<polygon points="6.1,60.1 6,60.2 7.3,62.4 7.4,62.4 	"/>
	<polygon points="6.4,59.6 6.4,59.7 7.9,62.4 8.1,62.4 	"/>
	<polygon points="7.6,60.7 7.7,60.6 6.8,59 6.7,59.2 	"/>
	<polygon points="7.8,60.9 7.7,60.9 8.6,62.4 8.7,62.4 	"/>
	<polygon points="8,60.2 8,60.1 7.1,58.5 7,58.6 	"/>
	<polygon points="8.5,60.9 8.3,60.9 9.2,62.4 9.4,62.4 	"/>
	<polygon points="8.3,59.6 8.4,59.5 7.5,58 7.4,58.1 	"/>
	<polygon points="9.1,60.9 9,60.9 9.9,62.4 10,62.4 	"/>
	<polygon points="9.8,60.9 9.6,60.9 10.5,62.4 10.7,62.4 	"/>
	<polygon points="8.6,59.1 8.7,59 7.8,57.4 7.7,57.5 	"/>
	<polygon points="9,58.6 9,58.5 8.1,56.9 8.1,57 	"/>
	<polygon points="10.4,60.9 10.3,60.9 11.2,62.4 11.3,62.4 	"/>
	<polygon points="11.1,60.9 10.9,60.9 11.8,62.4 12,62.4 	"/>
	<polygon points="9.3,58 9.4,57.9 8.5,56.3 8.4,56.5 	"/>
	<polygon points="9.6,57.5 9.7,57.4 8.8,55.8 8.7,55.9 	"/>
	<polygon points="11.7,60.9 11.6,60.9 12.5,62.4 12.6,62.4 	"/>
	<polygon points="10,56.9 10.1,56.8 9.1,55.3 9.1,55.4 	"/>
	<polygon points="12.4,60.9 12.2,60.9 13.1,62.4 13.3,62.4 	"/>
	<polygon points="13,60.9 12.9,60.9 13.8,62.4 13.9,62.4 	"/>
	<polygon points="10.3,56.4 10.4,56.3 9.5,54.7 9.4,54.8 	"/>
	<polygon points="13.7,60.9 13.5,60.9 14.1,61.8 14.1,61.6 	"/>
	<polygon points="5.6,47 5.7,47.1 5.5,46.8 5.5,46.9 	"/>
	<polygon points="10.7,55.8 9.8,54.2 9.8,54.3 10.7,55.9 	"/>
	<polygon points="10.2,53.6 10.1,53.8 11,55.3 11.1,55.2 	"/>
	<path d="M6.3,47.2l0.2,0L5.8,46c0,0.1,0,0.1,0,0.2L6.3,47.2z"/>
	<path d="M7,47.3l0-0.2L6,45.3c0,0,0,0.1-0.1,0.1L7,47.3z"/>
	<path d="M10.5,53.1c0,0,0,0.1-0.1,0.1l0.9,1.6l0.1-0.1L10.5,53.1z"/>
	<path d="M7.2,46.5c0-0.1,0-0.1,0-0.2l-1-1.7c0,0,0,0.1-0.1,0.1L7.2,46.5z"/>
	<path d="M10.8,52.5c0,0,0,0.1-0.1,0.1l0.9,1.6c0,0,0-0.1,0.1-0.1L10.8,52.5z"/>
	<path d="M7.5,45.8c0,0,0-0.1,0.1-0.1l-0.9-1.5c0,0-0.1,0.1-0.1,0.1L7.5,45.8z"/>
	<path d="M11.2,52c0,0,0,0.1-0.1,0.1l0.9,1.6c0,0,0-0.1,0.1-0.1L11.2,52z"/>
	<path d="M11.5,51.4c0,0,0,0.1-0.1,0.1l0.9,1.6c0,0,0-0.1,0.1-0.1L11.5,51.4z"/>
	<path d="M7.8,45.3c0,0,0-0.1,0.1-0.1L7,43.7c0,0-0.1,0.1-0.1,0.1L7.8,45.3z"/>
	<path d="M11.8,50.8c0,0,0,0.1-0.1,0.1l0.9,1.6c0,0,0-0.1,0.1-0.1L11.8,50.8z"/>
	<path d="M8.2,44.8C8.2,44.8,8.2,44.7,8.2,44.8l-0.7-1.4c0,0-0.1,0-0.1,0.1L8.2,44.8z"/>
	<path d="M12.1,50.2c0,0,0,0.1-0.1,0.1l1,1.7c0,0,0-0.1,0.1-0.1L12.1,50.2z"/>
	<path d="M8.6,44.5c0,0,0.1,0,0.1-0.1L8,43.1c0,0-0.1,0-0.1,0.1L8.6,44.5z"/>
	<path d="M9.1,44.2c0,0,0.1,0,0.1,0l-0.8-1.3c0,0-0.1,0-0.1,0L9.1,44.2z"/>
	<path d="M12.3,49.5c0,0.1,0,0.1,0,0.2l1,1.7c0,0,0-0.1,0.1-0.1L12.3,49.5z"/>
	<path d="M12.5,48.7c0,0.1,0,0.1,0,0.2l1.1,1.9c0,0,0-0.1,0.1-0.1L12.5,48.7z"/>
	<path d="M9.7,44.1c0,0,0.1,0,0.1,0l-0.8-1.4c0,0-0.1,0-0.1,0L9.7,44.1z"/>
	<path d="M10.4,44.2c0,0,0.1,0,0.1,0l-0.9-1.5c0,0-0.1,0-0.1,0L10.4,44.2z"/>
	<path d="M12.6,47.7C12.6,47.7,12.6,47.8,12.6,47.7c0,0.1,0,0.2,0,0.2l1.2,2.1c0-0.1,0-0.1,0-0.2L12.6,47.7z"/>
	<path d="M12.4,46.2C12.4,46.3,12.4,46.3,12.4,46.2c0.1,0.2,0.1,0.3,0.1,0.4l1.5,2.6c0-0.1,0-0.1,0-0.2L12.4,46.2z"/>
	<path d="M10.3,42.7c0,0-0.1,0-0.1,0l1,1.8c0.1,0.1,0.2,0.1,0.2,0.2L10.3,42.7z"/>
	<path d="M11,42.8c0,0-0.1,0-0.1,0l3.2,5.6c0-0.1,0-0.1,0-0.2L11,42.8z"/>
	<path d="M11.9,43.1c-0.1,0-0.1,0-0.2-0.1l2.5,4.3c0-0.1,0-0.2,0-0.3L11.9,43.1z"/>
	<path d="M13.1,44.1c-0.1-0.1-0.2-0.3-0.4-0.4l1.2,2c-0.1-0.2-0.1-0.4-0.2-0.6L13.1,44.1z"/>
</g>
<g>
	<path d="M17.9,59.4c0.3,0.8,0.7,1.5,1.2,2L17.9,59.4z"/>
	<path d="M17.4,57.4c0,0.1,0,0.2,0,0.3l2.6,4.6c0.1,0,0.1,0.1,0.2,0.1L17.4,57.4z"/>
	<path d="M17.2,55.9c0,0.1,0,0.1,0,0.2c0,0,0,0.1,0,0.1l3.7,6.4c0.1,0,0.1,0,0.2,0L17.2,55.9z"/>
	<path d="M20.6,60.8c-0.1-0.1-0.2-0.2-0.3-0.3l1.3,2.2c0,0,0.1,0,0.1,0L20.6,60.8z"/>
	<path d="M19.4,58.8c-0.1-0.2-0.1-0.3-0.2-0.5l-2.2-3.7c0,0.1,0,0.2,0,0.3L19.4,58.8z"/>
	<path d="M18.9,56.9c0-0.1,0-0.2-0.1-0.3L17,53.4c0,0.1,0,0.2,0,0.2L18.9,56.9z"/>
	<path d="M21.5,61.1c0,0-0.1,0-0.1,0l0.9,1.6c0,0,0.1,0,0.1,0L21.5,61.1z"/>
	<path d="M22.1,61.1c0,0-0.1,0-0.1,0l0.8,1.4c0,0,0.1,0,0.1,0L22.1,61.1z"/>
	<path d="M18.7,55.4c0-0.1,0-0.2,0-0.3L17,52.3c0,0.1,0,0.1,0,0.2L18.7,55.4z"/>
	<path d="M18.6,54.1c0-0.1,0-0.2,0-0.2L17,51.2c0,0.1,0,0.1,0,0.2L18.6,54.1z"/>
	<path d="M22.7,60.9c0,0-0.1,0-0.1,0.1l0.8,1.4c0,0,0.1,0,0.1-0.1L22.7,60.9z"/>
	<path d="M23.2,60.6C23.1,60.7,23.1,60.7,23.2,60.6l0.7,1.5c0,0,0.1-0.1,0.1-0.1L23.2,60.6z"/>
	<path d="M18.6,52.9c0-0.1,0-0.2,0-0.2l-1.5-2.5c0,0.1,0,0.1,0,0.2L18.6,52.9z"/>
	<path d="M18.6,51.8c0-0.1,0-0.1,0-0.2l-1.4-2.4c0,0,0,0.1,0,0.1c0,0,0,0.1,0,0.1L18.6,51.8z"/>
	<path d="M23.6,60.2c0,0,0,0.1-0.1,0.1l0.8,1.4c0,0,0.1,0,0.1-0.1c0,0,0,0,0,0L23.6,60.2z"/>
	<path d="M18.6,50.8c0-0.1,0-0.1,0-0.2l-1.3-2.3c0,0.1,0,0.1,0,0.2L18.6,50.8z"/>
	<path d="M23.9,59.7C23.9,59.7,23.9,59.7,23.9,59.7c0,0.1-0.1,0.1-0.1,0.1l0.9,1.5c0,0,0.1-0.1,0.1-0.1L23.9,59.7z"/>
	<path d="M18.7,49.8c0-0.1,0-0.1,0-0.2l-1.3-2.2c0,0.1,0,0.1,0,0.2L18.7,49.8z"/>
	<path d="M24.2,59c0,0,0,0.1-0.1,0.1l0.9,1.6c0,0,0-0.1,0.1-0.1L24.2,59z"/>
	<path d="M18.8,48.9c0-0.1,0-0.1,0-0.2l-1.2-2c0,0.1,0,0.1,0,0.2L18.8,48.9z"/>
	<path d="M24.4,58.3c0,0.1,0,0.1,0,0.1l1,1.8c0,0,0-0.1,0.1-0.1L24.4,58.3z"/>
	<path d="M24.6,57.5c0,0.1,0,0.1,0,0.2l1.1,1.9c0,0,0-0.1,0.1-0.1L24.6,57.5z"/>
	<path d="M19,48c0-0.1,0-0.1,0-0.2l-1.1-1.9c0,0,0,0.1-0.1,0.1L19,48z"/>
	<path d="M19.2,47.2c0-0.1,0-0.1,0-0.1l-1-1.8c0,0,0,0.1-0.1,0.1L19.2,47.2z"/>
	<path d="M24.8,56.7c0,0.1,0,0.1,0,0.2l1.2,2c0-0.1,0-0.1,0-0.2L24.8,56.7z"/>
	<path d="M19.4,46.5c0,0,0-0.1,0.1-0.1l-1-1.7c0,0,0,0.1-0.1,0.1L19.4,46.5z"/>
	<path d="M24.9,55.8c0,0.1,0,0.1,0,0.2l1.2,2.1c0-0.1,0-0.1,0-0.2L24.9,55.8z"/>
	<path d="M25,54.8c0,0.1,0,0.1,0,0.2l1.3,2.3c0-0.1,0-0.1,0-0.2L25,54.8z"/>
	<path d="M19.7,45.8c0,0,0-0.1,0.1-0.1l-0.9-1.5c0,0,0,0.1-0.1,0.1L19.7,45.8z"/>
	<path d="M25,53.8c0,0.1,0,0.1,0,0.2l1.4,2.4c0-0.1,0-0.1,0-0.2L25,53.8z"/>
	<path d="M20,45.3c0,0,0-0.1,0.1-0.1l-0.8-1.5c0,0-0.1,0.1-0.1,0.1L20,45.3z"/>
	<path d="M25.1,52.7c0,0.1,0,0.2,0,0.2l1.5,2.5c0-0.1,0-0.1,0-0.2L25.1,52.7z"/>
	<path d="M20.4,44.8C20.4,44.8,20.4,44.8,20.4,44.8l-0.7-1.5c0,0-0.1,0.1-0.1,0.1L20.4,44.8z"/>
	<path d="M25,51.5c0,0.1,0,0.2,0,0.2l1.5,2.7c0-0.1,0-0.1,0-0.2L25,51.5z"/>
	<path d="M20.8,44.5c0,0,0.1,0,0.1-0.1L20.1,43c0,0-0.1,0-0.1,0.1L20.8,44.5z"/>
	<path d="M25,50.3c0,0.1,0,0.2,0,0.3l1.6,2.8c0-0.1,0-0.1,0-0.2L25,50.3z"/>
	<path d="M21.4,44.2c0,0,0.1,0,0.1,0l-0.8-1.4c0,0-0.1,0-0.1,0L21.4,44.2z"/>
	<path d="M24.8,48.9c0,0.1,0,0.2,0,0.3c0,0,0,0,0,0l1.8,3.1c0-0.1,0-0.2,0-0.2L24.8,48.9z"/>
	<path d="M22,44.2c0.1,0,0.1,0,0.1,0l-0.9-1.5c0,0-0.1,0-0.1,0L22,44.2z"/>
	<path d="M24.5,47.1c0,0,0,0.1,0,0.1c0,0.1,0,0.2,0.1,0.3l2,3.5c0-0.1,0-0.2,0-0.3L24.5,47.1z"/>
	<path d="M22.8,44.4c0.1,0,0.1,0.1,0.2,0.1l-1.1-1.9c0,0,0,0,0,0c0,0-0.1,0-0.1,0L22.8,44.4z"/>
	<path d="M22.6,42.7c0,0-0.1,0-0.1,0l4.1,7.1c0-0.1,0-0.2,0-0.3L22.6,42.7z"/>
	<path d="M23.4,43c-0.1,0-0.1-0.1-0.2-0.1l3.2,5.5c0-0.1,0-0.2,0-0.3L23.4,43z"/>
	<path d="M24.5,43.8c0,0-0.1-0.1-0.1-0.1c-0.1-0.1-0.1-0.1-0.2-0.2l1.7,3c0-0.1-0.1-0.3-0.1-0.4L24.5,43.8z"/>
</g>
<g>
	<polygon points="33.4,61.5 33.4,61.8 33.7,62.4 33.9,62.4 	"/>
	<polygon points="33.4,60.4 33.4,60.7 34.4,62.4 34.5,62.4 	"/>
	<polygon points="33.4,59.3 33.4,59.5 35,62.3 35,62 	"/>
	<polygon points="33.4,58.2 33.4,58.4 35,61.1 35,60.9 	"/>
	<polygon points="33.4,57 33.4,57.3 35,60 35,59.8 	"/>
	<polygon points="33.4,55.9 33.4,56.2 35,58.9 35,58.6 	"/>
	<polygon points="33.4,54.8 33.4,55 35,57.8 35,57.5 	"/>
	<polygon points="33.4,53.7 33.4,53.9 35,56.6 35,56.4 	"/>
	<polygon points="29.3,46.5 29.2,46.6 29.5,47 	"/>
	<polygon points="30.4,47.6 30.5,47.6 29.7,46.2 29.6,46.3 	"/>
	<polygon points="33.4,52.6 33.4,52.8 35,55.5 35,55.3 	"/>
	<polygon points="33.4,51.4 33.4,51.7 35,54.4 35,54.1 	"/>
	<polygon points="30.9,47.3 31,47.2 30.2,45.8 30.1,45.9 	"/>
	<polygon points="31.3,46.9 31.4,46.8 30.6,45.5 30.5,45.5 	"/>
	<polygon points="33.4,50.3 33.4,50.5 35,53.3 35,53 	"/>
	<polygon points="33.4,49.2 33.4,49.4 35,52.1 35,51.9 	"/>
	<polygon points="31.7,46.6 31.8,46.5 31,45.1 31,45.2 	"/>
	<polygon points="32.2,46.2 32.3,46.1 31.5,44.8 31.4,44.8 	"/>
	<polygon points="33.4,48 33.4,48.3 35,51 35,50.8 	"/>
	<polygon points="33.4,46.9 33.4,47.2 35,49.9 35,49.6 	"/>
	<polygon points="32.6,45.8 32.7,45.8 31.9,44.4 31.8,44.5 	"/>
	<polygon points="33.4,45.8 33.4,46 35,48.8 35,48.5 	"/>
	<polygon points="32.4,44 32.3,44.1 33.1,45.5 33.2,45.4 	"/>
	<polygon points="32.8,43.7 32.7,43.8 35,47.6 35,47.4 	"/>
	<polygon points="33.3,43.3 33.2,43.4 35,46.5 35,46.3 	"/>
	<polygon points="33.7,43 33.6,43 35,45.4 35,45.1 	"/>
	<polygon points="34.4,43 34.2,43 35,44.3 35,44 	"/>
	<polygon points="35,43.1 35,43 34.9,43 	"/>
</g>
<g>
	<polygon points="42.9,61.8 42.8,61.9 43.1,62.4 43.2,62.4 	"/>
	<polygon points="43.2,61.2 43.1,61.3 43.7,62.4 43.9,62.4 	"/>
	<polygon points="43.5,60.5 43.4,60.6 44.4,62.4 44.4,62.4 44.5,62.3 	"/>
	<polygon points="43.7,59.9 43.7,60 44.7,61.7 44.7,61.6 	"/>
	<polygon points="44,59.2 44,59.4 45,61.1 45,61 	"/>
	<polygon points="44.3,58.6 44.2,58.7 45.2,60.4 45.3,60.3 	"/>
	<path d="M42.1,53.6l-1.8-3.1c0,0.1,0,0.2,0.1,0.3c0,0,0,0,0,0.1l1.5,2.6C41.9,53.5,42,53.6,42.1,53.6z"/>
	<polygon points="44.6,57.9 44.5,58.1 45.5,59.8 45.6,59.7 	"/>
	<path d="M42.9,54.1c0.1,0,0.1,0,0.2,0.1l-3-5.2c0,0.1,0,0.2,0,0.3L42.9,54.1z"/>
	<polygon points="44.8,57.3 44.8,57.4 45.8,59.1 45.8,59 	"/>
	<polygon points="45.1,56.7 45.1,56.8 46.1,58.5 46.1,58.4 	"/>
	<path d="M43.7,54.4c0,0,0.1,0,0.1,0l-3.7-6.5c0,0.1,0,0.1,0,0.2L43.7,54.4z"/>
	<polygon points="45.4,56 45.3,56.2 46.3,57.9 46.4,57.7 	"/>
	<path d="M41.7,49.9c0-0.1,0-0.2-0.1-0.3L40.2,47c0,0.1,0,0.1,0,0.2L41.7,49.9z"/>
	<path d="M43.5,52.8c0,0-0.1,0-0.2-0.1c0,0,0,0,0,0l1,1.8c0,0,0.1,0,0.1,0L43.5,52.8z"/>
	<polygon points="45.7,55.4 45.6,55.5 46.6,57.2 46.7,57.1 	"/>
	<path d="M44.3,53c0,0-0.1,0-0.1,0l0.9,1.5c0,0,0.1,0,0.1,0L44.3,53z"/>
	<path d="M41.6,48.6C41.6,48.6,41.6,48.5,41.6,48.6c0-0.1,0-0.2,0-0.2l-1.3-2.2c0,0,0,0.1,0,0.1c0,0,0,0.1,0,0.1L41.6,48.6z"/>
	<path d="M45,53c0,0-0.1,0-0.1,0l0.8,1.3c0,0,0.1,0,0.1,0L45,53z"/>
	<path d="M41.7,47.5c0-0.1,0-0.1,0-0.2l-1.1-1.9c0,0,0,0.1-0.1,0.1L41.7,47.5z"/>
	<polygon points="46,54.7 45.9,54.9 46.9,56.6 46.9,56.4 	"/>
	<path d="M45.5,52.8c0,0-0.1,0-0.1,0l0.7,1.3c0,0,0,0,0,0l0,0l1,1.7l0.1-0.1L45.5,52.8z"/>
	<path d="M41.8,46.7C41.8,46.7,41.8,46.7,41.8,46.7c0-0.1,0-0.1,0-0.1l-1-1.7c0,0,0,0.1-0.1,0.1L41.8,46.7z"/>
	<path d="M46,52.6C46,52.6,46,52.6,46,52.6l1.4,2.7l0.1-0.1L46,52.6z"/>
	<path d="M42.1,46c0,0,0-0.1,0.1-0.1l-0.9-1.5c0,0,0,0,0,0c0,0,0,0,0,0.1L42.1,46z"/>
	<path d="M42.4,45.4c0,0,0-0.1,0.1-0.1l-0.8-1.4c0,0-0.1,0.1-0.1,0.1L42.4,45.4z"/>
	<path d="M46.5,52.2C46.4,52.3,46.4,52.3,46.5,52.2l1.2,2.4l0.1-0.1L46.5,52.2z"/>
	<path d="M46.9,51.8C46.9,51.8,46.8,51.8,46.9,51.8C46.8,51.8,46.8,51.9,46.9,51.8L48,54l0.1-0.1L46.9,51.8z"/>
	<path d="M42.8,44.9C42.8,44.9,42.8,44.9,42.8,44.9l-0.7-1.4c0,0-0.1,0-0.1,0.1L42.8,44.9z"/>
	<path d="M47.2,51.2c0,0,0,0.1-0.1,0.1l1.1,2c0,0,0-0.1,0.1-0.1L47.2,51.2z"/>
	<path d="M43.2,44.6C43.2,44.6,43.3,44.5,43.2,44.6l-0.7-1.4c0,0-0.1,0-0.1,0.1L43.2,44.6z"/>
	<path d="M47.5,50.6c0,0,0,0.1-0.1,0.1l1.1,1.9c0,0,0-0.1,0.1-0.1L47.5,50.6z"/>
	<path d="M43.7,44.3c0,0,0.1,0,0.1,0L43.1,43c0,0-0.1,0-0.1,0L43.7,44.3z"/>
	<path d="M44.3,44.2c0,0,0.1,0,0.1,0l-0.8-1.4c0,0-0.1,0-0.1,0L44.3,44.2z"/>
	<path d="M47.6,49.8c0,0.1,0,0.1,0,0.2l1.1,2c0-0.1,0-0.1,0-0.2L47.6,49.8z"/>
	<path d="M47.7,48.8c0,0.1,0,0.1,0,0.2l1.2,2.2c0-0.1,0-0.1,0-0.2L47.7,48.8z"/>
	<path d="M44.9,44.1c0,0,0.1,0,0.1,0l-0.9-1.5c0,0-0.1,0-0.1,0L44.9,44.1z"/>
	<path d="M44.8,42.7c0,0-0.1,0-0.1,0l1,1.7c0.1,0,0.1,0,0.2,0.1L44.8,42.7z"/>
	<path d="M47.7,47.6c0,0.1,0,0.2,0,0.3l1.4,2.5c0-0.1,0-0.1,0-0.2L47.7,47.6z"/>
	<path d="M45.5,42.7c0,0-0.1,0-0.1,0l1.5,2.6c0,0,0,0,0,0c0.1,0.1,0.1,0.3,0.2,0.4l2.1,3.7c0-0.1,0-0.1,0-0.2L45.5,42.7z"/>
	<path d="M46.3,42.9c-0.1,0-0.1,0-0.2-0.1l3.2,5.5c0-0.1,0-0.2,0-0.3L46.3,42.9z"/>
	<path d="M47.3,43.5c-0.1-0.1-0.1-0.1-0.2-0.2l2.1,3.7c0-0.1,0-0.2-0.1-0.3L47.3,43.5z"/>
</g>
<g>
	<path class="st0" d="M11.7,51.8c0.3-0.6,0.6-1.1,0.8-1.7c0.2-0.5,0.4-1.1,0.5-1.6c0.1-0.5,0.2-1.1,0.2-1.7c0-0.6-0.1-1.2-0.2-1.8
		c-0.2-0.6-0.4-1.1-0.7-1.6c-0.3-0.5-0.8-0.9-1.3-1.2c-0.5-0.3-1.2-0.4-1.9-0.4c-1.2,0-2.2,0.4-2.9,1.1c-0.7,0.7-1.2,1.6-1.5,2.8
		l-0.1,0.5l1.5,0.4L6.2,46c0.4-1.9,1.3-2.8,2.9-2.8c0.4,0,0.8,0.1,1.1,0.3c0.3,0.2,0.6,0.4,0.8,0.8c0.2,0.3,0.4,0.7,0.5,1.2
		c0.1,0.5,0.2,1,0.2,1.5c0,0.9-0.2,1.7-0.6,2.6c-0.4,0.9-1,1.9-1.7,3l-4.8,7.7v1.3h8.6V60H6.6l4-6.3C11,53,11.4,52.3,11.7,51.8z"/>
	<path class="st0" d="M24.9,45.2c-0.3-1-0.8-1.8-1.4-2.4c-0.7-0.7-1.5-1-2.6-1c-1,0-1.9,0.3-2.6,1c-0.6,0.6-1.1,1.4-1.4,2.4
		c-0.3,0.9-0.5,2-0.7,3.2c-0.1,1.1-0.2,2.3-0.2,3.4c0,1.1,0.1,2.2,0.2,3.4c0.1,1.2,0.3,2.2,0.7,3.2c0.3,1,0.8,1.8,1.4,2.4
		c0.7,0.7,1.5,1,2.6,1c1,0,1.9-0.3,2.6-1c0.6-0.6,1.1-1.4,1.4-2.4c0.3-0.9,0.5-2,0.7-3.2c0.1-1.1,0.2-2.3,0.2-3.4
		c0-1.1-0.1-2.2-0.2-3.4C25.4,47.2,25.2,46.2,24.9,45.2z M23.6,57.2c-0.2,0.6-0.4,1.2-0.6,1.6c-0.2,0.4-0.5,0.8-0.9,1.1
		c-0.6,0.5-1.7,0.5-2.3,0c-0.4-0.3-0.7-0.6-0.9-1.1c-0.3-0.5-0.5-1-0.6-1.6c-0.2-0.6-0.3-1.3-0.4-1.9c-0.1-0.6-0.1-1.3-0.2-1.9
		c0-0.6,0-1.1,0-1.6c0-0.4,0-1,0-1.6c0-0.6,0.1-1.2,0.2-1.9c0.1-0.6,0.2-1.3,0.4-1.9c0.2-0.6,0.4-1.2,0.6-1.6
		c0.2-0.4,0.5-0.8,0.9-1.1c0.3-0.3,0.7-0.4,1.2-0.4c0.5,0,0.8,0.1,1.2,0.4c0.4,0.3,0.7,0.6,0.9,1.1c0.3,0.5,0.5,1,0.6,1.6
		c0.2,0.6,0.3,1.3,0.4,1.9c0.1,0.6,0.1,1.3,0.2,1.9c0,0.6,0,1.1,0,1.6c0,0.5,0,1,0,1.6c0,0.6-0.1,1.2-0.2,1.9
		C23.9,55.9,23.7,56.6,23.6,57.2z"/>
	<polygon class="st0" points="28.3,45.7 29.3,46.9 32.5,44.3 32.5,61.5 34,61.5 34,42.1 32.8,42.1 	"/>
	<path class="st0" d="M48.1,45.4c-0.2-0.7-0.5-1.4-0.9-1.9c-0.4-0.5-0.9-1-1.5-1.3c-1.2-0.6-2.9-0.6-4,0c-0.6,0.3-1.1,0.7-1.5,1.3
		c-0.4,0.5-0.7,1.2-0.9,1.9c-0.2,0.7-0.3,1.5-0.3,2.3c0,0.8,0.1,1.6,0.3,2.3c0.2,0.7,0.5,1.3,0.8,1.9c0.4,0.6,0.9,1,1.4,1.3
		c1.1,0.6,2.5,0.6,3.6,0.2l-3.6,8.2h1.8l3.7-8.8c0.4-1,0.7-1.9,0.9-2.7c0.2-0.8,0.3-1.5,0.3-2.2C48.4,46.9,48.3,46.1,48.1,45.4z
		 M44.9,51.9c-0.8,0.4-1.8,0.4-2.5,0c-0.4-0.2-0.7-0.5-0.9-0.9c-0.3-0.4-0.5-0.9-0.6-1.4c-0.1-0.6-0.2-1.2-0.2-1.9
		c0-0.7,0.1-1.3,0.2-1.8c0.1-0.5,0.4-1,0.6-1.4c0.3-0.4,0.6-0.7,0.9-0.9c0.4-0.2,0.8-0.3,1.3-0.3c0.5,0,0.9,0.1,1.3,0.3
		c0.4,0.2,0.7,0.5,1,0.9c0.3,0.4,0.5,0.9,0.6,1.4c0.1,0.6,0.2,1.2,0.2,1.9c0,0.6-0.1,1.2-0.2,1.8c-0.2,0.5-0.4,1-0.7,1.4
		C45.6,51.3,45.3,51.6,44.9,51.9z"/>
</g>
<path class="st1" d="M12.5,40.6"/>
<g>
	<path class="st2" d="M24.7,27.1c0,0,0.4-0.2,1-0.4c0.6-0.2,1.4-0.6,2.1-1c0.8-0.4,1.4-0.9,1.9-1.3c0.5-0.4,0.8-0.7,0.8-0.7
		c0,0,0,0,0,0c0,0,0,0,0,0c0,0-0.3,0.3-0.7,0.8c-0.5,0.5-1.1,1-1.9,1.4c-0.7,0.4-1.6,0.7-2.2,0.9C25.1,27,24.7,27.1,24.7,27.1
		C24.7,27.1,24.7,27.1,24.7,27.1C24.7,27.1,24.7,27.1,24.7,27.1z"/>
	<path class="st2" d="M23.9,25.9c0,0,0.1,0,0.2-0.1c0.2,0,0.4-0.1,0.6-0.2c0.5-0.1,1.2-0.4,1.9-0.7c0.7-0.3,1.3-0.7,1.7-1.1
		c0.2-0.2,0.4-0.3,0.5-0.4c0.1-0.1,0.2-0.2,0.2-0.2c0,0,0,0,0,0c0,0,0,0,0,0c0,0-0.2,0.3-0.6,0.7c-0.4,0.4-1,0.9-1.7,1.2
		c-0.7,0.3-1.4,0.6-1.9,0.7C24.3,25.9,23.9,25.9,23.9,25.9C23.9,25.9,23.9,25.9,23.9,25.9C23.9,25.9,23.9,25.9,23.9,25.9z"/>
	<path class="st2" d="M15.6,24.9c0,0,0.1,0,0.2,0.1c0.1,0.1,0.3,0.1,0.5,0.2c0.4,0.2,1,0.3,1.6,0.4c0.6,0.2,1.2,0.3,1.6,0.3
		C20,26,20.3,26,20.3,26c0,0,0,0,0,0c0,0,0,0,0,0c0,0-0.3,0-0.8,0c-0.5,0-1.1-0.1-1.7-0.2c-0.6-0.1-1.2-0.3-1.6-0.5
		C15.8,25.1,15.6,24.9,15.6,24.9C15.6,24.9,15.6,24.9,15.6,24.9C15.6,24.9,15.6,24.9,15.6,24.9z"/>
	<path class="st2" d="M10.7,23.7c0,0,0,0,0.1-0.1c0.1-0.1,0.2-0.1,0.3-0.2c0.3-0.2,0.8-0.4,1.3-0.5c1.2-0.3,2.8-0.2,4.3,0.4
		c1.4,0.6,2.9,1.2,4.1,1.3c0.6,0.1,1.1,0,1.4,0c0.3,0,0.5-0.1,0.5-0.1c0,0,0,0,0,0c0,0,0,0,0,0c0,0-0.2,0.1-0.5,0.1
		c-0.3,0.1-0.8,0.1-1.4,0.1c-1.2-0.1-2.7-0.7-4.1-1.3c-1.5-0.6-3.1-0.7-4.2-0.5c-0.6,0.1-1,0.3-1.3,0.4c-0.2,0.1-0.3,0.1-0.3,0.2
		C10.7,23.7,10.7,23.7,10.7,23.7C10.7,23.7,10.7,23.7,10.7,23.7C10.7,23.7,10.7,23.7,10.7,23.7z"/>
	<path class="st2" d="M31,27c0,0-0.1,0-0.3-0.1c-0.2-0.1-0.4-0.1-0.7-0.2c-0.5-0.2-1.2-0.6-1.9-1c-0.6-0.5-1.2-1-1.6-1.4
		c-0.2-0.2-0.3-0.4-0.4-0.6c-0.1-0.1-0.1-0.2-0.1-0.2c0,0,0,0,0,0c0,0,0,0,0,0c0,0,0.2,0.3,0.6,0.7c0.4,0.4,1,0.9,1.6,1.4
		C29.6,26.4,31.1,27,31,27C31.1,27,31.1,27,31,27C31.1,27,31,27,31,27z"/>
	<path class="st2" d="M39.9,25.7c0,0-0.2,0.1-0.5,0.2c-0.3,0.1-0.8,0.3-1.5,0.4c-0.6,0.1-1.3,0.2-2.1,0.2c-0.4,0-0.8,0-1.2,0
		c-0.4,0-0.8-0.1-1.2-0.1c-1.7-0.3-3.2-1-4.2-1.8c-0.5-0.4-0.9-0.8-1.1-1c-0.2-0.3-0.3-0.5-0.3-0.5c0,0,0,0,0,0c0,0,0,0,0,0
		c0,0,0.1,0.2,0.4,0.4c0.3,0.3,0.6,0.6,1.1,1c1,0.7,2.6,1.4,4.2,1.7c0.4,0.1,0.8,0.1,1.2,0.2c0.4,0.1,0.8,0,1.2,0.1
		c0.8,0,1.5-0.1,2.1-0.2c0.6-0.1,1.1-0.2,1.5-0.3C39.6,25.7,39.8,25.7,39.9,25.7C39.9,25.7,39.9,25.7,39.9,25.7
		C39.9,25.7,39.9,25.7,39.9,25.7z"/>
	<path class="st2" d="M45.9,24.2c0,0-0.7-0.5-1.8-0.7c-1.1-0.3-2.7-0.2-4.2,0.4c-1.5,0.5-3,1-4.2,1.1c-0.6,0-1.1-0.1-1.4-0.2
		c-0.3-0.1-0.5-0.2-0.5-0.2c0,0,0,0,0,0c0,0,0,0,0,0c0,0,0.2,0.1,0.5,0.1c0.3,0.1,0.8,0.1,1.4,0.1c1.2,0,2.7-0.6,4.2-1.1
		c1.5-0.6,3.1-0.6,4.3-0.3c0.6,0.1,1,0.3,1.3,0.5C45.8,24.1,45.9,24.2,45.9,24.2C45.9,24.2,45.9,24.2,45.9,24.2
		C45.9,24.2,45.9,24.2,45.9,24.2z"/>
	<path class="st2" d="M12.2,35.8c0,0,0.2,0,0.4,0c0.3,0,0.6,0,1.1,0.1c0.9,0,2.1,0,3.3-0.3c0.6-0.1,1.2-0.3,1.7-0.5
		c0.5-0.2,1-0.5,1.4-0.7c0.4-0.3,0.7-0.4,0.9-0.6c0.2-0.2,0.3-0.3,0.3-0.3c0,0,0,0,0,0c0,0,0,0,0,0c0,0-0.1,0.1-0.3,0.3
		c-0.2,0.2-0.5,0.4-0.9,0.7c-0.4,0.2-0.9,0.5-1.4,0.7c-0.5,0.2-1.1,0.4-1.7,0.6C15.8,36,14.6,36,13.7,36
		C12.7,35.9,12.1,35.8,12.2,35.8C12.1,35.8,12.1,35.8,12.2,35.8C12.1,35.8,12.1,35.8,12.2,35.8z"/>
	<path class="st2" d="M17.6,36.9c0,0,0.1,0,0.2,0c0.1,0,0.3-0.1,0.6-0.1c0.5-0.1,1.1-0.3,1.6-0.7c0.6-0.3,1-0.7,1.3-1.1
		c0.1-0.2,0.3-0.3,0.4-0.4c0.1-0.1,0.1-0.2,0.1-0.2c0,0,0,0,0,0c0,0,0,0,0,0c0,0-0.1,0.3-0.4,0.7c-0.3,0.4-0.8,0.8-1.3,1.2
		c-0.6,0.3-1.2,0.5-1.7,0.6C17.9,36.9,17.6,37,17.6,36.9C17.6,37,17.6,36.9,17.6,36.9C17.6,36.9,17.6,36.9,17.6,36.9z"/>
	<path class="st2" d="M38.5,36.1c0,0-0.3-0.2-0.7-0.4c-0.4-0.2-1-0.4-1.7-0.4c-0.6-0.1-1.3,0-1.7,0c-0.2,0.1-0.4,0.1-0.6,0.1
		c-0.1,0-0.2,0.1-0.2,0.1c0,0,0,0,0,0c0,0,0,0,0,0c0,0,0.3-0.2,0.8-0.3c0.5-0.1,1.1-0.2,1.8-0.1c0.7,0.1,1.3,0.3,1.7,0.5
		c0.2,0.1,0.4,0.3,0.5,0.4C38.5,36.1,38.5,36.1,38.5,36.1C38.5,36.1,38.5,36.1,38.5,36.1C38.5,36.2,38.5,36.1,38.5,36.1z"/>
	<path class="st2" d="M28.9,36.2c0,0,0.2-0.1,0.6-0.2c0.4-0.1,0.9-0.3,1.6-0.6c1.3-0.5,2.9-1.6,4.8-2c0.9-0.2,1.9-0.2,2.8-0.1
		c0.9,0.1,1.7,0.4,2.3,0.8c0.3,0.2,0.6,0.4,0.8,0.5c0.2,0.2,0.4,0.4,0.5,0.5c0.3,0.3,0.3,0.6,0.3,0.6c0,0,0,0,0,0c0,0,0,0,0,0
		c0,0-0.1-0.2-0.3-0.5c-0.3-0.3-0.7-0.7-1.4-1c-1.2-0.7-3.2-1-5-0.6C34,34,32.4,35,31.1,35.5c-0.7,0.3-1.2,0.5-1.6,0.6
		C29.1,36.1,28.9,36.2,28.9,36.2C28.9,36.2,28.9,36.2,28.9,36.2C28.9,36.2,28.9,36.2,28.9,36.2z"/>
	<path class="st2" d="M41.2,21c0,0,0.1,0.1,0.3,0.1c0.2,0.1,0.5,0.1,0.9,0.2c0.7,0.2,1.8,0.2,2.7,0c0.5-0.1,1-0.2,1.4-0.4
		c0.2-0.1,0.4-0.2,0.6-0.3c0.2-0.1,0.3-0.3,0.5-0.4c0.2-0.3,0.5-0.5,0.6-0.7c0.1-0.2,0.2-0.3,0.2-0.3c0,0,0,0,0,0c0,0,0,0,0,0
		c0,0-0.1,0.1-0.2,0.3c-0.1,0.2-0.3,0.5-0.6,0.7c-0.1,0.1-0.3,0.3-0.5,0.4c-0.2,0.1-0.4,0.3-0.6,0.4c-0.4,0.2-0.9,0.4-1.4,0.5
		c-1,0.2-2.1,0.1-2.8-0.1C41.7,21.2,41.2,21,41.2,21C41.2,21,41.2,21,41.2,21C41.2,21,41.2,21,41.2,21z"/>
	<path class="st2" d="M45,20.1c0,0,0.3-0.1,0.7-0.3c0.4-0.2,0.9-0.5,1.3-1c0.4-0.4,0.8-0.9,0.9-1.3c0.2-0.4,0.3-0.7,0.3-0.7
		c0,0,0,0,0,0c0,0,0,0,0,0c0,0,0,0.3-0.2,0.7c-0.1,0.4-0.4,1-0.9,1.4c-0.4,0.4-1,0.8-1.4,0.9C45.3,20.1,45,20.1,45,20.1
		C45,20.1,45,20.1,45,20.1C45,20.1,45,20.1,45,20.1z"/>
	<path class="st2" d="M14.4,20.6c0,0-0.1,0.1-0.3,0.2c-0.2,0.1-0.5,0.3-0.9,0.4c-0.7,0.3-1.8,0.5-2.8,0.4c-0.5-0.1-1-0.2-1.5-0.5
		c-0.2-0.1-0.4-0.2-0.6-0.4c-0.2-0.1-0.3-0.3-0.5-0.4c-0.3-0.3-0.5-0.6-0.6-0.8c-0.1-0.2-0.2-0.3-0.2-0.3c0,0,0,0,0,0c0,0,0,0,0,0
		c0,0,0.1,0.1,0.2,0.3c0.1,0.2,0.3,0.4,0.6,0.7c0.2,0.1,0.3,0.2,0.5,0.4C8.6,20.8,8.8,20.9,9,21c0.4,0.2,0.9,0.3,1.4,0.4
		c1,0.1,2.1,0,2.8-0.3C14,20.9,14.4,20.6,14.4,20.6C14.4,20.6,14.4,20.6,14.4,20.6C14.4,20.6,14.4,20.6,14.4,20.6z"/>
	<path class="st2" d="M10.6,19.7c0,0-0.1,0-0.2,0c-0.1,0-0.3,0-0.6-0.1c-0.5-0.1-1-0.4-1.5-0.8c-0.5-0.4-0.8-1-1-1.4
		c-0.1-0.2-0.1-0.4-0.1-0.6c0-0.1,0-0.2,0-0.2c0,0,0,0,0,0c0,0,0,0,0,0c0,0,0,0.3,0.2,0.7c0.2,0.4,0.5,0.9,1,1.3
		c0.5,0.4,1,0.7,1.4,0.8C10.3,19.6,10.6,19.6,10.6,19.7C10.6,19.6,10.6,19.6,10.6,19.7C10.6,19.7,10.6,19.7,10.6,19.7z"/>
	<g>
		<polygon class="st2" points="8.9,15.5 8.8,15.6 9.1,16 9.2,16 		"/>
		<polygon class="st2" points="9.1,14.7 9,14.8 9.7,16 9.9,16 		"/>
		<polygon class="st2" points="9.2,13.9 9.2,14.1 10.4,16 10.5,16 		"/>
		<polygon class="st2" points="9.8,13.7 9.6,13.7 11,16 11.1,16 		"/>
		<polygon class="st2" points="10,13.1 10,13.3 11.7,16 11.8,16 		"/>
		<polygon class="st2" points="10.2,12.3 10.2,12.5 12.3,16 12.4,16 12.4,15.9 		"/>
		<polygon class="st2" points="13,15.8 12.9,16 13,16 13.1,16 		"/>
		<polygon class="st2" points="12.5,15.3 12.6,15.2 10.4,11.6 10.4,11.7 		"/>
		<polygon class="st2" points="13.2,15.1 13.1,15.2 13.6,16 13.7,16 		"/>
		<polygon class="st2" points="10.1,10.3 10.2,10.4 10.4,10.4 10.2,10.1 		"/>
		<polygon class="st2" points="10.6,10.8 10.6,11 12.7,14.6 12.8,14.5 12.8,14.5 		"/>
		<polygon class="st2" points="10.4,9.4 10.3,9.5 14.3,16 14.4,16 		"/>
		<polygon class="st2" points="10.6,8.6 10.5,8.7 14.9,16 15,16 		"/>
		<polygon class="st2" points="10.9,8.1 10.8,8.1 15.6,16 15.7,16 		"/>
		<polygon class="st2" points="11.6,8.1 11.4,8.1 16.2,16 16.3,16 		"/>
		<polygon class="st2" points="12.2,8.1 12.1,8.1 16.6,15.6 16.7,15.5 		"/>
		<polygon class="st2" points="14.1,10.2 14,10.3 16.8,14.9 16.9,14.7 		"/>
		<polygon class="st2" points="13.9,10 13.8,9.7 12.8,8.1 12.7,8.1 		"/>
		<polygon class="st2" points="14.4,9.7 14.4,9.8 16.6,13.4 16.6,13.3 		"/>
		<polygon class="st2" points="13.6,8.5 13.6,8.2 13.5,8.1 13.4,8.1 		"/>
		<polygon class="st2" points="16.9,13.7 16.8,13.7 17,14.1 17,14 		"/>
		<polygon class="st2" points="14.8,9.2 14.7,9.2 16.8,12.7 16.8,12.5 		"/>
		<polygon class="st2" points="15.1,8.6 15.1,8.7 17,11.9 17,11.8 		"/>
		<polygon class="st2" points="15.5,8.1 15.4,8.2 17.1,11.1 17.2,11 		"/>
		<polygon class="st2" points="16.1,8.1 16,8.1 17.3,10.4 17.5,10.4 		"/>
		<polygon class="st2" points="16.7,8.1 16.6,8.1 18,10.3 18,10.2 		"/>
		<polygon class="st2" points="17.4,8.1 17.3,8.1 18.1,9.5 18.2,9.4 		"/>
		<polygon class="st2" points="18,8.1 17.9,8.1 18.3,8.8 18.3,8.6 		"/>
	</g>
	<g>
		<polygon class="st2" points="21.4,15.8 21.4,15.9 21.4,16 21.5,16 		"/>
		<polygon class="st2" points="21.6,15 21.5,15.2 22,16 22.1,16 		"/>
		<polygon class="st2" points="21.8,14.3 21.7,14.4 22.7,16 22.8,16 		"/>
		<polygon class="st2" points="22.1,13.7 21.9,13.7 23.3,16 23.4,16 		"/>
		<polygon class="st2" points="22.5,13.4 22.5,13.5 24,16 24.1,16 		"/>
		<polygon class="st2" points="22.7,12.6 22.7,12.8 24.6,16 24.7,16 		"/>
		<polygon class="st2" points="22.9,11.9 22.9,12 25.1,15.6 25.1,15.5 		"/>
		<polygon class="st2" points="23.1,11.1 23.1,11.3 25.2,14.9 25.3,14.7 		"/>
		<polygon class="st2" points="23.3,10.4 23.3,10.5 25,13.4 25.1,13.3 		"/>
		<polygon class="st2" points="22.9,9.8 23.2,10.3 23.3,10.3 22.9,9.7 		"/>
		<polygon class="st2" points="25.3,13.7 25.2,13.7 25.4,14.1 25.5,13.9 		"/>
		<polygon class="st2" points="23.1,8.9 23,9.1 25.2,12.7 25.2,12.5 		"/>
		<polygon class="st2" points="23.3,8.2 23.2,8.3 25.4,11.9 25.4,11.8 		"/>
		<polygon class="st2" points="23.8,8 23.7,8 25.6,11.1 25.6,11 		"/>
		<polygon class="st2" points="24.5,8 24.4,8 25.8,10.4 25.8,10.3 25.9,10.3 		"/>
		<polygon class="st2" points="25.1,8 25,8 26.4,10.3 26.4,10.1 		"/>
		<polygon class="st2" points="25.8,8 25.7,8 26.6,9.5 26.6,9.4 		"/>
		<polygon class="st2" points="26.4,8 26.3,8 26.7,8.7 26.8,8.6 		"/>
	</g>
	<g>
		<path class="st2" d="M30.6,14.1c0,0.1,0,0.1,0,0.2l0.9,1.5c0.1,0,0.1,0,0.2,0.1L30.6,14.1z"/>
		<path class="st2" d="M30.8,13.3l0,0.1l1.5,2.5c0,0,0.1,0,0.1,0L30.8,13.3z"/>
		<polygon class="st2" points="31,12.5 31,12.7 32.9,15.9 33.1,15.9 		"/>
		<polygon class="st2" points="31.2,11.8 31.2,11.9 33.6,15.9 33.7,15.9 		"/>
		<polygon class="st2" points="31.4,11 31.3,11.1 34.2,15.9 34.3,15.9 		"/>
		<polygon class="st2" points="33.6,13.6 33.5,13.6 34.9,15.9 35,15.9 		"/>
		<path class="st2" d="M33.3,13.3c0,0,0-0.1,0-0.1l-1.7-2.9l0,0.1L33.3,13.3z"/>
		<path class="st2" d="M33.5,12.5c0,0,0-0.1,0-0.1l-1.7-2.9c0,0,0,0.1,0,0.1L33.5,12.5z"/>
		<polygon class="st2" points="33.8,12.9 33.8,13 35.5,15.8 35.5,15.7 		"/>
		<polygon class="st2" points="34.3,12.6 34.2,12.6 35.7,15.1 35.7,14.9 		"/>
		<path class="st2" d="M33.6,11.7c0,0,0-0.1,0-0.1l-1.6-2.7C32,8.9,32,9,32,9L33.6,11.7z"/>
		<polygon class="st2" points="34.9,12.6 34.8,12.6 35.9,14.3 35.9,14.2 		"/>
		<path class="st2" d="M33.8,11c0,0,0-0.1,0-0.1l-1.4-2.4c0,0,0,0.1-0.1,0.1L33.8,11z"/>
		<polygon class="st2" points="35.6,12.6 35.5,12.6 36,13.6 36.1,13.4 		"/>
		<path class="st2" d="M34.1,10.3c0,0,0.1,0,0.1,0l-1.3-2.1c0,0-0.1,0-0.1,0L34.1,10.3z"/>
		<polygon class="st2" points="34.4,10.6 34.3,10.7 34.7,11.3 34.8,11.3 		"/>
		<polygon class="st2" points="36.2,12.6 36.1,12.6 36.2,12.8 36.3,12.7 		"/>
		<path class="st2" d="M33.5,8c0,0-0.1,0-0.1,0l2,3.3l0.1,0L33.5,8z"/>
		<path class="st2" d="M34.1,8L34.1,8C34,8,34,8,34,8l2,3.3l0.1,0L34.1,8z"/>
		<polygon class="st2" points="34.8,8 34.6,8 36.6,11.3 36.6,11.1 		"/>
		<polygon class="st2" points="35.4,8 35.3,8 36.8,10.5 36.8,10.4 		"/>
		<polygon class="st2" points="36,8 35.9,8 37,9.7 37,9.6 		"/>
		<polygon class="st2" points="36.7,8 36.6,8 37.2,9 37.2,8.8 		"/>
		<polygon class="st2" points="37.3,8 37.2,8 37.3,8.2 37.4,8.1 		"/>
	</g>
	<g>
		<polygon class="st2" points="40.3,15.2 40.3,15.3 40.6,15.9 40.7,15.9 		"/>
		<polygon class="st2" points="40.5,14.4 40.5,14.6 41.3,15.9 41.4,15.9 		"/>
		<polygon class="st2" points="40.7,13.7 40.6,13.8 41.9,15.9 42,15.9 		"/>
		<polygon class="st2" points="41.3,13.6 41.2,13.6 42.6,15.9 42.7,15.9 		"/>
		<polygon class="st2" points="41.7,13.1 41.6,13.2 43.2,15.9 43.3,15.9 		"/>
		<polygon class="st2" points="42,12.5 41.9,12.7 43.9,15.9 44,15.9 		"/>
		<polygon class="st2" points="42.3,12 42.2,12.1 44.5,15.9 44.6,15.9 		"/>
		<polygon class="st2" points="42.6,11.4 42.5,11.5 45.1,15.9 45.3,15.9 		"/>
		<polygon class="st2" points="42.9,10.8 42.8,10.9 45.8,15.9 45.9,15.9 		"/>
		<polygon class="st2" points="43.1,10.2 43.1,10.3 46.4,15.9 46.6,15.9 		"/>
		<polygon class="st2" points="43.4,9.6 43.4,9.7 47.1,15.8 47.1,15.7 		"/>
		<polygon class="st2" points="43.7,9.1 43.7,9.2 47.2,15.1 47.3,14.9 		"/>
		<polygon class="st2" points="44,8.5 44,8.6 46.8,13.2 46.8,13 		"/>
		<polygon class="st2" points="47.1,13.6 47,13.6 47.4,14.3 47.5,14.2 		"/>
		<polygon class="st2" points="44.4,8 44.3,8 44.3,8 46.8,12.1 46.8,11.9 		"/>
		<polygon class="st2" points="45,8 44.9,8 46.8,11.1 46.8,10.9 		"/>
		<polygon class="st2" points="45.7,8 45.6,8 46.8,10 46.8,9.8 		"/>
		<polygon class="st2" points="46.3,8 46.2,8 46.8,8.9 46.8,8.7 		"/>
	</g>
	<g>
		<polygon class="st0" points="9.5,13.7 10,13.6 11.1,9.4 10.5,9.4 10.9,8 13,8 13.5,11.1 15.5,8 17.7,8 17.4,9.4 16.8,9.4 
			15.8,13.6 16.3,13.6 16,15 13.3,15 13.6,13.6 14.2,13.6 14.7,11.7 13.5,13.5 12.4,13.5 12.1,11.5 11.6,13.6 12.2,13.6 11.8,15.1 
			9.1,15.1 		"/>
		<path class="st2" d="M9.7,14.6l0.1-0.5l0.6,0L11.7,9l-0.6,0l0.1-0.5l1.4,0l0.7,3.8l2.5-3.8l1.4,0L17,9l-0.6,0l-1.3,5.1l0.6,0
			l-0.1,0.5l-1.8,0l0.1-0.5l0.6,0l1.2-4.8l-2.5,3.8l-0.5,0l-0.6-3.8L11,14.1l0.6,0l-0.1,0.5L9.7,14.6z"/>
		<polygon class="st0" points="22.1,13.6 22.6,13.6 23.7,9.4 23.1,9.4 23.5,8 26.2,8 25.8,9.4 25.2,9.4 24.2,13.6 24.8,13.6 
			24.4,15 21.7,15 		"/>
		<path class="st2" d="M22.3,14.6l0.1-0.5l0.6,0l1.3-5.1l-0.6,0l0.1-0.5l1.8,0l-0.1,0.5l-0.6,0L23.6,14l0.6,0l-0.1,0.5L22.3,14.6z"
			/>
		<path class="st0" d="M31.7,14.9c-0.5-0.1-0.8-0.5-0.8-1.1c0-0.2,0-0.4,0.1-0.7l0.9-3.5c0.1-0.5,0.2-1,0.7-1.4
			c0.4-0.3,0.9-0.3,1.3-0.3l2.8,0L36,10.3l-1.5,0l0.3-1l-1,0c-0.1,0-0.3,0-0.4,0c0,0-0.1,0.2-0.1,0.4l-0.9,3.6c0,0.1,0,0.2,0,0.2
			c0,0,0.1,0,0.2,0l1.2,0l0.2-1l1.5,0L34.9,15l-2.5,0C32.2,15,31.9,14.9,31.7,14.9z"/>
		<path class="st2" d="M34.9,13l-0.4,1.5l-2.2,0c-0.5,0-1.1,0-1.1-0.7c0-0.2,0-0.4,0.1-0.6l0.8-3.4c0.1-0.5,0.2-0.9,0.5-1.1
			c0.3-0.2,0.7-0.2,1-0.2l2.2,0l-0.4,1.5l-0.6,0l0.3-1l-1.5,0c-0.7,0-0.7,0-0.9,0.8L32,13.2c0,0.1-0.1,0.3-0.1,0.4
			c0,0.3,0.3,0.3,0.6,0.3l1.5,0l0.2-1L34.9,13z"/>
		<path class="st0" d="M40.9,13.5h0.6l2.9-5.6l1.7,0l0,5.6l0.7,0l-0.3,1.4l-2.7,0l0.4-1.4l0.5,0l0-0.7l-1.1,0l-0.4,0.8l0.4,0
			l-0.3,1.4l-2.7,0L40.9,13.5z M44.2,11.4h0.4l0-0.8L44.2,11.4z"/>
		<path class="st2" d="M46.3,13.9l-0.1,0.5l-1.8,0l0.1-0.5l0.6,0l0-1.6l-1.8,0L42.4,14l0.6,0l-0.1,0.5l-1.8,0l0.1-0.5l0.6,0l2.9-5.6
			l1,0l0,5.6L46.3,13.9z M45.1,11.8l0-3.1l-1.6,3.1L45.1,11.8z"/>
	</g>
	<g>
		<path class="st2" d="M17.3,22l-0.2,0c-0.3,0-0.5-0.2-0.4-0.5l0.9-4c0.1-0.3,0.3-0.5,0.6-0.5l0.2,0c0.3,0,0.5,0.2,0.4,0.5L18.7,18
			l-0.4,0l0.1-0.6l-0.4,0l-0.9,4.1l0.4,0l0.4-1.9h-0.2l0.1-0.4l0.6,0l-0.5,2.2C17.9,21.8,17.6,22,17.3,22z"/>
		<path class="st2" d="M19.6,18.7L18.9,22l-0.4,0l0.8-3.7h0.4l0,0.2c0.1-0.2,0.2-0.2,0.4-0.2l0.1,0L20,18.7L19.6,18.7z"/>
		<path class="st2" d="M20.6,22l0-0.2c-0.1,0.2-0.2,0.2-0.4,0.2c-0.3,0-0.4-0.2-0.3-0.6l0.2-1.1c0.1-0.4,0.3-0.6,0.6-0.6
			c0.2,0,0.3,0.1,0.3,0.2l0.3-1.2l-0.4,0l-0.1,0.5l-0.4,0l0.1-0.4c0.1-0.3,0.3-0.5,0.6-0.5l0.2,0c0.3,0,0.5,0.2,0.4,0.5L21,22
			L20.6,22z M21,20.2l-0.4,0l-0.3,1.4l0.4,0L21,20.2z"/>
		<path class="st2" d="M22.5,22c-0.2,0-0.3-0.1-0.3-0.2l-0.3,1.5l-0.4,0l1.1-4.9l0.4,0l0,0.2c0.1-0.2,0.2-0.2,0.4-0.2
			c0.3,0,0.4,0.2,0.3,0.6l-0.6,2.5C23,21.8,22.8,22,22.5,22z M23.3,18.7l-0.4,0l-0.6,2.8l0.4,0L23.3,18.7z"/>
		<path class="st2" d="M24.4,22l0.7-3.3l-0.4,0L24,22l-0.4,0l1.1-4.9l0.4,0l-0.3,1.5c0.1-0.2,0.2-0.2,0.4-0.2c0.3,0,0.4,0.2,0.3,0.6
			L24.8,22L24.4,22z"/>
		<path class="st2" d="M25.5,22l0.8-3.7l0.4,0L25.9,22L25.5,22z M26.5,17.6l0.1-0.5l0.4,0l-0.1,0.5L26.5,17.6z"/>
		<path class="st2" d="M27.4,22l-0.2,0c-0.3,0-0.5-0.2-0.4-0.5l0.6-2.7c0.1-0.3,0.3-0.5,0.6-0.5l0.2,0c0.3,0,0.5,0.2,0.4,0.5
			l-0.1,0.4l-0.4,0l0.1-0.5l-0.4,0l-0.6,2.8l0.4,0l0.1-0.7l0.4,0L28,21.5C27.9,21.8,27.7,22,27.4,22z"/>
		<path class="st2" d="M30.2,22l-0.7,0l1.1-4.9l0.7,0c0.3,0,0.5,0.2,0.4,0.5l-0.9,4C30.7,21.8,30.5,22,30.2,22z M31.2,17.4l-0.4,0
			l-0.9,4.1l0.4,0L31.2,17.4z"/>
		<path class="st2" d="M32,22l-0.2,0c-0.3,0-0.5-0.2-0.4-0.5l0.6-2.7c0.1-0.3,0.3-0.5,0.6-0.5l0.2,0c0.3,0,0.5,0.2,0.4,0.5l-0.3,1.4
			l-0.8,0l-0.3,1.4l0.4,0l0.1-0.7l0.4,0l-0.1,0.6C32.6,21.8,32.4,22,32,22z M32.8,18.7l-0.4,0l-0.2,1l0.4,0L32.8,18.7z"/>
		<path class="st2" d="M33.9,22l-0.2,0c-0.3,0-0.5-0.2-0.4-0.5l0.1-0.6l0.4,0l-0.1,0.7l0.4,0l0.1-0.3l0.1-0.3c0-0.1,0-0.1,0-0.2
			c0-0.1,0-0.1,0-0.2c0,0-0.1-0.1-0.1-0.3l-0.2-0.4c-0.1-0.2-0.2-0.3-0.2-0.4c0-0.1,0-0.2,0.1-0.4l0.1-0.3c0.1-0.3,0.3-0.5,0.6-0.5
			l0.2,0c0.3,0,0.5,0.2,0.4,0.5L35,19.2l-0.4,0l0.1-0.5h-0.4l-0.1,0.4c0,0.1,0,0.2,0,0.2c0,0.1,0,0.2,0.2,0.4l0.2,0.3l0.1,0.2
			c0.1,0.2,0.1,0.4,0.1,0.6l-0.1,0.6C34.4,21.8,34.2,22,33.9,22z"/>
		<path class="st2" d="M35,22l0.8-3.7l0.4,0l-0.8,3.7L35,22z M35.9,17.5l0.1-0.5l0.4,0l-0.1,0.5L35.9,17.5z"/>
		<path class="st2" d="M36.5,23.2l-0.2,0c-0.3,0-0.5-0.2-0.4-0.5l0.1-0.4l0.4,0l-0.1,0.5l0.4,0l0.2-1.1c-0.1,0.2-0.2,0.2-0.4,0.2
			c-0.3,0-0.4-0.2-0.3-0.6l0.6-2.5c0.1-0.4,0.3-0.6,0.6-0.6c0.2,0,0.3,0.1,0.3,0.2l0-0.2h0.4l-1,4.5C37,23,36.8,23.2,36.5,23.2z
			 M37.6,18.7l-0.4,0l-0.6,2.8l0.4,0L37.6,18.7z"/>
		<path class="st2" d="M38.8,21.9l0.7-3.3l-0.4,0l-0.7,3.3l-0.4,0l0.8-3.7l0.4,0l0,0.2c0.1-0.2,0.2-0.2,0.4-0.2
			c0.3,0,0.4,0.2,0.3,0.6l-0.7,3.1L38.8,21.9z"/>
	</g>
	<path class="st2" d="M25,36.6l-0.2,0.1c-0.3,0.1-0.5,0.1-0.7-0.2l-0.3-0.6l0.4-0.2l0.3,0.7l0.4-0.2l-0.5-1.1
		c-0.1-0.1-0.1-0.2-0.3-0.3l-1-0.7l0,0c-0.1-0.1-0.2-0.2-0.3-0.3l-0.4-0.8c-0.1-0.3,0-0.5,0.3-0.6l0.2-0.1c0.3-0.1,0.5-0.1,0.7,0.2
		l0.2,0.4l-0.4,0.2l-0.2-0.5l-0.4,0.2l0.4,0.8c0.1,0.1,0.2,0.2,0.3,0.3l0,0l1,0.6l0,0c0.1,0.1,0.2,0.2,0.3,0.3l0.5,1.1
		C25.4,36.3,25.3,36.5,25,36.6z"/>
	<path class="st2" d="M24.8,31.9l1.9,3.9L26.3,36l-1.9-3.9l-0.4,0.2l-0.2-0.4l1.1-0.5l0.2,0.4L24.8,31.9z"/>
	<path class="st2" d="M28.2,35.1L28,35.2c-0.3,0.1-0.5,0.1-0.7-0.2l-1.8-3.8l0.4-0.2l1.8,3.9l0.4-0.2l-1.8-3.9l0.4-0.2l1.8,3.8
		C28.6,34.7,28.5,34.9,28.2,35.1z"/>
	<path class="st2" d="M30,34.3l-0.7,0.3l-1.9-4.3l0.7-0.3c0.3-0.1,0.5-0.1,0.6,0.2l1.5,3.5C30.4,33.9,30.3,34.1,30,34.3z M28.3,30.3
		L28,30.5l1.6,3.6l0.4-0.2L28.3,30.3z"/>
	<path class="st2" d="M31,33.8l-1.8-4.4l1-0.4l0.1,0.4l-0.6,0.2l0.6,1.6L31,31l0.1,0.4l-0.6,0.2l0.7,1.7l0.6-0.2l0.1,0.4L31,33.8z"
		/>
	<path class="st2" d="M33.4,33l-1.2-2.2l0.8,2.4l-0.4,0.1L31,28.8l0.4-0.1l1.3,2.3l-0.9-2.4l0.4-0.1l1.5,4.5L33.4,33z"/>
	<path class="st2" d="M34,28.3l1.1,4.2l-0.4,0.1l-1.1-4.2l-0.4,0.1l-0.1-0.4l1.2-0.3l0.1,0.4L34,28.3z"/>
	<path class="st2" d="M37.6,32l-0.2-1.1L36.8,31l0,1.1l-0.4,0l0.1-4.8l0.4,0L38,32L37.6,32z M36.9,28.7l0,1.9l0.4,0L36.9,28.7z"/>
	<path class="st2" d="M40.1,32.1l-0.4,0l-0.2-2.3L39,32l-0.4,0l0-4.7l0.4,0l0,3l0.5-2.2l0.3,0l0.2,2.2l0.5-3l0.4,0L40.1,32.1z"/>
	<path class="st2" d="M41.7,32.6l0.2-1.1l-0.5-0.2l-0.5,1l-0.4-0.1l2-4.3L43,28l-0.9,4.7L41.7,32.6z M42.4,29.3L41.6,31l0.4,0.1
		L42.4,29.3z"/>
	<path class="st2" d="M43.3,33.3l0.7-2.1l-0.1,0l-1,1.9l-0.4-0.2l2.2-4.1l0.7,0.4c0.3,0.2,0.4,0.4,0.2,0.6l-0.8,1.4
		c-0.1,0.2-0.3,0.3-0.6,0.2l-0.7,2.1L43.3,33.3z M45.3,29.5l-0.4-0.2l-0.8,1.5l0.4,0.2L45.3,29.5z"/>
	<path class="st2" d="M44.6,34.2L44,33.7l2.9-3.7l0.6,0.5c0.3,0.2,0.3,0.4,0.1,0.7l-2.3,3C45.1,34.4,44.8,34.4,44.6,34.2z
		 M47.3,30.8L47,30.6l-2.4,3.1l0.3,0.3L47.3,30.8z"/>
	<path class="st2" d="M45.8,35.4l-0.2-0.2c-0.2-0.2-0.2-0.5,0-0.7l0.5-0.5l0.3,0.3l-0.5,0.5l0.3,0.3l0.8-0.8
		c0.1-0.1,0.2-0.2,0.2-0.3l0.3-1.1l0,0c0-0.1,0.1-0.2,0.2-0.3l0.6-0.6c0.2-0.2,0.5-0.2,0.7,0l0.2,0.2c0.2,0.2,0.2,0.5,0,0.7
		l-0.3,0.3l-0.3-0.3l0.4-0.4l-0.3-0.3l-0.6,0.6c-0.1,0.1-0.2,0.2-0.2,0.3l0,0l-0.3,1.1l0,0c0,0.1-0.1,0.2-0.2,0.3l-0.9,0.8
		C46.3,35.6,46.1,35.6,45.8,35.4z"/>
	<path class="st2" d="M6.3,33.7l-0.2-0.1c-0.3-0.1-0.4-0.3-0.3-0.6L7,29.4c0.1-0.3,0.3-0.4,0.6-0.3l0.2,0.1c0.3,0.1,0.4,0.3,0.3,0.6
		L8,30.3l-0.4-0.1l0.2-0.5l-0.4-0.1l-1.3,3.7l0.4,0.1l0.6-1.7L7,31.6l0.1-0.4l0.6,0.2l-0.7,2C6.9,33.7,6.6,33.8,6.3,33.7z"/>
	<path class="st2" d="M8.9,34.3l0-2.2l-0.1,0l-0.4,2.2L8,34.1l0.8-4.7l0.7,0.1c0.3,0.1,0.5,0.2,0.4,0.5l-0.3,1.6
		c0,0.2-0.2,0.4-0.5,0.4l0.1,2.2L8.9,34.3z M9.5,30l-0.4-0.1l-0.3,1.7l0.4,0.1L9.5,30z"/>
	<path class="st2" d="M11.5,34.4l-0.1-1.1l-0.5,0l-0.1,1.1l-0.4,0l0.6-4.7l0.4,0l0.6,4.7L11.5,34.4z M11.1,31.1l-0.2,1.8l0.4,0
		L11.1,31.1z"/>
	<path class="st2" d="M13.6,34.3l-0.8,0.1l-0.6-4.7l0.8-0.1c0.3,0,0.5,0.1,0.6,0.4l0.5,3.8C14.1,34,14,34.2,13.6,34.3z M13.2,30
		L12.8,30l0.5,3.9l0.4-0.1L13.2,30z"/>
	<path class="st2" d="M15.9,33.9l-0.2,0.1c-0.3,0.1-0.5,0-0.6-0.3l-1-4.1l0.4-0.1l1,4.2l0.4-0.1l-1-4.2l0.4-0.1l1,4.1
		C16.3,33.6,16.2,33.8,15.9,33.9z"/>
	<path class="st2" d="M18.4,33.1l-0.5-1l-0.5,0.2l0.2,1.1l-0.4,0.1l-1-4.7l0.4-0.1l2.1,4.3L18.4,33.1z M16.9,30.1l0.4,1.8l0.4-0.1
		L16.9,30.1z"/>
	<path class="st2" d="M18.3,28.5l1.7,4l-0.4,0.2l-1.7-4l-0.4,0.2l-0.2-0.4l1.1-0.5l0.2,0.4L18.3,28.5z"/>
	<path class="st2" d="M21.1,32L19,27.7l0.4-0.2l2.1,4.2L21.1,32z"/>
	<path class="st2" d="M23,31l-1.6-2l1.3,2.2l-0.4,0.2l-2.3-4.1l0.4-0.2l1.6,2l-1.3-2.2l0.4-0.2l2.3,4.1L23,31z"/>
	<path class="st2" d="M24.8,29.9L24.5,30c-0.3,0.2-0.5,0.1-0.7-0.1l-2.1-3.2c-0.2-0.2-0.1-0.5,0.2-0.7l0.2-0.1
		c0.3-0.2,0.5-0.1,0.7,0.1l0.3,0.4l-0.4,0.2l-0.3-0.5l-0.4,0.2l2.1,3.3l0.4-0.2l-1-1.5l-0.2,0.1l-0.2-0.3l0.5-0.3l1.2,1.8
		C25.1,29.5,25,29.7,24.8,29.9z"/>
	<path class="st2" d="M38.9,11.7l0.1-0.5l0.4,0l-0.1,0.5L38.9,11.7z"/>
	<path class="st2" d="M28.4,11.9l0.1-0.5l0.4,0l-0.1,0.5L28.4,11.9z"/>
	<path class="st2" d="M19.6,11.9l0.1-0.5l0.4,0l-0.1,0.5H19.6z"/>
	<rect x="5.4" y="30.6" transform="matrix(0.2507 -0.9681 0.9681 0.2507 -25.5075 28.5423)" class="st2" width="0.5" height="0.4"/>
	<path class="st2" d="M48.1,34.8l0.1-0.5h0.4l-0.1,0.5H48.1z"/>
</g>
<rect x="54.2" y="8" class="st3" width="225.7" height="55.9"/>
<g>
	<path d="M4.5,61v-0.7l4.7-7.6c0.7-1.1,1.3-2.2,1.7-3.1c0.4-0.9,0.6-1.8,0.6-2.8c0-0.6-0.1-1.1-0.2-1.6c-0.1-0.5-0.3-0.9-0.6-1.3
		c-0.3-0.4-0.6-0.7-1-0.9c-0.4-0.2-0.8-0.3-1.4-0.3c-1.8,0-2.9,1-3.4,3.1l-0.5-0.1c0.3-1.1,0.7-2,1.3-2.6c0.6-0.6,1.5-0.9,2.6-0.9
		c0.6,0,1.2,0.1,1.7,0.4c0.5,0.3,0.8,0.6,1.1,1c0.3,0.4,0.5,0.9,0.6,1.4c0.1,0.5,0.2,1.1,0.2,1.7c0,0.6-0.1,1.1-0.2,1.6
		c-0.1,0.5-0.3,1-0.5,1.5c-0.2,0.5-0.5,1.1-0.8,1.6c-0.3,0.6-0.7,1.2-1.1,1.9l-4.4,7.1h6.9V61H4.5z"/>
	<path d="M20.3,61.3c-0.9,0-1.6-0.3-2.2-0.9c-0.6-0.6-1-1.3-1.3-2.2c-0.3-0.9-0.5-1.9-0.6-3.1C16.1,54,16,52.9,16,51.8
		c0-1.1,0.1-2.2,0.2-3.3c0.1-1.1,0.3-2.2,0.6-3.1c0.3-0.9,0.7-1.7,1.3-2.2c0.6-0.6,1.3-0.9,2.2-0.9c0.9,0,1.6,0.3,2.2,0.9
		c0.6,0.6,1,1.3,1.3,2.2c0.3,0.9,0.5,1.9,0.6,3.1c0.1,1.1,0.2,2.2,0.2,3.3c0,1.1-0.1,2.2-0.2,3.3c-0.1,1.1-0.3,2.2-0.6,3.1
		c-0.3,0.9-0.8,1.7-1.3,2.2C22,61,21.2,61.3,20.3,61.3z M20.3,42.8c-0.6,0-1.1,0.2-1.5,0.5c-0.4,0.3-0.8,0.7-1,1.2
		c-0.3,0.5-0.5,1.1-0.7,1.7c-0.2,0.6-0.3,1.3-0.4,2c-0.1,0.7-0.1,1.3-0.2,1.9c0,0.6,0,1.2,0,1.6c0,0.5,0,1,0,1.6
		c0,0.6,0.1,1.3,0.2,1.9c0.1,0.7,0.2,1.3,0.4,2c0.2,0.6,0.4,1.2,0.7,1.7c0.3,0.5,0.6,0.9,1,1.2c0.4,0.3,0.9,0.5,1.5,0.5
		c0.6,0,1.1-0.2,1.5-0.5c0.4-0.3,0.7-0.7,1-1.2c0.3-0.5,0.5-1.1,0.7-1.7c0.2-0.7,0.3-1.3,0.4-2C24,54.7,24,54,24,53.4
		c0-0.6,0-1.2,0-1.6c0-0.5,0-1,0-1.6c0-0.6-0.1-1.3-0.2-1.9c-0.1-0.7-0.2-1.3-0.4-2c-0.2-0.7-0.4-1.2-0.7-1.7
		c-0.3-0.5-0.6-0.9-1-1.2C21.4,43,20.9,42.8,20.3,42.8z"/>
	<path d="M32.4,61V43.3l-3.6,3l-0.4-0.4l4-3.2H33V61H32.4z"/>
	<path d="M47.3,47.8c0,0.6-0.1,1.3-0.2,2.1c-0.2,0.8-0.5,1.7-0.9,2.6L42.6,61h-0.7l4-9.2l-0.1,0c-0.2,0.3-0.6,0.6-1.1,0.9
		c-0.5,0.3-1.1,0.4-1.7,0.4c-0.6,0-1.2-0.1-1.7-0.4c-0.5-0.3-0.9-0.7-1.2-1.2c-0.3-0.5-0.6-1.1-0.8-1.7c-0.2-0.7-0.3-1.4-0.3-2.2
		c0-0.8,0.1-1.5,0.3-2.2c0.2-0.7,0.5-1.2,0.8-1.7c0.4-0.5,0.8-0.8,1.3-1.1c0.5-0.3,1.1-0.4,1.8-0.4c0.7,0,1.2,0.1,1.8,0.4
		c0.5,0.3,0.9,0.6,1.3,1.1c0.3,0.5,0.6,1.1,0.8,1.7C47.2,46.2,47.3,47,47.3,47.8z M46.8,47.8c0-0.7-0.1-1.4-0.2-2
		c-0.2-0.6-0.4-1.1-0.7-1.6c-0.3-0.4-0.7-0.8-1.1-1c-0.4-0.3-0.9-0.4-1.5-0.4c-0.6,0-1.1,0.1-1.5,0.4c-0.4,0.2-0.8,0.6-1.1,1
		c-0.3,0.4-0.5,1-0.7,1.6c-0.2,0.6-0.2,1.3-0.2,2c0,0.7,0.1,1.4,0.2,2c0.2,0.6,0.4,1.1,0.7,1.6c0.3,0.4,0.7,0.8,1.1,1
		c0.5,0.2,1,0.4,1.5,0.4c0.5,0,1-0.1,1.4-0.4c0.4-0.3,0.8-0.6,1.1-1c0.3-0.4,0.6-1,0.7-1.5C46.7,49.1,46.8,48.5,46.8,47.8z"/>
</g>
</svg>
