<?xml version="1.0" encoding="UTF-8" standalone="no"?>
<!-- Created with Inkscape (http://www.inkscape.org/) -->

<svg
   xmlns:dc="http://purl.org/dc/elements/1.1/"
   xmlns:cc="http://creativecommons.org/ns#"
   xmlns:rdf="http://www.w3.org/1999/02/22-rdf-syntax-ns#"
   xmlns:svg="http://www.w3.org/2000/svg"
   xmlns="http://www.w3.org/2000/svg"
   xmlns:sodipodi="http://sodipodi.sourceforge.net/DTD/sodipodi-0.dtd"
   xmlns:inkscape="http://www.inkscape.org/namespaces/inkscape"
   width="210mm"
   height="297mm"
   viewBox="0 0 210 297"
   version="1.1"
   id="svg8"
   inkscape:version="0.92.4 5da689c313, 2019-01-14"
   sodipodi:docname="20190721-BlobjectPoster.svg">
  <defs
     id="defs2">
    <inkscape:path-effect
       effect="spiro"
       id="path-effect4530"
       is_visible="true" />
    <inkscape:path-effect
       effect="spiro"
       id="path-effect823"
       is_visible="true" />
    <inkscape:path-effect
       effect="spiro"
       id="path-effect819"
       is_visible="true" />
  </defs>
  <sodipodi:namedview
     id="base"
     pagecolor="#ffffff"
     bordercolor="#666666"
     borderopacity="1.0"
     inkscape:pageopacity="0.0"
     inkscape:pageshadow="2"
     inkscape:zoom="0.5"
     inkscape:cx="289.99997"
     inkscape:cy="565.72657"
     inkscape:document-units="mm"
     inkscape:current-layer="layer3"
     showgrid="false"
     showguides="false"
     inkscape:window-width="1366"
     inkscape:window-height="768"
     inkscape:window-x="0"
     inkscape:window-y="0"
     inkscape:window-maximized="0" />
  <metadata
     id="metadata5">
    <rdf:RDF>
      <cc:Work
         rdf:about="">
        <dc:format>image/svg+xml</dc:format>
        <dc:type
           rdf:resource="http://purl.org/dc/dcmitype/StillImage" />
        <dc:title></dc:title>
      </cc:Work>
    </rdf:RDF>
  </metadata>
  <g
     inkscape:label="Gray"
     inkscape:groupmode="layer"
     id="layer1">
    <path
       style="fill:#606767;stroke:none;stroke-width:0.26458332px;stroke-linecap:butt;stroke-linejoin:miter;stroke-opacity:1"
       d="m 236.5375,78.454164 c 10.60504,7.400189 17.21964,20.201218 17.12038,33.132576 -0.0993,12.93135 -6.90957,25.62933 -17.62695,32.86586 -10.71739,7.23653 -25.04043,8.80807 -37.07196,4.06759 -12.03152,-4.74049 -21.43314,-15.65968 -24.33397,-28.26186 -1.87223,-8.13361 -1.16121,-16.60109 -1.06851,-24.946885 0.0927,-8.345795 -0.54783,-17.055683 -4.75233,-24.265614 -2.77624,-4.760743 -6.92976,-8.548909 -11.15625,-12.085721 -4.22648,-3.536813 -8.629,-6.939011 -12.12708,-11.197612 -7.08078,-8.620232 -9.88277,-20.374157 -8.40002,-31.430707 1.48275,-11.0565503 7.03111,-21.3696216 14.75002,-29.423458 11.74876,-12.258545 28.67115,-19.390643 45.65004,-19.239629 16.97888,0.151013 33.77174,7.58298 45.3006,20.048561 11.52886,12.46557987 17.62905,29.786718 16.45594,46.725701 -1.1731,16.938983 -9.60275,33.253859 -22.73991,44.011198 z"
       id="path4528"
       inkscape:connector-curvature="0"
       inkscape:path-effect="#path-effect4530"
       inkscape:original-d="m 236.5375,78.454164 c -4.56885,33.289656 -40.71333,40.451096 -61.9125,41.804166 -10.23082,1.0586 -3.88029,-32.808597 -5.82084,-49.212499 -1.94054,-16.403902 -15.52195,-15.522485 -23.28333,-23.283333 -7.76137,-7.760845 -13.77071,-37.8914367 6.35,-60.854165 20.12071,-22.962728 71.57551,49.632345 84.66667,91.545831 z"
       transform="matrix(0.8131496,0,0,0.83098035,-86.32411,150.61118)"
       sodipodi:nodetypes="ccsssc" />
  </g>
  <g
     inkscape:groupmode="layer"
     id="layer4"
     inkscape:label="Green">
    <circle
       style="fill:#8ca573;stroke:none;stroke-width:1.61850011;stroke-miterlimit:4;stroke-dasharray:none"
       id="path815"
       cx="107.78135"
       cy="185.47038"
       r="74.19075" />
  </g>
  <g
     inkscape:groupmode="layer"
     id="layer2"
     inkscape:label="Brown"
     style="display:inline">
    <path
       style="fill:#2f2926;stroke:none;stroke-width:0.26458332px;stroke-linecap:butt;stroke-linejoin:miter;stroke-opacity:1"
       d="m 58.371665,32.082443 c -2.911385,0.09318 -5.833609,0.190669 -8.704369,0.684206 -2.870761,0.493536 -5.707354,1.399443 -8.142913,2.997221 -2.435559,1.597778 -4.451528,3.931246 -5.333952,6.707245 -0.441212,1.387999 -0.594141,2.872262 -0.397443,4.315356 0.196698,1.443094 0.747123,2.842518 1.624746,4.004839 1.037349,1.373862 2.50886,2.38888 4.11292,3.013844 1.60406,0.624965 3.338068,0.873159 5.059569,0.878184 3.443002,0.01005 6.807018,-0.927469 10.19288,-1.552209 3.385862,-0.624739 6.977835,-0.921326 10.190434,0.317048 1.606299,0.619187 3.081913,1.627636 4.126171,2.996254 1.044259,1.368618 1.633885,3.108302 1.490694,4.823845 -0.09545,1.143552 -0.509827,2.251408 -1.138058,3.211693 -0.62823,0.960285 -1.466136,1.775464 -2.409429,2.42893 -1.886588,1.306932 -4.153772,1.955797 -6.417317,2.334807 -2.263544,0.37901 -4.563295,0.509277 -6.826155,0.892355 -2.262859,0.383078 -4.528523,1.04045 -6.408035,2.357536 -1.89906,1.330784 -3.304329,3.269874 -4.340814,5.344269 -1.036485,2.074396 -1.732345,4.298468 -2.456162,6.501536 -0.723816,2.203067 -1.486805,4.411243 -2.642572,6.421621 -1.155767,2.010378 -2.738018,3.831103 -4.779192,4.931568 -2.36557,1.275358 -5.232828,1.49175 -7.832283,0.809629 C 24.740929,95.8201 22.407852,94.282451 20.571538,92.320206 16.898909,88.395715 15.265169,83.004158 14.218739,77.732079 13.768468,75.463545 13.399725,73.158768 12.543261,71.010406 11.686797,68.862043 10.274672,66.842875 8.2319012,65.758403 6.631242,64.90864 4.7186984,64.693113 2.9504539,65.089998 c -1.7682444,0.396886 -3.38515153,1.390323 -4.5980733,2.73681 -1.2129219,1.346487 -2.0262211,3.035204 -2.401538,4.808152 -0.3753169,1.772948 -0.3195762,3.626775 0.082875,5.393761 0.8049028,3.533972 2.9620285,6.64818 5.5940736,9.139999 2.632045,2.49182 5.7359739,4.422787 8.8491736,6.278808 7.099358,4.232481 14.423267,8.206132 20.719166,13.561172 4.943733,4.20494 9.15906,9.18291 13.625359,13.89186 4.466298,4.70895 9.283861,9.22487 15.046883,12.20977 3.257266,1.68707 6.892488,2.87387 10.549307,2.58466 1.82841,-0.1446 3.638132,-0.66487 5.211342,-1.60774 1.573209,-0.94287 2.90187,-2.31733 3.696571,-3.97034 0.651967,-1.35612 0.936552,-2.87658 0.898774,-4.3808 -0.03778,-1.50423 -0.392228,-2.99241 -0.96269,-4.38478 -1.140923,-2.78474 -3.113069,-5.14967 -5.246108,-7.27254 -2.13304,-2.12288 -4.456464,-4.05336 -6.504884,-6.258 -2.04842,-2.20464 -3.841733,-4.73894 -4.648893,-7.63807 -0.773003,-2.776447 -0.586538,-5.805669 0.493199,-8.477814 1.079738,-2.672145 3.04199,-4.974155 5.49364,-6.48928 3.917211,-2.420846 8.980889,-2.730968 13.294472,-1.119125 4.313583,1.611843 7.851775,5.033044 9.927508,9.143564 2.075733,4.11052 2.736965,8.863525 2.220625,13.439385 -0.516339,4.57585 -2.173589,8.97986 -4.488677,12.96049 -2.714201,4.66688 -6.301269,8.75265 -9.612282,13.0169 -3.311013,4.26425 -6.410798,8.83134 -7.918326,14.01535 -0.753763,2.59201 -1.094214,5.31956 -0.832475,8.00622 0.261738,2.68667 1.139022,5.33146 2.674097,7.55186 1.535075,2.22041 3.742402,3.99907 6.295735,4.87493 2.553334,0.87587 5.445909,0.81292 7.896543,-0.31891 2.025273,-0.93538 3.684668,-2.54866 4.942902,-4.3908 1.258234,-1.84215 2.140855,-3.9136 2.904576,-6.00964 1.527443,-4.19208 2.691264,-8.68687 5.622911,-12.05021 1.93987,-2.22552 4.59768,-3.82123 7.48047,-4.45807 2.88278,-0.63685 5.9752,-0.30628 8.64569,0.9525 2.67049,1.25877 4.89943,3.44243 6.18615,6.09957 1.28672,2.65714 1.61662,5.77069 0.88668,8.63132 -0.59245,2.32184 -1.84121,4.42252 -3.22388,6.37959 -1.38267,1.95707 -2.91621,3.81019 -4.18046,5.84577 -1.26425,2.03558 -2.26427,4.29785 -2.43648,6.68789 -0.0861,1.19501 0.0392,2.41091 0.42659,3.54469 0.38733,1.13378 1.04135,2.18327 1.93068,2.98612 1.33812,1.20799 3.14542,1.80398 4.94282,1.94244 1.7974,0.13846 3.6004,-0.1484 5.36379,-0.52296 1.76338,-0.37456 3.51188,-0.83846 5.30072,-1.06179 1.78884,-0.22332 3.64242,-0.1972 5.3466,0.39067 1.61292,0.55639 3.01756,1.58776 4.3155,2.6952 1.29795,1.10745 2.52154,2.30908 3.91641,3.29164 3.01958,2.12703 6.85947,3.13859 10.5019,2.52637 1.82121,-0.30612 3.57835,-1.00876 5.08961,-2.07018 1.51126,-1.06142 2.77285,-2.48248 3.61846,-4.12427 0.84561,-1.64179 1.2706,-3.50261 1.18867,-5.34755 -0.0819,-1.84495 -0.67439,-3.66894 -1.71941,-5.19159 -1.04502,-1.52265 -2.54254,-2.73616 -4.26091,-3.41274 -1.71836,-0.67658 -3.6516,-0.8086 -5.43807,-0.34056 -1.57388,0.41235 -2.99575,1.26524 -4.32857,2.19837 -1.33282,0.93312 -2.60471,1.9591 -4.00898,2.78077 -1.40427,0.82168 -2.97325,1.43988 -4.60013,1.4595 -0.81344,0.01 -1.6328,-0.13294 -2.37884,-0.45728 -0.74604,-0.32435 -1.41667,-0.83368 -1.89564,-1.49123 -0.68122,-0.93521 -0.94492,-2.11848 -0.98333,-3.27486 -0.0384,-1.15637 0.13109,-2.30799 0.23498,-3.46033 0.72913,-8.0872 -1.82119,-16.22894 -5.98684,-23.199 -2.5763,-4.31073 -5.88332,-8.3472 -10.28687,-10.76141 -2.20178,-1.2071 -4.65647,-1.98398 -7.16405,-2.1143 -2.50758,-0.13033 -5.06632,0.40171 -7.24478,1.6504 -2.86046,1.63961 -4.90067,4.37406 -7.406421,6.5169 -1.252877,1.07142 -2.650268,2.00917 -4.216627,2.52314 -1.566359,0.51397 -3.319803,0.57609 -4.840758,-0.0598 -0.965529,-0.40366 -1.811806,-1.07814 -2.446092,-1.91053 -0.634287,-0.83239 -1.058029,-1.81948 -1.25595,-2.8471 -0.395843,-2.05526 0.123142,-4.22781 1.204791,-6.01968 1.081649,-1.79187 2.69386,-3.22299 4.483112,-4.30896 1.789253,-1.08598 3.757627,-1.84434 5.748003,-2.49177 3.980752,-1.29487 8.188942,-2.21205 11.629712,-4.5962 1.72039,-1.19208 3.21881,-2.75639 4.11476,-4.64796 0.89596,-1.89156 1.14982,-4.12619 0.46901,-6.1054 -0.639,-1.85766 -2.02369,-3.35482 -3.45277,-4.70276 -1.42907,-1.34795 -2.96001,-2.63048 -4.03077,-4.2775 -1.65175,-2.540676 -2.04186,-5.682105 -2.22189,-8.70715 -0.18003,-3.025046 -0.2056,-6.125016 -1.26175,-8.965415 -1.03199,-2.775428 -3.02488,-5.152405 -5.474279,-6.816275 -2.449394,-1.663871 -5.338217,-2.632 -8.279108,-2.977202 -5.88178,-0.690402 -11.799527,1.060236 -17.187291,3.518691 -5.178822,2.363114 -10.126705,5.46247 -13.830923,9.784884 -3.704218,4.322415 -6.069899,9.983993 -5.626297,15.659177 0.276148,3.53287 1.622802,6.94236 3.630238,9.86257 2.007436,2.92022 4.659361,5.3649 7.595081,7.34959 1.523807,1.03017 3.147718,1.95861 4.402885,3.30315 0.627584,0.67227 1.156257,1.44758 1.474214,2.31054 0.317957,0.86297 0.417654,1.8174 0.203283,2.71175 -0.245364,1.02365 -0.896998,1.92979 -1.742073,2.55741 -0.845074,0.62762 -1.873834,0.9856 -2.919766,1.10426 -2.091863,0.23734 -4.178576,-0.45322 -6.09576,-1.32306 -4.83871,-2.19536 -9.122817,-5.62399 -12.260081,-9.91238 -3.137264,-4.28839 -5.112479,-9.43124 -5.572076,-14.72477 -0.459597,-5.293539 0.608062,-10.721864 3.109305,-15.409776 2.501244,-4.687912 6.436172,-8.611471 11.168167,-11.028279 7.130927,-3.642033 15.463288,-3.732921 23.358346,-5.068051 3.94753,-0.667565 7.883048,-1.679657 11.411162,-3.572022 3.528113,-1.892366 6.643542,-4.730976 8.332873,-8.360686 1.06945,-2.297838 1.54187,-4.860686 1.43936,-7.393132 -0.10252,-2.532446 -0.773677,-5.03235 -1.883632,-7.310901 C 96.564797,42.218543 92.630075,38.626437 88.137292,36.279082 83.64451,33.931727 78.610819,32.763397 73.566249,32.265913 68.52168,31.768429 63.438111,31.920288 58.371665,32.082443 Z"
       id="path817"
       inkscape:connector-curvature="0"
       inkscape:path-effect="#path-effect819"
       inkscape:original-d="M 58.371665,32.082443 C 45.898821,20.607937 44.402642,44.554759 37.417734,50.79131 c -6.98491,6.236555 23.448711,6.984379 35.172668,10.476966 11.72396,3.492587 -15.465731,7.483282 -23.198994,11.225321 -7.733263,3.742036 -9.478894,15.465731 -14.21874,23.198994 C 30.432824,103.42585 21.203647,83.718653 14.218739,77.732079 7.2338305,71.745506 10.227778,69.749365 8.2319012,65.758403 6.2360243,61.767444 9.7288754,84.217554 10.476965,93.447528 c 0.74809,9.229972 10.990818,9.569682 20.719166,13.561172 9.728345,3.99149 21.937316,16.87165 28.672242,26.10163 6.734927,9.22997 12.971746,-1.99588 19.45722,-2.99342 6.485478,-0.99755 -10.975601,-19.95639 -16.463801,-29.93419 -5.488199,-9.977799 3.991489,-9.978328 5.986839,-14.967094 1.995347,-4.988767 13.96955,22.949274 20.953928,34.424314 6.984381,11.47504 -0.99754,31.43063 -1.496708,47.14635 -0.499169,15.71571 8.980521,-14.96736 13.470389,-22.45065 4.48986,-7.48328 15.46626,7.48329 23.19899,11.22532 7.73273,3.74204 -4.98877,16.96244 -7.48355,25.44406 -2.49478,8.48162 13.96955,0.49864 20.95393,0.74836 6.98438,0.24971 5.4882,3.99096 8.23191,5.98684 2.7437,1.99587 5.9871,-11.97394 8.98025,-17.96052 2.99315,-5.98657 -11.47451,2.99316 -17.21216,4.49013 -5.73765,1.49697 -0.49864,-4.49039 -0.74835,-6.73519 -0.24972,-2.2448 -3.99096,-15.46626 -5.98684,-23.199 -1.99588,-7.73273 -16.46354,-7.48381 -24.6957,-11.22531 -8.232169,-3.74151 -10.975607,5.98657 -16.463806,8.98025 -5.488199,2.99368 15.965166,-21.952 23.947346,-32.9276 7.98219,-10.975609 -4.98876,-5.98711 -7.48354,-8.98026 -2.49478,-2.993156 4.99797,-7.195864 -3.48364,-17.672565 -8.481622,-10.476701 -27.946994,-8.769566 -30.940678,-6.274786 -2.993683,2.49478 -12.971216,16.962442 -19.45722,25.444061 -6.486006,8.48161 7.483811,11.4745 11.225319,17.21216 3.74151,5.73765 9.852157,5.30987 6.080382,8.32544 -3.771774,3.01558 -8.450411,4.44539 -10.757599,2.33861 -2.49478,-2.2448 -4.302773,-36.357829 -3.554685,-51.075205 C 56.87469,63.763056 86.008312,65.470637 99.22898,61.479676 112.44964,57.488716 70.844507,43.556951 58.371665,32.082443 Z"
       transform="translate(20.001971,-3.6885896)"
       sodipodi:nodetypes="sssssssssscssssscscssscsssssssscccsss" />
  </g>
  <g
     inkscape:groupmode="layer"
     id="layer3"
     inkscape:label="Text"
     style="display:inline">
    <text
       xml:space="preserve"
       style="font-style:normal;font-weight:normal;font-size:10.58333302px;line-height:1.25;font-family:sans-serif;letter-spacing:0px;word-spacing:0px;fill:#5c7fc1;fill-opacity:1;stroke:none;stroke-width:0.26458332"
       x="-195.79167"
       y="72.104172"
       id="text4554"><tspan
         sodipodi:role="line"
         id="tspan4552"
         x="-195.79167"
         y="72.104172"
         style="font-style:normal;font-variant:normal;font-weight:900;font-stretch:normal;font-family:'Work Sans';-inkscape-font-specification:'Work Sans Heavy';fill:#5c7fc1;stroke-width:0.26458332">The present is a little unsatisfying </tspan><tspan
         sodipodi:role="line"
         x="-195.79167"
         y="85.683365"
         style="font-style:normal;font-variant:normal;font-weight:900;font-stretch:normal;font-family:'Work Sans';-inkscape-font-specification:'Work Sans Heavy';fill:#5c7fc1;stroke-width:0.26458332"
         id="tspan4560">because life is a little unsatisfying</tspan><tspan
         sodipodi:role="line"
         x="-195.79167"
         y="98.912537"
         style="font-style:italic;font-variant:normal;font-weight:bold;font-stretch:normal;font-family:Avara;-inkscape-font-specification:'Avara Bold Italic';fill:#5c7fc1;stroke-width:0.26458332"
         id="tspan4558">Gil Pender</tspan><tspan
         sodipodi:role="line"
         x="-195.79167"
         y="112.51877"
         style="font-style:normal;font-variant:normal;font-weight:normal;font-stretch:normal;font-family:Yatra;-inkscape-font-specification:Yatra;fill:#5c7fc1;stroke-width:0.26458332"
         id="tspan4556">Midnight In Paris</tspan></text>
  </g>
</svg>
