<svg xmlns="http://www.w3.org/2000/svg" xmlns:xlink="http://www.w3.org/1999/xlink" version="1.1" x="0px" y="0px" viewBox="0 0 512 512" style="enable-background:new 0 0 512 512;" xml:space="preserve"><g><g><g><path d="M256.042,323.14c-37.019,0-67.136-30.08-67.136-67.054c0-16.264,5.892-31.956,16.59-44.186     c1.426-1.63,3.904-1.795,5.534-0.37c1.63,1.426,1.795,3.904,0.37,5.534c-9.447,10.799-14.65,24.657-14.65,39.021     c0,32.649,26.598,59.211,59.292,59.211c32.649,0,59.21-26.562,59.21-59.211c0-32.694-26.561-59.292-59.21-59.292     c-1.526,0-3.068,0.059-4.583,0.174c-2.16,0.166-4.043-1.452-4.209-3.611c-0.165-2.16,1.452-4.044,3.611-4.209     c1.713-0.13,3.457-0.197,5.181-0.197c36.974,0,67.054,30.117,67.054,67.136C323.096,293.06,293.016,323.14,256.042,323.14z"></path></g><g><path d="M256.042,294.235c-21.034,0-38.147-17.114-38.147-38.149c0-21.033,17.113-38.144,38.147-38.144     c20.984,0,38.057,17.111,38.057,38.144C294.099,277.121,277.026,294.235,256.042,294.235z M256.042,225.785     c-16.709,0-30.304,13.593-30.304,30.301c0,16.711,13.594,30.307,30.304,30.307c16.66,0,30.213-13.596,30.213-30.307     C286.255,239.378,272.702,225.785,256.042,225.785z"></path></g><g><path d="M256.042,359.681c-34.55,0-68.67-6.914-101.414-20.55c-2-0.832-2.945-3.128-2.112-5.129     c0.833-1.999,3.13-2.946,5.127-2.111c31.783,13.235,64.889,19.946,98.398,19.946c75.086,0,146.229-33.094,205.956-95.75     c-42.63-44.683-92.684-75.18-144.964-88.283c-2.101-0.526-3.377-2.656-2.851-4.757c0.527-2.101,2.655-3.376,4.758-2.85     c54.785,13.73,107.108,45.962,151.314,93.21c1.41,1.508,1.41,3.851,0,5.358c-29.982,32.049-63.277,56.994-98.959,74.143     C334.329,350.672,295.552,359.681,256.042,359.681z M112.722,316.83c-0.715,0-1.438-0.195-2.087-0.604     c-24.4-15.378-47.579-34.71-68.889-57.459c-1.413-1.508-1.413-3.854,0-5.362c30.045-32.071,63.352-57.028,98.996-74.178     c36.982-17.795,75.775-26.818,115.3-26.818c4.571,0,9.205,0.124,13.77,0.368c2.163,0.115,3.823,1.962,3.707,4.125     c-0.114,2.163-1.982,3.82-4.124,3.707c-4.428-0.236-8.92-0.356-13.353-0.356c-75.007,0-146.18,33.124-206.037,95.834     c20.149,21.1,41.939,39.09,64.812,53.504c1.832,1.155,2.381,3.576,1.227,5.409C115.298,316.182,114.024,316.83,112.722,316.83z"></path></g><g><path d="M256.042,344.155c-27.773,0-54.252-13.321-70.83-35.632c-1.292-1.738-0.929-4.195,0.809-5.486s4.195-0.93,5.487,0.809     c15.105,20.329,39.231,32.466,64.535,32.466c44.235,0,80.223-35.989,80.223-80.226c0-44.283-35.987-80.311-80.223-80.311     c-44.285,0-80.313,36.027-80.313,80.311c0,1.485,0.041,2.983,0.122,4.453c0.118,2.163-1.539,4.012-3.701,4.13     c-2.167,0.118-4.012-1.537-4.131-3.701c-0.088-1.612-0.133-3.254-0.133-4.882c0-48.608,39.547-88.154,88.157-88.154     c48.561,0,88.066,39.545,88.066,88.154C344.108,304.647,304.603,344.155,256.042,344.155z"></path></g><g><path d="M256.042,117.707c-2.166,0-3.921-1.756-3.921-3.921V63.175c0-2.166,1.756-3.921,3.921-3.921     c2.166,0,3.922,1.756,3.922,3.921v50.611C259.964,115.951,258.208,117.707,256.042,117.707z"></path></g><g><path d="M402.635,177.663c-1.354,0-2.67-0.702-3.396-1.957c-1.086-1.874-0.446-4.273,1.427-5.359l43.833-25.389     c1.873-1.084,4.273-0.446,5.358,1.428c1.086,1.874,0.446,4.273-1.428,5.359l-43.832,25.389     C403.978,177.493,403.302,177.663,402.635,177.663z"></path></g><g><path d="M109.451,177.663c-0.666,0-1.341-0.169-1.959-0.527l-43.917-25.389c-1.875-1.083-2.517-3.482-1.433-5.357     c1.083-1.875,3.483-2.518,5.358-1.433l43.917,25.389c1.875,1.084,2.517,3.483,1.432,5.358     C112.123,176.96,110.805,177.663,109.451,177.663z"></path></g><g><path d="M336.752,122.424c-0.664,0-1.338-0.169-1.956-0.525c-1.875-1.083-2.519-3.481-1.437-5.357l15.439-26.762     c1.083-1.876,3.479-2.52,5.357-1.437c1.875,1.083,2.519,3.481,1.437,5.357l-15.439,26.762     C339.426,121.72,338.107,122.424,336.752,122.424z"></path></g><g><path d="M175.243,122.424c-1.356,0-2.675-0.704-3.401-1.962L156.402,93.7c-1.083-1.876-0.439-4.274,1.437-5.357     c1.876-1.082,4.274-0.439,5.356,1.437l15.44,26.762c1.083,1.876,0.439,4.274-1.437,5.357     C176.582,122.255,175.908,122.424,175.243,122.424z"></path></g><g><path d="M256.042,452.831c-2.166,0-3.921-1.756-3.921-3.922v-50.606c0-2.166,1.756-3.922,3.921-3.922     c2.166,0,3.922,1.756,3.922,3.922v50.606C259.964,451.075,258.208,452.831,256.042,452.831z"></path></g><g><path d="M446.459,367.57c-0.665,0-1.339-0.17-1.957-0.526l-43.832-25.301c-1.875-1.082-2.518-3.48-1.435-5.356     c1.081-1.876,3.48-2.521,5.356-1.436l43.832,25.301c1.876,1.082,2.519,3.48,1.436,5.356     C449.134,366.866,447.815,367.57,446.459,367.57z"></path></g><g><path d="M65.542,367.57c-1.356,0-2.676-0.705-3.401-1.965c-1.082-1.876-0.437-4.274,1.44-5.355l43.917-25.301     c1.875-1.081,4.274-0.438,5.355,1.44c1.082,1.876,0.437,4.274-1.44,5.355l-43.917,25.301     C66.878,367.4,66.206,367.57,65.542,367.57z"></path></g><g><path d="M352.2,424.183c-1.354,0-2.671-0.702-3.398-1.958l-15.439-26.674c-1.085-1.875-0.445-4.273,1.429-5.358     c1.875-1.086,4.274-0.445,5.359,1.429l15.439,26.674c1.085,1.875,0.445,4.274-1.429,5.358     C353.542,424.012,352.866,424.183,352.2,424.183z"></path></g><g><path d="M159.795,424.183c-0.667,0-1.342-0.171-1.961-0.529c-1.875-1.084-2.514-3.483-1.43-5.358l15.44-26.674     c1.085-1.875,3.485-2.514,5.359-1.429c1.875,1.085,2.514,3.483,1.429,5.358l-15.44,26.674     C162.466,423.48,161.149,424.183,159.795,424.183z"></path></g><g><path d="M237.945,81.339c-1.157,0-2.303-0.51-3.077-1.488c-1.344-1.698-1.058-4.164,0.641-5.508l18.1-14.327     c1.697-1.344,4.164-1.058,5.509,0.641s1.057,4.165-0.642,5.509l-18.1,14.327C239.656,81.062,238.797,81.339,237.945,81.339z"></path></g><g><path d="M274.048,81.339c-0.854,0-1.716-0.278-2.438-0.853L253.601,66.16c-1.695-1.349-1.976-3.815-0.627-5.51     c1.349-1.696,3.814-1.976,5.51-0.628l18.009,14.327c1.695,1.349,1.977,3.815,0.627,5.511     C276.346,80.832,275.203,81.339,274.048,81.339z"></path></g><g><path d="M256.039,452.831c-0.848,0-1.703-0.274-2.421-0.84l-18.1-14.238c-1.702-1.339-1.997-3.805-0.658-5.507     c1.339-1.703,3.804-1.999,5.507-0.657l18.1,14.238c1.702,1.339,1.997,3.805,0.657,5.507     C258.351,452.317,257.2,452.831,256.039,452.831z"></path></g><g><path d="M256.044,452.831c-1.158,0-2.304-0.511-3.079-1.49c-1.343-1.698-1.055-4.164,0.644-5.508l18.009-14.238     c1.699-1.347,4.165-1.056,5.508,0.645c1.344,1.698,1.056,4.164-0.645,5.508l-18.009,14.238     C257.754,452.556,256.896,452.831,256.044,452.831z"></path></g></g></g></svg>