<svg xmlns="http://www.w3.org/2000/svg" xmlns:xlink="http://www.w3.org/1999/xlink" width="100" height="100" viewBox="0 0 100 100"><g><g transform="translate(50 50) scale(0.69 0.69) rotate(0) translate(-50 -50)" style="fill:#000000"><svg fill="#000000" xmlns="http://www.w3.org/2000/svg" data-name="Manchester Citysets" viewBox="0 0 32 32" x="0px" y="0px"><defs><style>.cls-1{fill-rule:evenodd;}</style></defs><title>bee</title><path class="cls-1" d="M28.979,16.9,23,11a7.118,7.118,0,0,0-3.53-6.069l1.636-1.636L19.693,1.88,17.422,4.151h0A6.639,6.639,0,0,0,16,4a7,7,0,0,0-1.451.15h0l-2.27-2.27L10.864,3.294,12.5,4.93h0A7.133,7.133,0,0,0,8.989,11l-5.97,5.9a5,5,0,0,0,7.07,7.07l.11-.11a12.782,12.782,0,0,0,4.87,5.62l.92.52.91-.52a12.855,12.855,0,0,0,4.89-5.63l.12.12a5,5,0,1,0,7.07-7.07ZM11.259,21c-.08-.29-.13-.57-.18-.85A7.582,7.582,0,0,1,11,19H21a7.408,7.408,0,0,1-.1,1.13,7.084,7.084,0,0,1-.18.87Zm4.73-15A5.015,5.015,0,0,1,21,10.99V13H11V11a4.984,4.984,0,0,1,4.989-5ZM21,17H10.989V15H21ZM8.669,22.56a3,3,0,0,1-4.24-4.25l4.56-4.56v5.26a9.982,9.982,0,0,0,.43,2.8Zm7.32,5.14A10.994,10.994,0,0,1,12,23h8A11.1,11.1,0,0,1,15.989,27.7Zm11.58-5.14a3.018,3.018,0,0,1-4.24,0l-.76-.76a10.211,10.211,0,0,0,.42-2.79V13.73l4.58,4.58A3.012,3.012,0,0,1,27.569,22.56Z"></path></svg></g></g></svg>