<?xml version="1.0"?>
<svg xmlns="http://www.w3.org/2000/svg" width="1920" height="1080" viewBox="-960 -540 1920 1080">
    <path d="M-522.76,-255L-275.20,311.20" fill="none" stroke="#000000"/>
    <path d="M-513.01,-255L-275.20,301.21" fill="none" stroke="#000000"/>
    <path d="M-511.48,-263.22L-273.43,291.50" fill="none" stroke="#000000"/>
    <path d="M-511.48,-272.97L-270.27,282.02" fill="none" stroke="#000000"/>
    <path d="M-511.48,-282.71L-267.12,272.55" fill="none" stroke="#000000"/>
    <path d="M-511.48,-292.46L-261.54,264.75" fill="none" stroke="#000000"/>
    <path d="M-511.48,-302.21L-253.74,258.51" fill="none" stroke="#000000"/>
    <path d="M-511.48,-311.96L-245.94,252.27" fill="none" stroke="#000000"/>
    <path d="M-521.23,-311.96L-237.16,248.80" fill="none" stroke="#000000"/>
    <path d="M-522.76,-303.74L-228.58,252.22" fill="none" stroke="#000000"/>
    <path d="M-522.76,-293.99L-222.40,259.65" fill="none" stroke="#000000"/>
    <path d="M-522.76,-284.25L-222.40,269.64" fill="none" stroke="#000000"/>
    <path d="M-522.76,-274.50L-215.57,272.80" fill="none" stroke="#000000"/>
    <path d="M-522.76,-264.75L-207.69,267.69" fill="none" stroke="#000000"/>
    <path d="M-461.32,-289.24L-204.83,259.95" fill="none" stroke="#000000"/>
    <path d="M-471.23,-289.24L-210.69,252.53" fill="none" stroke="#000000"/>
    <path d="M-481.14,-289.24L-219.96,248.81" fill="none" stroke="#000000"/>
    <path d="M-489.67,-292.72L-229.24,245.10" fill="none" stroke="#000000"/>
    <path d="M-485.76,-300.63L-239.02,244" fill="none" stroke="#000000"/>
    <path d="M-475.89,-300.84L-248.74,245.17" fill="none" stroke="#000000"/>
    <path d="M-465.98,-300.84L-257.67,249.64" fill="none" stroke="#000000"/>
    <path d="M-456.85,-298.47L-266.40,254.40" fill="none" stroke="#000000"/>
    <path d="M-449.53,-294.92L-273.46,261.46" fill="none" stroke="#000000"/>
    <path d="M-444.79,-299.52L-280.41,268.62" fill="none" stroke="#000000"/>
    <path d="M-449.94,-307.74L-285.96,276.93" fill="none" stroke="#000000"/>
    <path d="M-458.81,-311.86L-290.27,285.76" fill="none" stroke="#000000"/>
    <path d="M-468.71,-312.04L-292.23,295.55" fill="none" stroke="#000000"/>
    <path d="M-478.62,-312.04L-294.19,305.35" fill="none" stroke="#000000"/>
    <path d="M-488.51,-311.55L-291.09,314.68" fill="none" stroke="#000000"/>
    <path d="M-496.92,-306.63L-287.38,323.96" fill="none" stroke="#000000"/>
    <path d="M-501.24,-297.94L-282.07,331.77" fill="none" stroke="#000000"/>
    <path d="M-500.13,-288.15L-273.13,336.24" fill="none" stroke="#000000"/>
    <path d="M-493.95,-280.64L-264.03,340.00" fill="none" stroke="#000000"/>
    <path d="M-484.57,-277.80L-254.04,340.00" fill="none" stroke="#000000"/>
    <path d="M-474.65,-277.80L-244.44,338.69" fill="none" stroke="#000000"/>
    <path d="M-464.74,-277.80L-236.13,333.15" fill="none" stroke="#000000"/>
    <path d="M-456.13,-274.53L-228.44,326.84" fill="none" stroke="#000000"/>
    <path d="M-459.96,-266.58L-221.38,319.78" fill="none" stroke="#000000"/>
    <path d="M-469.81,-266.36L-220.89,312.71" fill="none" stroke="#000000"/>
    <path d="M-479.71,-266.36L-227.95,316.75" fill="none" stroke="#000000"/>
    <path d="M-488.91,-268.74L-235.02,323.82" fill="none" stroke="#000000"/>
    <path d="M-496.31,-272.12L-243.02,329.75" fill="none" stroke="#000000"/>
    <path d="M-500.86,-267.40L-251.36,335.20" fill="none" stroke="#000000"/>
    <path d="M-495.68,-259.17L-261.29,334.95" fill="none" stroke="#000000"/>
    <path d="M-486.82,-255.16L-270.23,330.49" fill="none" stroke="#000000"/>
    <path d="M-476.86,-255L-272.78,320.89" fill="none" stroke="#000000"/>
    <path d="M-466.96,-255L-188.80,340" fill="none" stroke="#000000"/>
    <path d="M-457.07,-255.52L-179.13,339.96" fill="none" stroke="#000000"/>
    <path d="M-448.70,-260.51L-170.82,334.97" fill="none" stroke="#000000"/>
    <path d="M-444.42,-269.21L-162.51,329.99" fill="none" stroke="#000000"/>
    <path d="M-445.63,-278.99L-154.68,324.56" fill="none" stroke="#000000"/>
    <path d="M-451.93,-286.42L-150.35,315.90" fill="none" stroke="#000000"/>
    <path d="M-522.76,-255L-146.02,307.23" fill="none" stroke="#000000"/>
    <path d="M-513.01,-255L-141.68,298.57" fill="none" stroke="#000000"/>
    <path d="M-511.48,-263.22L-144.25,289.90" fill="none" stroke="#000000"/>
    <path d="M-511.48,-272.97L-148.58,281.24" fill="none" stroke="#000000"/>
    <path d="M-511.48,-282.71L-155.85,276.24" fill="none" stroke="#000000"/>
    <path d="M-511.48,-292.46L-165.25,273.89" fill="none" stroke="#000000"/>
    <path d="M-511.48,-302.21L-174.06,275.48" fill="none" stroke="#000000"/>
    <path d="M-511.48,-311.96L-182.37,280.46" fill="none" stroke="#000000"/>
    <path d="M-521.23,-311.96L-190.67,285.44" fill="none" stroke="#000000"/>
    <path d="M-522.76,-303.74L-196.41,292.81" fill="none" stroke="#000000"/>
    <path d="M-522.76,-293.99L-200.74,301.48" fill="none" stroke="#000000"/>
    <path d="M-522.76,-284.25L-205.07,310.14" fill="none" stroke="#000000"/>
    <path d="M-522.76,-274.50L-206.60,318.81" fill="none" stroke="#000000"/>
    <path d="M-522.76,-264.75L-202.26,327.47" fill="none" stroke="#000000"/>
    <path d="M-461.32,-289.24L-197.46,335.67" fill="none" stroke="#000000"/>
    <path d="M-471.23,-289.24L-169.60,282.40" fill="none" stroke="#000000"/>
    <path d="M-481.14,-289.24L-160.08,282.40" fill="none" stroke="#000000"/>
    <path d="M-489.67,-292.72L-157.02,291.35" fill="none" stroke="#000000"/>
    <path d="M-485.76,-300.63L-156.89,300.17" fill="none" stroke="#000000"/>
    <path d="M-475.89,-300.84L-161.14,308.68" fill="none" stroke="#000000"/>
    <path d="M-465.98,-300.84L-165.74,316.94" fill="none" stroke="#000000"/>
    <path d="M-456.85,-298.47L-172.47,323.67" fill="none" stroke="#000000"/>
    <path d="M-449.53,-294.92L-179.20,330.40" fill="none" stroke="#000000"/>
    <path d="M-444.79,-299.52L-188.72,330.40" fill="none" stroke="#000000"/>
    <path d="M-449.94,-307.74L-191.78,321.45" fill="none" stroke="#000000"/>
    <path d="M-458.81,-311.86L-191.91,312.63" fill="none" stroke="#000000"/>
    <path d="M-468.71,-312.04L-187.66,304.12" fill="none" stroke="#000000"/>
    <path d="M-478.62,-312.04L-183.06,295.86" fill="none" stroke="#000000"/>
    <path d="M-488.51,-311.55L-176.33,289.13" fill="none" stroke="#000000"/>
    <path d="M-496.92,-306.63L-136,301.60" fill="none" stroke="#000000"/>
    <path d="M-501.24,-297.94L-128.99,304.19" fill="none" stroke="#000000"/>
    <path d="M-500.13,-288.15L-121.97,297.17" fill="none" stroke="#000000"/>
    <path d="M-493.95,-280.64L-114.96,290.16" fill="none" stroke="#000000"/>
    <path d="M-484.57,-277.80L-107.95,283.15" fill="none" stroke="#000000"/>
    <path d="M-474.65,-277.80L-104.35,285.97" fill="none" stroke="#000000"/>
    <path d="M-464.74,-277.80L-109.10,294.68" fill="none" stroke="#000000"/>
    <path d="M-456.13,-274.53L-113.85,303.38" fill="none" stroke="#000000"/>
    <path d="M-459.96,-266.58L-118.60,312.09" fill="none" stroke="#000000"/>
    <path d="M-469.81,-266.36L-123.35,320.80" fill="none" stroke="#000000"/>
    <path d="M-479.71,-266.36L-128.09,329.51" fill="none" stroke="#000000"/>
    <path d="M-488.91,-268.74L-128.77,337.63" fill="none" stroke="#000000"/>
    <path d="M-496.31,-272.12L-119.83,340" fill="none" stroke="#000000"/>
    <path d="M-500.86,-267.40L-113.72,333.84" fill="none" stroke="#000000"/>
    <path d="M-495.68,-259.17L-109.29,324.97" fill="none" stroke="#000000"/>
    <path d="M-486.82,-255.16L-104.85,316.10" fill="none" stroke="#000000"/>
    <path d="M-476.86,-255L-100.41,307.23" fill="none" stroke="#000000"/>
    <path d="M-466.96,-255L-95.04,299.04" fill="none" stroke="#000000"/>
    <path d="M-457.07,-255.52L-88.02,292.02" fill="none" stroke="#000000"/>
    <path d="M-448.70,-260.51L-80.43,285.81" fill="none" stroke="#000000"/>
    <path d="M-444.42,-269.21L-71.98,284.02" fill="none" stroke="#000000"/>
    <path d="M-445.63,-278.99L-71.43,291.93" fill="none" stroke="#000000"/>
    <path d="M-451.93,-286.42L-76.25,300.61" fill="none" stroke="#000000"/>
    <path d="M-522.76,-255L-81.06,309.28" fill="none" stroke="#000000"/>
    <path d="M-513.01,-255L-85.88,317.95" fill="none" stroke="#000000"/>
    <path d="M-511.48,-263.22L-90.70,326.62" fill="none" stroke="#000000"/>
    <path d="M-511.48,-272.97L-92.24,335.76" fill="none" stroke="#000000"/>
    <path d="M-511.48,-282.71L-84.08,340" fill="none" stroke="#000000"/>
    <path d="M-511.48,-292.46L-74.61,338.10" fill="none" stroke="#000000"/>
    <path d="M-511.48,-302.21L-66.38,332.78" fill="none" stroke="#000000"/>
    <path d="M-511.48,-311.96L-59.36,325.76" fill="none" stroke="#000000"/>
    <path d="M-521.23,-311.96L-52.35,318.75" fill="none" stroke="#000000"/>
    <path d="M-522.76,-303.74L-45.34,311.74" fill="none" stroke="#000000"/>
    <path d="M-522.76,-293.99L-51.28,308.08" fill="none" stroke="#000000"/>
    <path d="M-522.76,-284.25L-58.29,315.09" fill="none" stroke="#000000"/>
    <path d="M-522.76,-274.50L-65.31,322.11" fill="none" stroke="#000000"/>
    <path d="M-522.76,-264.75L-72.32,329.12" fill="none" stroke="#000000"/>
    <path d="M-461.32,-289.24L-76.65,327.60" fill="none" stroke="#000000"/>
    <path d="M-471.23,-289.24L-71.39,319.18" fill="none" stroke="#000000"/>
    <path d="M-481.14,-289.24L-66.13,310.77" fill="none" stroke="#000000"/>
    <path d="M-489.67,-292.72L-60.88,302.36" fill="none" stroke="#000000"/>
    <path d="M-485.76,-300.63L-55.62,293.95" fill="none" stroke="#000000"/>
    <path d="M-475.89,-300.84L-54.40,284.38" fill="none" stroke="#000000"/>
    <path d="M-465.98,-300.84L-57.38,276.61" fill="none" stroke="#000000"/>
    <path d="M-456.85,-298.47L-66.79,273.47" fill="none" stroke="#000000"/>
    <path d="M-449.53,-294.92L-76.20,275.27" fill="none" stroke="#000000"/>
    <path d="M-444.79,-299.52L-84.99,279.39" fill="none" stroke="#000000"/>
    <path d="M-449.94,-307.74L-92.01,286.41" fill="none" stroke="#000000"/>
    <path d="M-458.81,-311.86L-96.70,290.20" fill="none" stroke="#000000"/>
    <path d="M-468.71,-312.04L-92.80,281.20" fill="none" stroke="#000000"/>
    <path d="M-478.62,-312.04L-97.26,273.14" fill="none" stroke="#000000"/>
    <path d="M-488.51,-311.55L-106.56,275.79" fill="none" stroke="#000000"/>
    <path d="M-496.92,-306.63L-114.96,280.56" fill="none" stroke="#000000"/>
    <path d="M-501.24,-297.94L-121.97,287.57" fill="none" stroke="#000000"/>
    <path d="M-500.13,-288.15L-128.99,294.59" fill="none" stroke="#000000"/>
    <path d="M-493.95,-280.64L-44.80,301.60" fill="none" stroke="#000000"/>
    <path d="M-484.57,-277.80L-37.79,304.19" fill="none" stroke="#000000"/>
    <path d="M-474.65,-277.80L-30.77,297.17" fill="none" stroke="#000000"/>
    <path d="M-464.74,-277.80L-23.76,290.16" fill="none" stroke="#000000"/>
    <path d="M-456.13,-274.53L-16.75,283.15" fill="none" stroke="#000000"/>
    <path d="M-459.96,-266.58L-13.15,285.97" fill="none" stroke="#000000"/>
    <path d="M-469.81,-266.36L-17.90,294.68" fill="none" stroke="#000000"/>
    <path d="M-479.71,-266.36L-22.65,303.38" fill="none" stroke="#000000"/>
    <path d="M-488.91,-268.74L-27.40,312.09" fill="none" stroke="#000000"/>
    <path d="M-496.31,-272.12L-32.15,320.80" fill="none" stroke="#000000"/>
    <path d="M-500.86,-267.40L-36.89,329.51" fill="none" stroke="#000000"/>
    <path d="M-495.68,-259.17L-37.57,337.63" fill="none" stroke="#000000"/>
    <path d="M-486.82,-255.16L-28.63,340" fill="none" stroke="#000000"/>
    <path d="M-476.86,-255L-22.52,333.84" fill="none" stroke="#000000"/>
    <path d="M-466.96,-255L-18.09,324.97" fill="none" stroke="#000000"/>
    <path d="M-457.07,-255.52L-13.65,316.10" fill="none" stroke="#000000"/>
    <path d="M-448.70,-260.51L-9.21,307.23" fill="none" stroke="#000000"/>
    <path d="M-444.42,-269.21L-3.84,299.04" fill="none" stroke="#000000"/>
    <path d="M-445.63,-278.99L3.18,292.02" fill="none" stroke="#000000"/>
    <path d="M-451.93,-286.42L10.77,285.81" fill="none" stroke="#000000"/>
    <path d="M-522.76,-255L19.22,284.02" fill="none" stroke="#000000"/>
    <path d="M-513.01,-255L19.77,291.93" fill="none" stroke="#000000"/>
    <path d="M-511.48,-263.22L14.95,300.61" fill="none" stroke="#000000"/>
    <path d="M-511.48,-272.97L10.14,309.28" fill="none" stroke="#000000"/>
    <path d="M-511.48,-282.71L5.32,317.95" fill="none" stroke="#000000"/>
    <path d="M-511.48,-292.46L0.50,326.62" fill="none" stroke="#000000"/>
    <path d="M-511.48,-302.21L-1.04,335.76" fill="none" stroke="#000000"/>
    <path d="M-511.48,-311.96L7.12,340" fill="none" stroke="#000000"/>
    <path d="M-521.23,-311.96L16.59,338.10" fill="none" stroke="#000000"/>
    <path d="M-522.76,-303.74L24.82,332.78" fill="none" stroke="#000000"/>
    <path d="M-522.76,-293.99L31.84,325.76" fill="none" stroke="#000000"/>
    <path d="M-522.76,-284.25L38.85,318.75" fill="none" stroke="#000000"/>
    <path d="M-522.76,-274.50L45.86,311.74" fill="none" stroke="#000000"/>
    <path d="M-522.76,-264.75L39.92,308.08" fill="none" stroke="#000000"/>
    <path d="M-461.32,-289.24L32.91,315.09" fill="none" stroke="#000000"/>
    <path d="M-471.23,-289.24L25.89,322.11" fill="none" stroke="#000000"/>
    <path d="M-481.14,-289.24L18.88,329.12" fill="none" stroke="#000000"/>
    <path d="M-489.67,-292.72L14.55,327.60" fill="none" stroke="#000000"/>
    <path d="M-485.76,-300.63L19.81,319.18" fill="none" stroke="#000000"/>
    <path d="M-475.89,-300.84L25.07,310.77" fill="none" stroke="#000000"/>
    <path d="M-465.98,-300.84L30.32,302.36" fill="none" stroke="#000000"/>
    <path d="M-456.85,-298.47L35.58,293.95" fill="none" stroke="#000000"/>
    <path d="M-449.53,-294.92L36.80,284.38" fill="none" stroke="#000000"/>
    <path d="M-444.79,-299.52L33.82,276.61" fill="none" stroke="#000000"/>
    <path d="M-449.94,-307.74L24.41,273.47" fill="none" stroke="#000000"/>
    <path d="M-458.81,-311.86L15.00,275.27" fill="none" stroke="#000000"/>
    <path d="M-468.71,-312.04L6.21,279.39" fill="none" stroke="#000000"/>
    <path d="M-478.62,-312.04L-0.81,286.41" fill="none" stroke="#000000"/>
    <path d="M-488.51,-311.55L-5.50,290.20" fill="none" stroke="#000000"/>
    <path d="M-496.92,-306.63L-1.60,281.20" fill="none" stroke="#000000"/>
    <path d="M-501.24,-297.94L-6.06,273.14" fill="none" stroke="#000000"/>
    <path d="M-500.13,-288.15L-15.36,275.79" fill="none" stroke="#000000"/>
    <path d="M-493.95,-280.64L-23.76,280.56" fill="none" stroke="#000000"/>
    <path d="M-484.57,-277.80L-30.77,287.57" fill="none" stroke="#000000"/>
    <path d="M-474.65,-277.80L-37.79,294.59" fill="none" stroke="#000000"/>
    <path d="M-464.74,-277.80L113.60,296.80" fill="none" stroke="#000000"/>
    <path d="M-456.13,-274.53L113.49,286.98" fill="none" stroke="#000000"/>
    <path d="M-459.96,-266.58L109.09,278.18" fill="none" stroke="#000000"/>
    <path d="M-469.81,-266.36L99.87,275.37" fill="none" stroke="#000000"/>
    <path d="M-479.71,-266.36L90.32,272.98" fill="none" stroke="#000000"/>
    <path d="M-488.91,-268.74L81.80,277.48" fill="none" stroke="#000000"/>
    <path d="M-496.31,-272.12L73.35,282.55" fill="none" stroke="#000000"/>
    <path d="M-500.86,-267.40L65.24,287.92" fill="none" stroke="#000000"/>
    <path d="M-495.68,-259.17L60.84,296.72" fill="none" stroke="#000000"/>
    <path d="M-486.82,-255.16L56.44,305.53" fill="none" stroke="#000000"/>
    <path d="M-476.86,-255L52.03,314.34" fill="none" stroke="#000000"/>
    <path d="M-466.96,-255L53.14,323.75" fill="none" stroke="#000000"/>
    <path d="M-457.07,-255.52L55.52,333.30" fill="none" stroke="#000000"/>
    <path d="M-448.70,-260.51L63.05,338.73" fill="none" stroke="#000000"/>
    <path d="M-444.42,-269.21L72.60,340.00" fill="none" stroke="#000000"/>
    <path d="M-445.63,-278.99L81.68,336.76" fill="none" stroke="#000000"/>
    <path d="M-451.93,-286.42L89.29,330.71" fill="none" stroke="#000000"/>
    <path d="M-522.76,-255L96.25,323.75" fill="none" stroke="#000000"/>
    <path d="M-513.01,-255L103.21,316.79" fill="none" stroke="#000000"/>
    <path d="M-511.48,-263.22L97.82,312.58" fill="none" stroke="#000000"/>
    <path d="M-511.48,-272.97L90.86,319.54" fill="none" stroke="#000000"/>
    <path d="M-511.48,-282.71L83.90,326.50" fill="none" stroke="#000000"/>
    <path d="M-511.48,-292.46L75.67,330.40" fill="none" stroke="#000000"/>
    <path d="M-511.48,-302.21L68.95,326.06" fill="none" stroke="#000000"/>
    <path d="M-511.48,-311.96L65.84,316.72" fill="none" stroke="#000000"/>
    <path d="M-521.23,-311.96L69.66,307.87" fill="none" stroke="#000000"/>
    <path d="M-522.76,-303.74L74.07,299.07" fill="none" stroke="#000000"/>
    <path d="M-522.76,-293.99L80.37,291.63" fill="none" stroke="#000000"/>
    <path d="M-522.76,-284.25L87.33,284.67" fill="none" stroke="#000000"/>
    <path d="M-522.76,-274.50L96.23,282.40" fill="none" stroke="#000000"/>
    <path d="M-522.76,-264.75L99.20,289.28" fill="none" stroke="#000000"/>
    <path d="M-461.32,-289.24L97.12,297.84" fill="none" stroke="#000000"/>
    <path d="M-471.23,-289.24L88.16,301.60" fill="none" stroke="#000000"/>
    <path d="M-481.14,-289.24L78.32,301.60" fill="none" stroke="#000000"/>
    <path d="M-489.67,-292.72L77.13,306.40" fill="none" stroke="#000000"/>
    <path d="M-485.76,-300.63L86.97,306.40" fill="none" stroke="#000000"/>
    <path d="M-475.89,-300.84L96.82,306.40" fill="none" stroke="#000000"/>
    <path d="M-465.98,-300.84L105.41,302.26" fill="none" stroke="#000000"/>
    <path d="M-456.85,-298.47L180.80,296.80" fill="none" stroke="#000000"/>
    <path d="M-449.53,-294.92L180.66,286.92" fill="none" stroke="#000000"/>
    <path d="M-444.79,-299.52L176.23,278.05" fill="none" stroke="#000000"/>
    <path d="M-449.94,-307.74L166.87,275.32" fill="none" stroke="#000000"/>
    <path d="M-458.81,-311.86L157.25,272.91" fill="none" stroke="#000000"/>
    <path d="M-468.71,-312.04L148.70,277.66" fill="none" stroke="#000000"/>
    <path d="M-478.62,-312.04L140.19,282.76" fill="none" stroke="#000000"/>
    <path d="M-488.51,-311.55L132.22,288.35" fill="none" stroke="#000000"/>
    <path d="M-496.92,-306.63L127.79,297.22" fill="none" stroke="#000000"/>
    <path d="M-501.24,-297.94L123.35,306.09" fill="none" stroke="#000000"/>
    <path d="M-500.13,-288.15L118.92,314.96" fill="none" stroke="#000000"/>
    <path d="M-493.95,-280.64L120.52,324.49" fill="none" stroke="#000000"/>
    <path d="M-484.57,-277.80L122.93,334.11" fill="none" stroke="#000000"/>
    <path d="M-474.65,-277.80L131.06,339.13" fill="none" stroke="#000000"/>
    <path d="M-464.74,-277.80L140.77,340" fill="none" stroke="#000000"/>
    <path d="M-456.13,-274.53L149.81,336.29" fill="none" stroke="#000000"/>
    <path d="M-459.96,-266.58L157.28,329.92" fill="none" stroke="#000000"/>
    <path d="M-469.81,-266.36L164.29,322.91" fill="none" stroke="#000000"/>
    <path d="M-479.71,-266.36L171.10,315.90" fill="none" stroke="#000000"/>
    <path d="M-488.91,-268.74L164.09,313.51" fill="none" stroke="#000000"/>
    <path d="M-496.31,-272.12L157.08,320.52" fill="none" stroke="#000000"/>
    <path d="M-500.86,-267.40L150.07,327.53" fill="none" stroke="#000000"/>
    <path d="M-495.68,-259.17L141.34,330.40" fill="none" stroke="#000000"/>
    <path d="M-486.82,-255.16L135.65,324.54" fill="none" stroke="#000000"/>
    <path d="M-476.86,-255L133.21,315.18" fill="none" stroke="#000000"/>
    <path d="M-466.96,-255L137.64,306.32" fill="none" stroke="#000000"/>
    <path d="M-457.07,-255.52L142.08,297.45" fill="none" stroke="#000000"/>
    <path d="M-448.70,-260.51L148.90,290.30" fill="none" stroke="#000000"/>
    <path d="M-444.42,-269.21L155.91,283.29" fill="none" stroke="#000000"/>
    <path d="M-445.63,-278.99L165.46,282.40" fill="none" stroke="#000000"/>
    <path d="M-451.93,-286.42L166.40,291.37" fill="none" stroke="#000000"/>
    <path d="M-522.76,-255L170.89,296.80" fill="none" stroke="#000000"/>
    <path d="M-513.01,-255L195.20,330.40" fill="none" stroke="#000000"/>
    <path d="M-511.48,-263.22L199.58,321.63" fill="none" stroke="#000000"/>
    <path d="M-511.48,-272.97L203.97,312.86" fill="none" stroke="#000000"/>
    <path d="M-511.48,-282.71L208.35,304.10" fill="none" stroke="#000000"/>
    <path d="M-511.48,-292.46L212.74,295.33" fill="none" stroke="#000000"/>
    <path d="M-511.48,-302.21L217.12,286.56" fill="none" stroke="#000000"/>
    <path d="M-511.48,-311.96L224.35,282.40" fill="none" stroke="#000000"/>
    <path d="M-521.23,-311.96L233.60,281.84" fill="none" stroke="#000000"/>
    <path d="M-522.76,-303.74L228.04,277.60" fill="none" stroke="#000000"/>
    <path d="M-522.76,-293.99L219.63,276.74" fill="none" stroke="#000000"/>
    <path d="M-522.76,-284.25L224.01,267.97" fill="none" stroke="#000000"/>
    <path d="M-522.76,-274.50L228.40,259.20" fill="none" stroke="#000000"/>
    <path d="M-522.76,-264.75L219.90,258.40" fill="none" stroke="#000000"/>
    <path d="M-461.32,-289.24L216.32,267.04" fill="none" stroke="#000000"/>
    <path d="M-471.23,-289.24L211.06,274.47" fill="none" stroke="#000000"/>
    <path d="M-481.14,-289.24L202.00,277.60" fill="none" stroke="#000000"/>
    <path d="M-489.67,-292.72L195.20,280.60" fill="none" stroke="#000000"/>
    <path d="M-485.76,-300.63L203.21,282.40" fill="none" stroke="#000000"/>
    <path d="M-475.89,-300.84L201.13,289.74" fill="none" stroke="#000000"/>
    <path d="M-465.98,-300.84L196.74,298.51" fill="none" stroke="#000000"/>
    <path d="M-456.85,-298.47L192.36,307.28" fill="none" stroke="#000000"/>
    <path d="M-449.53,-294.92L187.98,316.05" fill="none" stroke="#000000"/>
    <path d="M-444.79,-299.52L183.59,324.82" fill="none" stroke="#000000"/>
    <path d="M-449.94,-307.74L180.80,333.96" fill="none" stroke="#000000"/>
    <path d="M-458.81,-311.86L187.37,340" fill="none" stroke="#000000"/>
    <path d="M-468.71,-312.04L196.97,339.12" fill="none" stroke="#000000"/>
    <path d="M-478.62,-312.04L205.54,334.46" fill="none" stroke="#000000"/>
    <path d="M-488.51,-311.55L212.47,327.53" fill="none" stroke="#000000"/>
    <path d="M-496.92,-306.63L219.40,320.60" fill="none" stroke="#000000"/>
    <path d="M-501.24,-297.94L226.34,313.66" fill="none" stroke="#000000"/>
    <path d="M-500.13,-288.15L224.33,306.73" fill="none" stroke="#000000"/>
    <path d="M-493.95,-280.64L217.40,313.00" fill="none" stroke="#000000"/>
    <path d="M-484.57,-277.80L210.47,319.93" fill="none" stroke="#000000"/>
    <path d="M-474.65,-277.80L203.54,326.86" fill="none" stroke="#000000"/>
    <path d="M-464.74,-277.80L300.80,296.80" fill="none" stroke="#000000"/>
    <path d="M-456.13,-274.53L300.69,286.98" fill="none" stroke="#000000"/>
    <path d="M-459.96,-266.58L296.29,278.18" fill="none" stroke="#000000"/>
    <path d="M-469.81,-266.36L287.07,275.37" fill="none" stroke="#000000"/>
    <path d="M-479.71,-266.36L277.52,272.98" fill="none" stroke="#000000"/>
    <path d="M-488.91,-268.74L269.00,277.48" fill="none" stroke="#000000"/>
    <path d="M-496.31,-272.12L260.55,282.55" fill="none" stroke="#000000"/>
    <path d="M-500.86,-267.40L252.44,287.92" fill="none" stroke="#000000"/>
    <path d="M-495.68,-259.17L248.04,296.72" fill="none" stroke="#000000"/>
    <path d="M-486.82,-255.16L243.64,305.53" fill="none" stroke="#000000"/>
    <path d="M-476.86,-255L239.23,314.34" fill="none" stroke="#000000"/>
    <path d="M-466.96,-255L240.34,323.75" fill="none" stroke="#000000"/>
    <path d="M-457.07,-255.52L242.72,333.30" fill="none" stroke="#000000"/>
    <path d="M-448.70,-260.51L250.25,338.73" fill="none" stroke="#000000"/>
    <path d="M-444.42,-269.21L259.79,340.00" fill="none" stroke="#000000"/>
    <path d="M-445.63,-278.99L268.88,336.76" fill="none" stroke="#000000"/>
    <path d="M-451.93,-286.42L276.49,330.71" fill="none" stroke="#000000"/>
    <path d="M-522.76,-255L283.45,323.75" fill="none" stroke="#000000"/>
    <path d="M-513.01,-255L290.41,316.79" fill="none" stroke="#000000"/>
    <path d="M-511.48,-263.22L285.02,312.58" fill="none" stroke="#000000"/>
    <path d="M-511.48,-272.97L278.06,319.54" fill="none" stroke="#000000"/>
    <path d="M-511.48,-282.71L271.10,326.50" fill="none" stroke="#000000"/>
    <path d="M-511.48,-292.46L262.87,330.40" fill="none" stroke="#000000"/>
    <path d="M-511.48,-302.21L256.15,326.06" fill="none" stroke="#000000"/>
    <path d="M-511.48,-311.96L253.04,316.72" fill="none" stroke="#000000"/>
    <path d="M-521.23,-311.96L256.86,307.87" fill="none" stroke="#000000"/>
    <path d="M-522.76,-303.74L261.27,299.07" fill="none" stroke="#000000"/>
    <path d="M-522.76,-293.99L267.57,291.63" fill="none" stroke="#000000"/>
    <path d="M-522.76,-284.25L274.53,284.67" fill="none" stroke="#000000"/>
    <path d="M-522.76,-274.50L283.43,282.40" fill="none" stroke="#000000"/>
    <path d="M-522.76,-264.75L286.40,289.28" fill="none" stroke="#000000"/>
    <path d="M-461.32,-289.24L284.32,297.84" fill="none" stroke="#000000"/>
    <path d="M-471.23,-289.24L275.36,301.60" fill="none" stroke="#000000"/>
    <path d="M-481.14,-289.24L265.52,301.60" fill="none" stroke="#000000"/>
    <path d="M-489.67,-292.72L264.33,306.40" fill="none" stroke="#000000"/>
    <path d="M-485.76,-300.63L274.17,306.40" fill="none" stroke="#000000"/>
    <path d="M-475.89,-300.84L284.02,306.40" fill="none" stroke="#000000"/>
    <path d="M-465.98,-300.84L292.61,302.26" fill="none" stroke="#000000"/>
    <path d="M-456.85,-298.47L348.80,340" fill="none" stroke="#000000"/>
    <path d="M-449.53,-294.92L358.22,337.69" fill="none" stroke="#000000"/>
    <path d="M-444.79,-299.52L366.30,332.10" fill="none" stroke="#000000"/>
    <path d="M-449.94,-307.74L373.35,325.05" fill="none" stroke="#000000"/>
    <path d="M-458.81,-311.86L380.39,318.01" fill="none" stroke="#000000"/>
    <path d="M-468.71,-312.04L386.96,310.96" fill="none" stroke="#000000"/>
    <path d="M-478.62,-312.04L379.92,308.88" fill="none" stroke="#000000"/>
    <path d="M-488.51,-311.55L372.88,315.92" fill="none" stroke="#000000"/>
    <path d="M-496.92,-306.63L365.83,322.97" fill="none" stroke="#000000"/>
    <path d="M-501.24,-297.94L358.79,330.01" fill="none" stroke="#000000"/>
    <path d="M-500.13,-288.15L355.57,326.23" fill="none" stroke="#000000"/>
    <path d="M-493.95,-280.64L359.84,317.23" fill="none" stroke="#000000"/>
    <path d="M-484.57,-277.80L364.10,308.22" fill="none" stroke="#000000"/>
    <path d="M-474.65,-277.80L368.37,299.22" fill="none" stroke="#000000"/>
    <path d="M-464.74,-277.80L372.63,290.22" fill="none" stroke="#000000"/>
    <path d="M-456.13,-274.53L376.90,281.22" fill="none" stroke="#000000"/>
    <path d="M-459.96,-266.58L381.16,272.21" fill="none" stroke="#000000"/>
    <path d="M-469.81,-266.36L385.43,263.21" fill="none" stroke="#000000"/>
    <path d="M-479.71,-266.36L389.69,254.21" fill="none" stroke="#000000"/>
    <path d="M-488.91,-268.74L393.96,245.21" fill="none" stroke="#000000"/>
    <path d="M-496.31,-272.12L393.48,239.20" fill="none" stroke="#000000"/>
    <path d="M-500.86,-267.40L383.52,239.20" fill="none" stroke="#000000"/>
    <path d="M-495.68,-259.17L373.56,239.20" fill="none" stroke="#000000"/>
    <path d="M-486.82,-255.16L363.60,239.20" fill="none" stroke="#000000"/>
    <path d="M-476.86,-255L367.96,244" fill="none" stroke="#000000"/>
    <path d="M-466.96,-255L377.50,244.31" fill="none" stroke="#000000"/>
    <path d="M-457.07,-255.52L374.35,253.76" fill="none" stroke="#000000"/>
    <path d="M-448.70,-260.51L371.20,263.21" fill="none" stroke="#000000"/>
    <path d="M-444.42,-269.21L368.05,272.66" fill="none" stroke="#000000"/>
    <path d="M-445.63,-278.99L364.90,282.11" fill="none" stroke="#000000"/>
    <path d="M-451.93,-286.42L361.14,283.09" fill="none" stroke="#000000"/>
    <path d="M-522.76,-255L354.69,276.67" fill="none" stroke="#000000"/>
    <path d="M-513.01,-255L345.02,274.26" fill="none" stroke="#000000"/>
    <path d="M-511.48,-263.22L336.11,275.27" fill="none" stroke="#000000"/>
    <path d="M-511.48,-272.97L328.33,281.50" fill="none" stroke="#000000"/>
    <path d="M-511.48,-282.71L320.55,287.72" fill="none" stroke="#000000"/>
    <path d="M-511.48,-292.46L314.05,294.89" fill="none" stroke="#000000"/>
    <path d="M-511.48,-302.21L310.35,304.14" fill="none" stroke="#000000"/>
    <path d="M-511.48,-311.96L306.65,313.38" fill="none" stroke="#000000"/>
    <path d="M-521.23,-311.96L307.33,322.93" fill="none" stroke="#000000"/>
    <path d="M-522.76,-303.74L309.75,332.60" fill="none" stroke="#000000"/>
    <path d="M-522.76,-293.99L316.91,338.45" fill="none" stroke="#000000"/>
    <path d="M-522.76,-284.25L326.51,340" fill="none" stroke="#000000"/>
    <path d="M-522.76,-274.50L334.46,335.14" fill="none" stroke="#000000"/>
    <path d="M-522.76,-264.75L341.50,328.10" fill="none" stroke="#000000"/>
    <path d="M-461.32,-289.24L344,332.03" fill="none" stroke="#000000"/>
    <path d="M-471.23,-289.24L329.60,330.40" fill="none" stroke="#000000"/>
    <path d="M-481.14,-289.24L323.35,326.06" fill="none" stroke="#000000"/>
    <path d="M-489.67,-292.72L320.39,317.16" fill="none" stroke="#000000"/>
    <path d="M-485.76,-300.63L323.65,308.70" fill="none" stroke="#000000"/>
    <path d="M-475.89,-300.84L327.84,300.31" fill="none" stroke="#000000"/>
    <path d="M-465.98,-300.84L333.45,292.95" fill="none" stroke="#000000"/>
    <path d="M-456.85,-298.47L340.09,286.31" fill="none" stroke="#000000"/>
    <path d="M-449.53,-294.92L347.84,282.40" fill="none" stroke="#000000"/>
    <path d="M-444.79,-299.52L355.22,285.64" fill="none" stroke="#000000"/>
    <path d="M-449.94,-307.74L358.40,294.27" fill="none" stroke="#000000"/>
    <path d="M-458.81,-311.86L354.29,302.28" fill="none" stroke="#000000"/>
    <path d="M-468.71,-312.04L348.66,309.78" fill="none" stroke="#000000"/>
    <path d="M-478.62,-312.04L342.86,317.14" fill="none" stroke="#000000"/>
    <path d="M-488.51,-311.55L336.23,323.77" fill="none" stroke="#000000"/>
    <path d="M-522.76,-255L52.85,-1.11" fill="none" stroke="#000000"/>
    <path d="M-513.01,-255L52.85,8.74" fill="none" stroke="#000000"/>
    <path d="M-511.48,-263.22L52.85,18.60" fill="none" stroke="#000000"/>
    <path d="M-511.48,-272.97L52.85,28.45" fill="none" stroke="#000000"/>
    <path d="M-511.48,-282.71L52.85,38.31" fill="none" stroke="#000000"/>
    <path d="M-511.48,-292.46L52.85,48.16" fill="none" stroke="#000000"/>
    <path d="M-511.48,-302.21L52.85,58.02" fill="none" stroke="#000000"/>
    <path d="M-511.48,-311.96L52.85,67.87" fill="none" stroke="#000000"/>
    <path d="M-521.23,-311.96L52.85,77.72" fill="none" stroke="#000000"/>
    <path d="M-522.76,-303.74L62.48,77.94" fill="none" stroke="#000000"/>
    <path d="M-522.76,-293.99L72.34,77.94" fill="none" stroke="#000000"/>
    <path d="M-522.76,-284.25L82.19,77.94" fill="none" stroke="#000000"/>
    <path d="M-522.76,-274.50L92.05,77.94" fill="none" stroke="#000000"/>
    <path d="M-522.76,-264.75L101.90,77.94" fill="none" stroke="#000000"/>
    <path d="M-461.32,-289.24L111.76,77.94" fill="none" stroke="#000000"/>
    <path d="M-471.23,-289.24L113.76,70.09" fill="none" stroke="#000000"/>
    <path d="M-481.14,-289.24L104.69,69.30" fill="none" stroke="#000000"/>
    <path d="M-489.67,-292.72L94.84,69.30" fill="none" stroke="#000000"/>
    <path d="M-485.76,-300.63L84.99,69.30" fill="none" stroke="#000000"/>
    <path d="M-475.89,-300.84L75.13,69.30" fill="none" stroke="#000000"/>
    <path d="M-465.98,-300.84L65.28,69.30" fill="none" stroke="#000000"/>
    <path d="M-456.85,-298.47L61.63,63.09" fill="none" stroke="#000000"/>
    <path d="M-449.53,-294.92L61.63,53.24" fill="none" stroke="#000000"/>
    <path d="M-444.79,-299.52L61.63,43.38" fill="none" stroke="#000000"/>
    <path d="M-449.94,-307.74L70.91,42.81" fill="none" stroke="#000000"/>
    <path d="M-458.81,-311.86L80.77,42.81" fill="none" stroke="#000000"/>
    <path d="M-468.71,-312.04L90.62,42.81" fill="none" stroke="#000000"/>
    <path d="M-478.62,-312.04L96.19,38.53" fill="none" stroke="#000000"/>
    <path d="M-488.51,-311.55L90.84,34.02" fill="none" stroke="#000000"/>
    <path d="M-496.92,-306.63L80.98,34.02" fill="none" stroke="#000000"/>
    <path d="M-501.24,-297.94L71.13,34.02" fill="none" stroke="#000000"/>
    <path d="M-500.13,-288.15L61.63,33.67" fill="none" stroke="#000000"/>
    <path d="M-493.95,-280.64L61.63,23.81" fill="none" stroke="#000000"/>
    <path d="M-484.57,-277.80L61.63,13.96" fill="none" stroke="#000000"/>
    <path d="M-474.65,-277.80L65.20,7.67" fill="none" stroke="#000000"/>
    <path d="M-464.74,-277.80L75.06,7.67" fill="none" stroke="#000000"/>
    <path d="M-456.13,-274.53L84.91,7.67" fill="none" stroke="#000000"/>
    <path d="M-459.96,-266.58L94.76,7.67" fill="none" stroke="#000000"/>
    <path d="M-469.81,-266.36L104.62,7.67" fill="none" stroke="#000000"/>
    <path d="M-479.71,-266.36L113.76,6.96" fill="none" stroke="#000000"/>
    <path d="M-488.91,-268.74L111.98,-1.11" fill="none" stroke="#000000"/>
    <path d="M-496.31,-272.12L102.12,-1.11" fill="none" stroke="#000000"/>
    <path d="M-500.86,-267.40L92.27,-1.11" fill="none" stroke="#000000"/>
    <path d="M-495.68,-259.17L82.41,-1.11" fill="none" stroke="#000000"/>
    <path d="M-486.82,-255.16L72.56,-1.11" fill="none" stroke="#000000"/>
    <path d="M-476.86,-255L62.70,-1.11" fill="none" stroke="#000000"/>
    <path d="M-466.96,-255L131.76,28.70" fill="none" stroke="#000000"/>
    <path d="M-457.07,-255.52L131.76,18.73" fill="none" stroke="#000000"/>
    <path d="M-448.70,-260.51L123.93,16.60" fill="none" stroke="#000000"/>
    <path d="M-444.42,-269.21L123.12,25.75" fill="none" stroke="#000000"/>
    <path d="M-445.63,-278.99L125.53,35.10" fill="none" stroke="#000000"/>
    <path d="M-451.93,-286.42L130.62,43.67" fill="none" stroke="#000000"/>
    <path d="M-522.76,-255L135.70,52.24" fill="none" stroke="#000000"/>
    <path d="M-513.01,-255L140.79,60.81" fill="none" stroke="#000000"/>
    <path d="M-511.48,-263.22L145.87,69.37" fill="none" stroke="#000000"/>
    <path d="M-511.48,-272.97L151.42,77.58" fill="none" stroke="#000000"/>
    <path d="M-511.48,-282.71L158.90,73.15" fill="none" stroke="#000000"/>
    <path d="M-511.48,-292.46L163.99,64.59" fill="none" stroke="#000000"/>
    <path d="M-511.48,-302.21L169.08,56.02" fill="none" stroke="#000000"/>
    <path d="M-511.48,-311.96L174.16,47.46" fill="none" stroke="#000000"/>
    <path d="M-521.23,-311.96L179.25,38.89" fill="none" stroke="#000000"/>
    <path d="M-522.76,-303.74L184.11,30.25" fill="none" stroke="#000000"/>
    <path d="M-522.76,-293.99L184.18,20.27" fill="none" stroke="#000000"/>
    <path d="M-522.76,-284.25L177.88,16.60" fill="none" stroke="#000000"/>
    <path d="M-522.76,-274.50L175.54,24.22" fill="none" stroke="#000000"/>
    <path d="M-522.76,-264.75L172.51,33.35" fill="none" stroke="#000000"/>
    <path d="M-461.32,-289.24L167.41,41.91" fill="none" stroke="#000000"/>
    <path d="M-471.23,-289.24L162.32,50.47" fill="none" stroke="#000000"/>
    <path d="M-481.14,-289.24L157.22,59.03" fill="none" stroke="#000000"/>
    <path d="M-489.67,-292.72L152.12,62.95" fill="none" stroke="#000000"/>
    <path d="M-485.76,-300.63L147.03,54.39" fill="none" stroke="#000000"/>
    <path d="M-475.89,-300.84L141.94,45.82" fill="none" stroke="#000000"/>
    <path d="M-465.98,-300.84L136.85,37.26" fill="none" stroke="#000000"/>
    <path d="M-456.85,-298.47L201.89,51.74" fill="none" stroke="#000000"/>
    <path d="M-449.53,-294.92L211.89,51.74" fill="none" stroke="#000000"/>
    <path d="M-444.79,-299.52L221.89,51.74" fill="none" stroke="#000000"/>
    <path d="M-449.94,-307.74L231.89,51.74" fill="none" stroke="#000000"/>
    <path d="M-458.81,-311.86L241.89,51.74" fill="none" stroke="#000000"/>
    <path d="M-468.71,-312.04L245.66,45.52" fill="none" stroke="#000000"/>
    <path d="M-478.62,-312.04L245.66,35.52" fill="none" stroke="#000000"/>
    <path d="M-488.51,-311.55L243.61,26.17" fill="none" stroke="#000000"/>
    <path d="M-496.92,-306.63L236.72,18.93" fill="none" stroke="#000000"/>
    <path d="M-501.24,-297.94L227.58,16.46" fill="none" stroke="#000000"/>
    <path d="M-500.13,-288.15L217.58,16.46" fill="none" stroke="#000000"/>
    <path d="M-493.95,-280.64L207.59,16.46" fill="none" stroke="#000000"/>
    <path d="M-484.57,-277.80L199.73,22.05" fill="none" stroke="#000000"/>
    <path d="M-474.65,-277.80L193.42,29.55" fill="none" stroke="#000000"/>
    <path d="M-464.74,-277.80L193.39,39.64" fill="none" stroke="#000000"/>
    <path d="M-456.13,-274.53L193.39,49.64" fill="none" stroke="#000000"/>
    <path d="M-459.96,-266.58L193.39,59.64" fill="none" stroke="#000000"/>
    <path d="M-469.81,-266.36L195.60,68.89" fill="none" stroke="#000000"/>
    <path d="M-479.71,-266.36L202.79,75.84" fill="none" stroke="#000000"/>
    <path d="M-488.91,-268.74L212.23,77.66" fill="none" stroke="#000000"/>
    <path d="M-496.31,-272.12L222.23,77.66" fill="none" stroke="#000000"/>
    <path d="M-500.86,-267.40L232.23,77.66" fill="none" stroke="#000000"/>
    <path d="M-495.68,-259.17L242.23,77.66" fill="none" stroke="#000000"/>
    <path d="M-486.82,-255.16L245.95,71.38" fill="none" stroke="#000000"/>
    <path d="M-476.86,-255L237.74,69.59" fill="none" stroke="#000000"/>
    <path d="M-466.96,-255L227.74,69.59" fill="none" stroke="#000000"/>
    <path d="M-457.07,-255.52L217.74,69.59" fill="none" stroke="#000000"/>
    <path d="M-448.70,-260.51L207.85,69.35" fill="none" stroke="#000000"/>
    <path d="M-444.42,-269.21L201.89,61.74" fill="none" stroke="#000000"/>
    <path d="M-445.63,-278.99L202.03,42.81" fill="none" stroke="#000000"/>
    <path d="M-451.93,-286.42L202.03,32.98" fill="none" stroke="#000000"/>
    <path d="M-522.76,-255L208.02,25.59" fill="none" stroke="#000000"/>
    <path d="M-513.01,-255L217.70,25.24" fill="none" stroke="#000000"/>
    <path d="M-511.48,-263.22L227.53,25.24" fill="none" stroke="#000000"/>
    <path d="M-511.48,-272.97L235.48,29.70" fill="none" stroke="#000000"/>
    <path d="M-511.48,-282.71L237.31,38.78" fill="none" stroke="#000000"/>
    <path d="M-511.48,-292.46L231.51,42.81" fill="none" stroke="#000000"/>
    <path d="M-511.48,-302.21L221.69,42.81" fill="none" stroke="#000000"/>
    <path d="M-511.48,-311.96L211.86,42.81" fill="none" stroke="#000000"/>
    <path d="M-521.23,-311.96L279.36,39.93" fill="none" stroke="#000000"/>
    <path d="M-522.76,-303.74L286.35,33.01" fill="none" stroke="#000000"/>
    <path d="M-522.76,-293.99L293.34,26.09" fill="none" stroke="#000000"/>
    <path d="M-522.76,-284.25L302.35,26.43" fill="none" stroke="#000000"/>
    <path d="M-522.76,-274.50L307.58,34.02" fill="none" stroke="#000000"/>
    <path d="M-522.76,-264.75L316.22,32.83" fill="none" stroke="#000000"/>
    <path d="M-461.32,-289.24L312.64,24.32" fill="none" stroke="#000000"/>
    <path d="M-471.23,-289.24L305.60,17.47" fill="none" stroke="#000000"/>
    <path d="M-481.14,-289.24L296.01,16.46" fill="none" stroke="#000000"/>
    <path d="M-489.67,-292.72L287.40,19.82" fill="none" stroke="#000000"/>
    <path d="M-485.76,-300.63L280.50,26.82" fill="none" stroke="#000000"/>
    <path d="M-475.89,-300.84L276.86,19.98" fill="none" stroke="#000000"/>
    <path d="M-465.98,-300.84L268.58,16.46" fill="none" stroke="#000000"/>
    <path d="M-456.85,-298.47L263.66,21.37" fill="none" stroke="#000000"/>
    <path d="M-449.53,-294.92L269.34,26.35" fill="none" stroke="#000000"/>
    <path d="M-444.79,-299.52L270.74,35.80" fill="none" stroke="#000000"/>
    <path d="M-449.94,-307.74L270.77,45.64" fill="none" stroke="#000000"/>
    <path d="M-458.81,-311.86L270.80,55.47" fill="none" stroke="#000000"/>
    <path d="M-468.71,-312.04L270.83,65.31" fill="none" stroke="#000000"/>
    <path d="M-478.62,-312.04L270.86,75.14" fill="none" stroke="#000000"/>
    <path d="M-488.51,-311.55L277.90,77.82" fill="none" stroke="#000000"/>
    <path d="M-496.92,-306.63L279.36,69.43" fill="none" stroke="#000000"/>
    <path d="M-501.24,-297.94L279.36,59.60" fill="none" stroke="#000000"/>
    <path d="M-500.13,-288.15L279.36,49.76" fill="none" stroke="#000000"/>
    <path d="M-493.95,-280.64L358.42,73.77" fill="none" stroke="#000000"/>
    <path d="M-484.57,-277.80L351.37,80.82" fill="none" stroke="#000000"/>
    <path d="M-474.65,-277.80L344.32,87.86" fill="none" stroke="#000000"/>
    <path d="M-464.74,-277.80L337.27,94.91" fill="none" stroke="#000000"/>
    <path d="M-456.13,-274.53L339.38,101.96" fill="none" stroke="#000000"/>
    <path d="M-459.96,-266.58L346.42,97.86" fill="none" stroke="#000000"/>
    <path d="M-469.81,-266.36L353.47,90.81" fill="none" stroke="#000000"/>
    <path d="M-479.71,-266.36L360.52,83.76" fill="none" stroke="#000000"/>
    <path d="M-488.91,-268.74L367.57,76.71" fill="none" stroke="#000000"/>
    <path d="M-496.31,-272.12L374.62,69.66" fill="none" stroke="#000000"/>
    <path d="M-500.86,-267.40L381.66,62.62" fill="none" stroke="#000000"/>
    <path d="M-495.68,-259.17L386.35,54.41" fill="none" stroke="#000000"/>
    <path d="M-486.82,-255.16L386.35,44.44" fill="none" stroke="#000000"/>
    <path d="M-476.86,-255L386.35,34.48" fill="none" stroke="#000000"/>
    <path d="M-466.96,-255L386.35,24.51" fill="none" stroke="#000000"/>
    <path d="M-457.07,-255.52L384.44,16.46" fill="none" stroke="#000000"/>
    <path d="M-448.70,-260.51L377.71,19.70" fill="none" stroke="#000000"/>
    <path d="M-444.42,-269.21L377.71,29.67" fill="none" stroke="#000000"/>
    <path d="M-445.63,-278.99L377.71,39.63" fill="none" stroke="#000000"/>
    <path d="M-451.93,-286.42L377.71,49.60" fill="none" stroke="#000000"/>
    <path d="M-522.76,-255L374.11,58.08" fill="none" stroke="#000000"/>
    <path d="M-513.01,-255L367.06,65.12" fill="none" stroke="#000000"/>
    <path d="M-511.48,-263.22L360.01,62.98" fill="none" stroke="#000000"/>
    <path d="M-511.48,-272.97L352.96,55.93" fill="none" stroke="#000000"/>
    <path d="M-511.48,-282.71L345.92,48.88" fill="none" stroke="#000000"/>
    <path d="M-511.48,-292.46L342.58,40.30" fill="none" stroke="#000000"/>
    <path d="M-511.48,-302.21L342.58,30.33" fill="none" stroke="#000000"/>
    <path d="M-511.48,-311.96L342.58,20.37" fill="none" stroke="#000000"/>
    <path d="M-521.23,-311.96L336.52,16.46" fill="none" stroke="#000000"/>
    <path d="M-522.76,-303.74L333.94,23.84" fill="none" stroke="#000000"/>
    <path d="M-522.76,-293.99L333.94,33.81" fill="none" stroke="#000000"/>
    <path d="M-522.76,-284.25L333.94,43.78" fill="none" stroke="#000000"/>
    <path d="M-522.76,-274.50L337.40,52.49" fill="none" stroke="#000000"/>
    <path d="M-522.76,-264.75L344.41,59.59" fill="none" stroke="#000000"/>
    <path d="M-461.32,-289.24L351.41,66.68" fill="none" stroke="#000000"/>
    <path d="M-471.23,-289.24L438.77,67.29" fill="none" stroke="#000000"/>
    <path d="M-481.14,-289.24L438.77,57.43" fill="none" stroke="#000000"/>
    <path d="M-489.67,-292.72L438.77,47.57" fill="none" stroke="#000000"/>
    <path d="M-485.76,-300.63L438.77,37.71" fill="none" stroke="#000000"/>
    <path d="M-475.89,-300.84L438.77,27.85" fill="none" stroke="#000000"/>
    <path d="M-465.98,-300.84L446.01,25.24" fill="none" stroke="#000000"/>
    <path d="M-456.85,-298.47L455.87,25.24" fill="none" stroke="#000000"/>
    <path d="M-449.53,-294.92L456.02,16.46" fill="none" stroke="#000000"/>
    <path d="M-444.79,-299.52L446.16,16.46" fill="none" stroke="#000000"/>
    <path d="M-449.94,-307.74L438.77,13.99" fill="none" stroke="#000000"/>
    <path d="M-458.81,-311.86L438.77,4.13" fill="none" stroke="#000000"/>
    <path d="M-468.71,-312.04L438.77,-5.73" fill="none" stroke="#000000"/>
    <path d="M-478.62,-312.04L433.08,-9.90" fill="none" stroke="#000000"/>
    <path d="M-488.51,-311.55L430.13,-2.98" fill="none" stroke="#000000"/>
    <path d="M-496.92,-306.63L430.13,6.87" fill="none" stroke="#000000"/>
    <path d="M-501.24,-297.94L429.85,16.46" fill="none" stroke="#000000"/>
    <path d="M-500.13,-288.15L419.99,16.46" fill="none" stroke="#000000"/>
    <path d="M-493.95,-280.64L412.42,18.74" fill="none" stroke="#000000"/>
    <path d="M-484.57,-277.80L415.77,25.24" fill="none" stroke="#000000"/>
    <path d="M-474.65,-277.80L425.63,25.24" fill="none" stroke="#000000"/>
    <path d="M-464.74,-277.80L430.13,30.60" fill="none" stroke="#000000"/>
    <path d="M-456.13,-274.53L430.13,40.46" fill="none" stroke="#000000"/>
    <path d="M-459.96,-266.58L430.13,50.32" fill="none" stroke="#000000"/>
    <path d="M-469.81,-266.36L430.13,60.18" fill="none" stroke="#000000"/>
    <path d="M-479.71,-266.36L430.21,70.02" fill="none" stroke="#000000"/>
    <path d="M-488.91,-268.74L436.72,77.32" fill="none" stroke="#000000"/>
    <path d="M-496.31,-272.12L446.43,77.94" fill="none" stroke="#000000"/>
    <path d="M-500.86,-267.40L447.70,69.36" fill="none" stroke="#000000"/>
    <path d="M-495.68,-259.17L474.48,78.09" fill="none" stroke="#000000"/>
    <path d="M-486.82,-255.16L483.12,76.85" fill="none" stroke="#000000"/>
    <path d="M-476.86,-255L483.12,66.97" fill="none" stroke="#000000"/>
    <path d="M-466.96,-255L483.12,57.10" fill="none" stroke="#000000"/>
    <path d="M-457.07,-255.52L483.12,47.22" fill="none" stroke="#000000"/>
    <path d="M-448.70,-260.51L484.77,38.05" fill="none" stroke="#000000"/>
    <path d="M-444.42,-269.21L491.89,31.20" fill="none" stroke="#000000"/>
    <path d="M-445.63,-278.99L499.31,25.10" fill="none" stroke="#000000"/>
    <path d="M-451.93,-286.42L509.19,25.10" fill="none" stroke="#000000"/>
    <path d="M-522.76,-255L517.03,30.09" fill="none" stroke="#000000"/>
    <path d="M-513.01,-255L518.40,39.39" fill="none" stroke="#000000"/>
    <path d="M-511.48,-263.22L518.40,49.27" fill="none" stroke="#000000"/>
    <path d="M-511.48,-272.97L518.40,59.14" fill="none" stroke="#000000"/>
    <path d="M-511.48,-282.71L518.40,69.02" fill="none" stroke="#000000"/>
    <path d="M-511.48,-292.46L519.21,78.09" fill="none" stroke="#000000"/>
    <path d="M-511.48,-302.21L527.04,76.04" fill="none" stroke="#000000"/>
    <path d="M-511.48,-311.96L527.04,66.17" fill="none" stroke="#000000"/>
    <path d="M-521.23,-311.96L527.04,56.29" fill="none" stroke="#000000"/>
    <path d="M-522.76,-303.74L527.04,46.41" fill="none" stroke="#000000"/>
    <path d="M-522.76,-293.99L527.04,36.54" fill="none" stroke="#000000"/>
    <path d="M-522.76,-284.25L526.16,26.86" fill="none" stroke="#000000"/>
    <path d="M-522.76,-274.50L519.04,20.01" fill="none" stroke="#000000"/>
    <path d="M-522.76,-264.75L510.35,16.60" fill="none" stroke="#000000"/>
    <path d="M-461.32,-289.24L500.47,16.60" fill="none" stroke="#000000"/>
    <path d="M-471.23,-289.24L491.55,19.25" fill="none" stroke="#000000"/>
    <path d="M-481.14,-289.24L484.57,26.24" fill="none" stroke="#000000"/>
    <path d="M-489.67,-292.72L483.12,19.86" fill="none" stroke="#000000"/>
    <path d="M-485.76,-300.63L483.12,9.98" fill="none" stroke="#000000"/>
    <path d="M-475.89,-300.84L483.12,0.11" fill="none" stroke="#000000"/>
    <path d="M-465.98,-300.84L483.12,-9.77" fill="none" stroke="#000000"/>
    <path d="M-456.85,-298.47L474.48,-10.80" fill="none" stroke="#000000"/>
    <path d="M-449.53,-294.92L474.48,-0.93" fill="none" stroke="#000000"/>
    <path d="M-444.79,-299.52L474.48,8.95" fill="none" stroke="#000000"/>
    <path d="M-449.94,-307.74L474.48,18.83" fill="none" stroke="#000000"/>
    <path d="M-458.81,-311.86L474.48,28.70" fill="none" stroke="#000000"/>
    <path d="M-468.71,-312.04L474.48,38.58" fill="none" stroke="#000000"/>
    <path d="M-478.62,-312.04L474.48,48.46" fill="none" stroke="#000000"/>
    <path d="M-488.51,-311.55L474.48,58.33" fill="none" stroke="#000000"/>
    <path d="M-496.92,-306.63L474.48,68.21" fill="none" stroke="#000000"/>
    <path d="M-501.24,-297.94L570.67,-9.90" fill="none" stroke="#000000"/>
    <path d="M-500.13,-288.15L570.67,-1.11" fill="none" stroke="#000000"/>
    <path d="M-493.95,-280.64L579.46,-1.11" fill="none" stroke="#000000"/>
    <path d="M-484.57,-277.80L579.46,-9.90" fill="none" stroke="#000000"/>
    <path d="M-474.65,-277.80L570.67,16.46" fill="none" stroke="#000000"/>
    <path d="M-464.74,-277.80L570.67,25.83" fill="none" stroke="#000000"/>
    <path d="M-456.13,-274.53L570.67,35.20" fill="none" stroke="#000000"/>
    <path d="M-459.96,-266.58L570.67,44.56" fill="none" stroke="#000000"/>
    <path d="M-469.81,-266.36L570.67,53.93" fill="none" stroke="#000000"/>
    <path d="M-479.71,-266.36L570.67,63.30" fill="none" stroke="#000000"/>
    <path d="M-488.91,-268.74L570.67,72.67" fill="none" stroke="#000000"/>
    <path d="M-496.31,-272.12L574.77,77.94" fill="none" stroke="#000000"/>
    <path d="M-500.86,-267.40L579.46,73.26" fill="none" stroke="#000000"/>
    <path d="M-495.68,-259.17L579.46,63.89" fill="none" stroke="#000000"/>
    <path d="M-486.82,-255.16L579.46,54.52" fill="none" stroke="#000000"/>
    <path d="M-476.86,-255L579.46,45.15" fill="none" stroke="#000000"/>
    <path d="M-466.96,-255L579.46,35.78" fill="none" stroke="#000000"/>
    <path d="M-457.07,-255.52L579.46,26.41" fill="none" stroke="#000000"/>
    <path d="M-448.70,-260.51L579.46,17.04" fill="none" stroke="#000000"/>
    <path d="M-444.42,-269.21L630.58,21.35" fill="none" stroke="#000000"/>
    <path d="M-445.63,-278.99L622.68,16.46" fill="none" stroke="#000000"/>
    <path d="M-451.93,-286.42L615.02,18.56" fill="none" stroke="#000000"/>
    <path d="M-522.76,-255L618.38,24.95" fill="none" stroke="#000000"/>
    <path d="M-513.01,-255L624.10,29.91" fill="none" stroke="#000000"/>
    <path d="M-511.48,-263.22L624.10,39.67" fill="none" stroke="#000000"/>
    <path d="M-511.48,-272.97L624.10,49.42" fill="none" stroke="#000000"/>
    <path d="M-511.48,-282.71L624.10,59.17" fill="none" stroke="#000000"/>
    <path d="M-511.48,-292.46L624.10,68.93" fill="none" stroke="#000000"/>
    <path d="M-511.48,-302.21L624.98,77.80" fill="none" stroke="#000000"/>
    <path d="M-511.48,-311.96L632.74,75.80" fill="none" stroke="#000000"/>
    <path d="M-521.23,-311.96L632.74,66.05" fill="none" stroke="#000000"/>
    <path d="M-522.76,-303.74L632.74,56.29" fill="none" stroke="#000000"/>
    <path d="M-522.76,-293.99L632.74,46.54" fill="none" stroke="#000000"/>
    <path d="M-522.76,-284.25L632.74,36.79" fill="none" stroke="#000000"/>
    <path d="M-522.76,-274.50L635.68,28.21" fill="none" stroke="#000000"/>
    <path d="M-522.76,-264.75L644.04,24.95" fill="none" stroke="#000000"/>
    <path d="M-461.32,-289.24L653.62,25.37" fill="none" stroke="#000000"/>
    <path d="M-471.23,-289.24L659.38,32.66" fill="none" stroke="#000000"/>
    <path d="M-481.14,-289.24L659.38,42.41" fill="none" stroke="#000000"/>
    <path d="M-489.67,-292.72L659.38,52.17" fill="none" stroke="#000000"/>
    <path d="M-485.76,-300.63L659.38,61.92" fill="none" stroke="#000000"/>
    <path d="M-475.89,-300.84L659.38,71.68" fill="none" stroke="#000000"/>
    <path d="M-465.98,-300.84L663.15,77.66" fill="none" stroke="#000000"/>
    <path d="M-456.85,-298.47L667.58,72.33" fill="none" stroke="#000000"/>
    <path d="M-449.53,-294.92L667.58,62.58" fill="none" stroke="#000000"/>
    <path d="M-444.79,-299.52L667.58,52.83" fill="none" stroke="#000000"/>
    <path d="M-449.94,-307.74L667.58,43.07" fill="none" stroke="#000000"/>
    <path d="M-458.81,-311.86L667.58,33.32" fill="none" stroke="#000000"/>
    <path d="M-468.71,-312.04L664.72,24.56" fill="none" stroke="#000000"/>
    <path d="M-478.62,-312.04L657.76,17.72" fill="none" stroke="#000000"/>
    <path d="M-488.51,-311.55L648.31,16.60" fill="none" stroke="#000000"/>
    <path d="M-496.92,-306.63L638.55,16.60" fill="none" stroke="#000000"/>
    <path d="M-501.24,-297.94L733.25,57.64" fill="none" stroke="#000000"/>
    <path d="M-500.13,-288.15L733.25,67.44" fill="none" stroke="#000000"/>
    <path d="M-493.95,-280.64L733.25,77.23" fill="none" stroke="#000000"/>
    <path d="M-484.57,-277.80L728.96,85.25" fill="none" stroke="#000000"/>
    <path d="M-474.65,-277.80L719.66,86.44" fill="none" stroke="#000000"/>
    <path d="M-464.74,-277.80L709.87,86.44" fill="none" stroke="#000000"/>
    <path d="M-456.13,-274.53L702.41,80.80" fill="none" stroke="#000000"/>
    <path d="M-459.96,-266.58L695.48,84.90" fill="none" stroke="#000000"/>
    <path d="M-469.81,-266.36L701.33,91.82" fill="none" stroke="#000000"/>
    <path d="M-479.71,-266.36L709.97,95.08" fill="none" stroke="#000000"/>
    <path d="M-488.91,-268.74L719.76,95.08" fill="none" stroke="#000000"/>
    <path d="M-496.31,-272.12L729.56,95.08" fill="none" stroke="#000000"/>
    <path d="M-500.86,-267.40L737.10,89.21" fill="none" stroke="#000000"/>
    <path d="M-495.68,-259.17L741.89,81.21" fill="none" stroke="#000000"/>
    <path d="M-486.82,-255.16L741.89,71.42" fill="none" stroke="#000000"/>
    <path d="M-476.86,-255L741.89,61.62" fill="none" stroke="#000000"/>
    <path d="M-466.96,-255L741.89,51.82" fill="none" stroke="#000000"/>
    <path d="M-457.07,-255.52L741.89,42.03" fill="none" stroke="#000000"/>
    <path d="M-448.70,-260.51L741.89,32.23" fill="none" stroke="#000000"/>
    <path d="M-444.42,-269.21L738.17,23.79" fill="none" stroke="#000000"/>
    <path d="M-445.63,-278.99L731.21,16.84" fill="none" stroke="#000000"/>
    <path d="M-451.93,-286.42L721.59,16.17" fill="none" stroke="#000000"/>
    <path d="M-522.76,-255L711.79,16.17" fill="none" stroke="#000000"/>
    <path d="M-513.01,-255L702.81,18.54" fill="none" stroke="#000000"/>
    <path d="M-511.48,-263.22L695.91,25.49" fill="none" stroke="#000000"/>
    <path d="M-511.48,-272.97L689.01,32.45" fill="none" stroke="#000000"/>
    <path d="M-511.48,-282.71L685.30,40.89" fill="none" stroke="#000000"/>
    <path d="M-511.48,-292.46L686.43,50.44" fill="none" stroke="#000000"/>
    <path d="M-511.48,-302.21L693.34,57.33" fill="none" stroke="#000000"/>
    <path d="M-511.48,-311.96L700.27,64.26" fill="none" stroke="#000000"/>
    <path d="M-521.23,-311.96L708.34,68.87" fill="none" stroke="#000000"/>
    <path d="M-522.76,-303.74L718.13,68.87" fill="none" stroke="#000000"/>
    <path d="M-522.76,-293.99L726.32,64.57" fill="none" stroke="#000000"/>
    <path d="M-522.76,-284.25L733.25,45.54" fill="none" stroke="#000000"/>
    <path d="M-522.76,-274.50L726.71,52.08" fill="none" stroke="#000000"/>
    <path d="M-522.76,-264.75L720.18,58.61" fill="none" stroke="#000000"/>
    <path d="M-461.32,-289.24L711.61,60.23" fill="none" stroke="#000000"/>
    <path d="M-471.23,-289.24L704.12,56.02" fill="none" stroke="#000000"/>
    <path d="M-481.14,-289.24L697.59,49.48" fill="none" stroke="#000000"/>
    <path d="M-489.67,-292.72L693.94,41.75" fill="none" stroke="#000000"/>
    <path d="M-485.76,-300.63L698.97,34.60" fill="none" stroke="#000000"/>
    <path d="M-475.89,-300.84L705.51,28.07" fill="none" stroke="#000000"/>
    <path d="M-465.98,-300.84L713.40,24.81" fill="none" stroke="#000000"/>
    <path d="M-456.85,-298.47L722.64,24.81" fill="none" stroke="#000000"/>
    <path d="M-449.53,-294.92L730.47,28.22" fill="none" stroke="#000000"/>
    <path d="M-444.79,-299.52L733.25,36.30" fill="none" stroke="#000000"/>
    <path d="M52.85,-1.11L52.85,77.94L113.76,77.94L113.76,69.30L61.63,69.30L61.63,42.81L96.19,42.81L96.19,34.02L61.63,34.02L61.63,7.67L113.76,7.67L113.76,-1.11ZM131.76,28.70L131.76,16.60L123.12,16.60L123.12,29.85C123.12,30.71 123.26,31.29 123.70,32.01L149.76,75.93C150.62,77.37 151.92,78.09 153.50,78.09C155.09,78.09 156.38,77.37 157.25,75.93L183.60,31.58C184.03,30.86 184.18,30.28 184.18,29.42L184.18,16.60L175.54,16.60L175.54,28.26L153.50,65.27ZM201.89,51.74L245.66,51.74L245.66,29.85C245.66,29.13 245.38,27.98 244.37,26.97L235.87,18.04C235.44,17.61 234.29,16.46 232.85,16.46L206.78,16.46C206.06,16.46 204.62,17.03 203.62,18.04L194.83,27.11C194.40,27.54 193.39,28.55 193.39,29.99L193.39,64.84C193.39,65.56 193.54,66.86 194.54,67.86L203.47,76.50C203.90,76.94 205.06,77.66 206.35,77.66L245.95,77.66L245.95,69.59L208.08,69.59L201.89,63.11ZM202.03,42.81L202.03,31.72L208.37,25.24L231.12,25.24L237.31,31.58L237.31,42.81ZM279.36,39.93L294.19,25.24L301.10,25.24L307.58,31.43L307.58,34.02L316.22,34.02L316.22,29.70C316.22,28.41 315.79,27.40 314.93,26.54L305.86,17.75C305.14,16.89 304.13,16.46 302.83,16.46L292.32,16.46C291.17,16.46 290.16,17.03 289.30,17.90L279.36,27.98L279.36,25.24C279.36,20.63 273.17,16.46 270.72,16.46L263.66,16.46L263.66,25.24L266.26,25.24C267.70,25.24 268.56,25.67 269.57,26.54C270.43,27.54 270.72,28.41 270.72,29.70L270.86,77.94L279.36,77.80ZM358.42,73.77L334.80,97.38L340.85,103.43L385.06,59.22C385.92,58.36 386.35,57.35 386.35,56.20L386.35,16.46L377.71,16.46L377.71,54.47L364.61,67.58L342.58,45.54L342.58,16.46L333.94,16.46L333.94,47.27C333.94,48.42 334.37,49.43 335.23,50.30ZM438.77,67.29L438.77,25.24L456.48,25.24L456.48,16.46L438.77,16.46L438.77,-9.90L430.13,-9.90L430.13,16.46L412.42,16.46L412.42,25.24L430.13,25.24L430.13,69.16C430.13,70.31 430.56,71.32 431.42,72.18L435.89,76.65C436.75,77.51 437.76,77.94 438.91,77.94L447.70,77.94L447.70,69.30L440.64,69.30ZM474.48,78.09L483.12,78.09L483.12,39.64L498.24,25.10L511.92,25.10L518.40,31.43L518.40,78.09L527.04,78.09L527.04,29.56C527.04,28.26 526.61,27.26 525.74,26.39L516.67,17.75C515.81,17.03 514.80,16.60 513.65,16.60L496.51,16.60C495.36,16.60 494.35,16.60 493.49,17.32L483.12,27.69L483.12,-10.90L474.48,-10.90ZM570.67,-9.90L570.67,-1.11L579.46,-1.11L579.46,-9.90ZM570.67,16.46L570.67,77.94L579.46,77.94L579.46,16.46ZM630.58,21.35L626.83,17.75C626.40,17.18 625.54,16.46 624.10,16.46L615.02,16.46L615.02,24.95L622.08,24.95L624.67,27.83C624.38,28.55 624.10,29.13 624.10,29.56L624.10,77.80L632.74,77.80L632.74,31.29L638.78,24.95L653.18,24.95L659.38,30.86L659.38,77.66L667.58,77.66L667.58,29.13C667.58,27.69 666.72,26.54 666.29,26.10L657.79,17.75C656.78,16.74 655.63,16.60 654.91,16.60L637.06,16.60C635.62,16.60 634.46,17.46 634.03,17.90ZM733.25,57.64L733.25,80.97L727.78,86.44L708.05,86.44L700.99,79.38L694.94,85.43L703.30,93.78C704.16,94.65 705.31,95.08 706.32,95.08L729.50,95.08C730.66,95.08 731.95,94.50 732.53,93.78L740.59,85.72C741.46,84.86 741.89,83.70 741.89,82.70L741.89,29.27C741.89,28.12 741.31,26.82 740.59,26.25L731.81,17.32C730.94,16.46 729.79,16.17 728.78,16.17L707.04,16.17C705.89,16.17 704.59,16.60 704.02,17.32L686.59,34.89C685.73,35.75 685.30,36.90 685.30,37.91L685.30,47.56C685.30,48.71 685.87,50.01 686.59,50.58L703.58,67.58C704.45,68.44 705.60,68.87 706.61,68.87L720.29,68.87C721.44,68.87 722.74,68.30 723.31,67.58ZM733.25,45.54L718.56,60.23L708.34,60.23L693.94,45.83L693.94,39.64L708.77,24.81L727.06,24.81L733.25,31Z" fill="#ffffff"/>
    <path d="M-522.76,-255L-511.48,-255L-511.48,-311.96L-522.76,-311.96ZM-461.32,-289.24L-484.36,-289.24C-485.91,-289.24 -487.25,-289.80 -488.40,-290.92C-489.55,-292.04 -490.12,-293.37 -490.12,-294.92C-490.12,-295.67 -489.96,-296.39 -489.64,-297.08C-489.32,-297.77 -488.89,-298.40 -488.36,-298.96C-487.83,-299.52 -487.21,-299.97 -486.52,-300.32C-485.83,-300.67 -485.11,-300.84 -484.36,-300.84L-461.32,-300.84C-460.68,-300.84 -460.03,-300.69 -459.36,-300.40C-458.69,-300.11 -458.08,-299.71 -457.52,-299.20C-456.96,-298.69 -456.51,-298.07 -456.16,-297.32C-455.81,-296.57 -455.64,-295.77 -455.64,-294.92L-444.20,-294.92C-444.20,-297.43 -444.67,-299.72 -445.60,-301.80C-446.53,-303.88 -447.79,-305.68 -449.36,-307.20C-450.93,-308.72 -452.76,-309.91 -454.84,-310.76C-456.92,-311.61 -459.08,-312.04 -461.32,-312.04L-484.36,-312.04C-486.71,-312.04 -488.92,-311.60 -491,-310.72C-493.08,-309.84 -494.89,-308.64 -496.44,-307.12C-497.99,-305.60 -499.21,-303.80 -500.12,-301.72C-501.03,-299.64 -501.48,-297.37 -501.48,-294.92C-501.48,-292.57 -501.05,-290.37 -500.20,-288.32C-499.35,-286.27 -498.16,-284.45 -496.64,-282.88C-495.12,-281.31 -493.31,-280.07 -491.20,-279.16C-489.09,-278.25 -486.81,-277.80 -484.36,-277.80L-461.32,-277.80C-459.93,-277.80 -458.64,-277.28 -457.44,-276.24C-456.24,-275.20 -455.64,-273.83 -455.64,-272.12C-455.64,-271.27 -455.83,-270.48 -456.20,-269.76C-456.57,-269.04 -457.04,-268.43 -457.60,-267.92C-458.16,-267.41 -458.77,-267.03 -459.44,-266.76C-460.11,-266.49 -460.73,-266.36 -461.32,-266.36L-484.36,-266.36C-485.85,-266.36 -487.19,-266.95 -488.36,-268.12C-489.53,-269.29 -490.12,-270.63 -490.12,-272.12L-501.48,-272.12C-501.48,-269.72 -501.04,-267.48 -500.16,-265.40C-499.28,-263.32 -498.07,-261.51 -496.52,-259.96C-494.97,-258.41 -493.16,-257.20 -491.08,-256.32C-489,-255.44 -486.76,-255 -484.36,-255L-461.32,-255C-459.03,-255 -456.85,-255.43 -454.80,-256.28C-452.75,-257.13 -450.93,-258.32 -449.36,-259.84C-447.79,-261.36 -446.53,-263.16 -445.60,-265.24C-444.67,-267.32 -444.20,-269.61 -444.20,-272.12C-444.20,-274.57 -444.67,-276.84 -445.60,-278.92C-446.53,-281 -447.77,-282.80 -449.32,-284.32C-450.87,-285.84 -452.68,-287.04 -454.76,-287.92C-456.84,-288.80 -459.03,-289.24 -461.32,-289.24Z" fill="#ffffff"/>
    <path d="M-275.20,311.20L-275.20,296.80L-265.60,268L-241.60,248.80L-232,248.80L-222.40,258.40L-222.40,272.80L-212.80,272.80L-203.20,263.20L-208.00,253.60L-232,244L-246.40,244L-265.60,253.60L-280,268L-289.60,282.40L-294.40,306.40L-284.80,330.40L-265.60,340L-246.40,340L-232,330.40L-217.60,316L-222.40,311.20L-236.80,325.60L-251.20,335.20L-260.80,335.20L-270.40,330.40ZM-188.80,340L-179.20,340L-155.20,325.60L-140.80,296.80L-150.40,277.60L-169.60,272.80L-193.60,287.20L-208,316L-198.40,335.20ZM-169.60,282.40L-160.00,282.40L-155.20,296.80L-164.80,316L-179.20,330.40L-188.80,330.40L-193.60,316L-184,296.80ZM-136,301.60L-131.20,306.40L-107.20,282.40L-102.40,282.40L-131.20,335.20L-126.40,340L-116.80,340L-97.60,301.60L-83.20,287.20L-73.60,282.40L-68.80,287.20L-92.80,330.40L-92.80,335.20L-88,340L-78.40,340L-68.80,335.20L-44.80,311.20L-49.60,306.40L-73.60,330.40L-78.40,330.40L-54.40,292L-54.40,277.60L-68.80,272.80L-83.20,277.60L-97.60,292L-92.80,282.40L-92.80,277.60L-97.60,272.80L-112,277.60ZM-44.80,301.60L-40,306.40L-16,282.40L-11.20,282.40L-40,335.20L-35.20,340L-25.60,340L-6.40,301.60L8,287.20L17.60,282.40L22.40,287.20L-1.60,330.40L-1.60,335.20L3.20,340L12.80,340L22.40,335.20L46.40,311.20L41.60,306.40L17.60,330.40L12.80,330.40L36.80,292L36.80,277.60L22.40,272.80L8,277.60L-6.40,292L-1.60,282.40L-1.60,277.60L-6.40,272.80L-20.80,277.60ZM113.60,296.80L113.60,287.20L108.80,277.60L89.60,272.80L65.60,287.20L51.20,316L56,335.20L65.60,340L75.20,340L84.80,335.20L104,316L99.20,311.20L80,330.40L70.40,330.40L65.60,316L75.20,296.80L89.60,282.40L99.20,282.40L99.20,296.80L89.60,301.60L75.20,301.60L75.20,306.40L99.20,306.40ZM180.80,296.80L180.80,287.20L176.00,277.60L156.80,272.80L132.80,287.20L118.40,316L123.20,335.20L132.80,340L142.40,340L152.00,335.20L171.20,316L166.40,311.20L147.20,330.40L137.60,330.40L132.80,316L142.40,296.80L156.80,282.40L166.40,282.40L166.40,296.80ZM195.20,330.40L219.20,282.40L233.60,282.40L233.60,277.60L219.20,277.60L228.80,258.40L219.20,258.40L214.40,272.80L204.80,277.60L195.20,277.60L195.20,282.40L204.80,282.40L180.80,330.40L180.80,335.20L185.60,340L195.20,340L204.80,335.20L228.80,311.20L224,306.40L200,330.40ZM300.80,296.80L300.80,287.20L296,277.60L276.80,272.80L252.80,287.20L238.40,316L243.20,335.20L252.80,340L262.40,340L272,335.20L291.20,316L286.40,311.20L267.20,330.40L257.60,330.40L252.80,316L262.40,296.80L276.80,282.40L286.40,282.40L286.40,296.80L276.80,301.60L262.40,301.60L262.40,306.40L286.40,306.40ZM348.80,340L353.60,340L363.20,335.20L387.20,311.20L382.40,306.40L358.40,330.40L353.60,330.40L396.80,239.20L363.20,239.20L363.20,244L377.60,244L363.20,287.20L358.40,277.60L339.20,272.80L315.20,292L305.60,316L310.40,335.20L320,340L329.60,340L344,325.60L344,335.20ZM329.60,330.40L324.80,330.40L320,316L329.60,296.80L344,282.40L353.60,282.40L358.40,292L358.40,296.80L344,316Z" fill="#ffffff"/>
</svg>