<svg xmlns="http://www.w3.org/2000/svg" xmlns:xlink="http://www.w3.org/1999/xlink" width="100" height="100" viewBox="0 0 100 100"><g><g transform="translate(50 50) scale(0.69 0.69) rotate(0) translate(-50 -50)" style="fill:#000000"><svg fill="#000000" xmlns="http://www.w3.org/2000/svg" xmlns:xlink="http://www.w3.org/1999/xlink" version="1.1" x="0px" y="0px" viewBox="0 0 128 128" style="enable-background:new 0 0 128 128;" xml:space="preserve"><path d="M96.2313843,11.4569702c-12.7539063-3.484314-25.4857788-3.0145874-36.8182983,1.359436  c-0.2714844,0.1054688-0.6182251,0.2851563-1.3139648,0.6503906c-0.6328125,0.3330078-2.0097046,1.0546875-2.6831055,1.3056641  C16.0917969,2.3729858,1.5668945,10.7246094,0.9663086,11.0878906c-0.7319336,0.4414063-1.1019897,1.2998047-0.9208984,2.1356812  c0.1811523,0.835022,0.8731079,1.4628906,1.722168,1.5625c0.6171875,0.0723267,61.2661133,7.6289063,71.3535156,48.3135376  c-4.3817749,4.1923828-23.1542969,23.6454468-27.1030273,52.6308594c-0.1489868,1.093689,0.6176147,2.1025391,1.7119141,2.2509155  C47.8217773,117.9940796,47.9125977,118,48.0023804,118c0.9849243,0,1.8428345-0.7275391,1.9794922-1.7305298  c3.6187134-26.5634155,20.8164063-45.2215576,25.4956055-49.8651733  c5.7115479,2.6123047,29.3212891,14.4765625,32.3765259,33.2675781c-3.4224243,2.2802124-17.0288086,9.7841797-41.4268188,4.4472046  c-1.0794678-0.234314-2.1450195,0.4483032-2.3807983,1.5274048c-0.2362671,1.078125,0.4473267,2.1444702,1.5264282,2.3807983  c6.5111694,1.4238892,12.3041992,1.9854126,17.3983765,1.9854126c18.5889282-0.0010376,27.8270874-7.4882813,28.3109741-7.8916016  c0.5171509-0.4326172,0.7823486-1.0957031,0.7046509-1.765625c-2.5244141-21.7675781-28.4092407-34.703186-34.840332-37.5957031  c-4.2686157-18.1845703-18.5380859-32.9190063-41.3203125-42.6337891  c-9.324707-3.9765625-18.2216797-6.3565063-24.5175781-7.7138672c7.527771-0.9082031,20.6298828-0.5928345,40.9638672,5.5849609  c0.1308594,0.2294922,0.3086548,0.4375,0.5322266,0.6063843c0.0327148,0.0244141,3.2714844,2.5137329,3.1937866,6.3565063  C55.9760742,26.0634766,56.8535156,26.977478,57.9575195,27c0.0141602,0,0.0273438,0,0.0415039,0  c1.0854492,0,1.9765625-0.8691406,1.9985962-1.960022c0.05896-2.9326172-1.0611572-5.2792969-2.2364502-6.9276733  c0.6138306-0.2842407,1.3223267-0.6445313,2.1968384-1.1035156c0.4110718-0.2158203,0.7445679-0.3955078,0.8955078-0.460022  c10.5302734-4.0664063,22.3979492-4.4912109,34.3233032-1.2333984c4.1825562,1.1436157,7.836853,2.9960938,11.0301514,5.3233032  c-0.1615601,0.1738281-0.2987671,0.3740234-0.3934937,0.6063843c-2.2520142,5.5234985-2.9281616,10.2324219-2.1283569,14.8203125  c0.1507568,0.8662109,0.3275757,1.7266235,0.5039063,2.5811157c0.8006592,3.8916016,1.4925537,7.2518921-0.3736572,10.5184937  c-3.7338867,6.5352173-11.0223389,9.2861938-18.3426514,11.2861938c-0.7984009,0.218689-1.3799438,0.906189-1.4629517,1.7304077  c-0.0825806,0.8233032,0.3510132,1.6123047,1.090332,1.9854126c0.0731812,0.0371094,3.6538086,1.7783203,9.0219727,1.7783203  c5.7646484,0,13.590332-2.0098267,21.3388062-10.2978516c0.7543945-0.8076782,0.7120361-2.0733032-0.0952148-2.8271484  c-0.8075562-0.7539063-2.0736694-0.7109375-2.8265991,0.0946655c-7.1225586,7.6192017-14.0551758,9.256897-18.9335938,9.1065063  c5.5366211-2.1776733,10.5336914-5.3604126,13.6831055-10.8720703c2.6152344-4.5791016,1.7015991-9.0166016,0.8182983-13.3086548  c-0.1678467-0.8153687-0.3374023-1.6366577-0.4813843-2.4628906c-0.652771-3.7440796-0.1143188-7.5214844,1.7202148-12.171814  c7.5473633,6.8798218,12.0811157,16.4716187,14.7539063,24.6171265c0.3441772,1.0488892,1.4740601,1.6171875,2.5238647,1.2764282  c1.0498047-0.3447266,1.6210938-1.4746094,1.2769165-2.5244141  C123.5487671,33.3153687,114.5219727,16.4589844,96.2313843,11.4569702z"></path><path d="M93.5415039,27.843811C90.3798828,24.0205078,86.2963867,22,81.7313843,22  c-4.8510132,0-8.6166992,2.2675781-8.7744141,2.3642578c-0.4838867,0.2958984-0.8197632,0.7832031-0.9232788,1.3408203  s0.0341797,1.1328125,0.3793945,1.5830078C75.8305664,31.7412109,79.8021851,34,84.2182617,34  c5.1738281,0,8.9399414-3.2373047,9.0976563-3.3760376C94.1317749,29.9110718,94.2318726,28.6787109,93.5415039,27.843811z   M84.2182617,30c-2.4521484,0-4.7778931-1.0791016-6.9375-3.2128906C78.4619141,26.3789063,80.0194702,26,81.7313843,26  c2.6807251,0,5.0820923,0.9287109,7.1630859,2.7675781C87.7290039,29.3770142,86.0830078,30,84.2182617,30z"></path><ellipse transform="matrix(0.9359673 -0.3520869 0.3520869 0.9359673 -9.2802734 44.9719505)" cx="119.0001221" cy="48" rx="1.9996445" ry="1.9991015"></ellipse><ellipse transform="matrix(0.9359673 -0.3520869 0.3520869 0.9359673 -40.6492271 24.4881783)" cx="47.0001221" cy="124" rx="1.9996445" ry="1.9991015"></ellipse></svg></g></g></svg>