<svg xmlns="http://www.w3.org/2000/svg" xmlns:xlink="http://www.w3.org/1999/xlink" width="100" height="100" viewBox="0 0 100 100"><g><g transform="translate(50 50) scale(0.69 0.69) rotate(0) translate(-50 -50)" style="fill:#000000"><svg fill="#000000" xmlns="http://www.w3.org/2000/svg" data-name="Layer 1" viewBox="0 0 128 128" x="0px" y="0px"><title>38 wild life final black </title><path d="M128,47.62a1.94,1.94,0,0,0,0-1c-4.35-13.26-13.38-30.12-31.67-35.12a64.84,64.84,0,0,0-8.42-1.72,59,59,0,0,0-18,.22,54.31,54.31,0,0,0-10.44,2.86l-.18.07c-.18.08-.41.2-.73.37l-.4.21c-.4.21-1.1.57-1.73.88-.36.17-.7.33-1,.42C24.6,5,9,8.08,3.43,10A13.78,13.78,0,0,0,1,11.09a2,2,0,0,0-.5.42A2,2,0,0,0,0,12.65a1.83,1.83,0,0,0,0,.57,2,2,0,0,0,.61,1.06,1.94,1.94,0,0,0,1.11.51c.61.07,61.26,7.62,71.35,48.31-.91.87-2.43,2.39-4.31,4.52C61.61,75.75,48.27,93,47.33,116.17c-.5,12.5,77.23,10,80.56,10.06C127.76,118.62,128.3,63.18,128,47.62ZM58,27h0a2,2,0,0,1-2-2c.08-3.84-3.16-6.33-3.2-6.36a2,2,0,0,1-.53-.6l2.38.72c.81.26,1.67.06,3.11-.61A11.45,11.45,0,0,1,60,25,2,2,0,0,1,58,27Zm30.89,1.77A10,10,0,0,1,83.39,30a10.14,10.14,0,0,1-6.12-3.18A11.32,11.32,0,0,1,88.89,28.77Zm22.39,73.35c-.48.4-9.72,7.89-28.31,7.89a81.62,81.62,0,0,1-17.4-2,2,2,0,0,1,.86-3.91c24.4,5.34,38-2.17,41.42-4.45C104.8,80.88,81.19,69,75.48,66.4c.72-.71,1.15-1.1,1.18-1.13a2,2,0,0,0,.63-1.93c0-.19-.1-.38-.14-.58,6.44,2.9,32.31,15.83,34.84,37.6A2,2,0,0,1,111.28,102.12Zm4.18-46.47C107.71,63.94,99.89,66,94.12,66a22.18,22.18,0,0,1-9-1.78,2,2,0,0,1-1.09-2,2,2,0,0,1,1.46-1.73c7.32-2,14.61-4.75,18.35-11.28,1.86-3.27,1.17-6.63.37-10.52-.18-.86-.35-1.72-.5-2.58-.8-4.59-.13-9.3,2.12-14.82a2,2,0,0,1,.4-.61,37,37,0,0,1,3.14,2.57c-1.84,4.65-2.38,8.42-1.72,12.17.14.82.31,1.65.48,2.46.88,4.29,1.79,8.73-.82,13.31-3.15,5.51-8.15,8.69-13.68,10.87,4.87.15,11.81-1.49,18.93-9.1a2,2,0,1,1,2.92,2.73Zm4.24-5.78a2,2,0,1,1,1.17-2.57A2,2,0,0,1,119.7,49.87Z"></path><path d="M128,126.23s0,0-.11,0C127.91,127.34,128,127.43,128,126.23Z"></path></svg></g></g></svg>