<svg xmlns="http://www.w3.org/2000/svg" xmlns:xlink="http://www.w3.org/1999/xlink" width="100" height="100" viewBox="0 0 100 100"><g><g transform="translate(50 50) scale(0.69 0.69) rotate(0) translate(-50 -50)" style="fill:#000000"><svg fill="#000000" xmlns="http://www.w3.org/2000/svg" xmlns:xlink="http://www.w3.org/1999/xlink" version="1.1" x="0px" y="0px" viewBox="0 0 50 50" enable-background="new 0 0 50 50" xml:space="preserve"><g><path d="M19.2,13.3c-0.4,0.9-0.8,2-1.3,3.3c-1.4,0.8-8.4,5-10.2,12.7c-0.1,0.5,0,0.9,0.4,1.3c0.2,0.2,0.5,0.3,0.8,0.3   c0.2,0,0.3,0,0.5-0.1l6.2-2.7c-0.1,1.8-0.2,3.8-0.2,6l0,0.8c0,3.3,0,6.4,1.4,7.9c0.5,0.5,1.2,0.8,1.9,0.8c1.3,0,2.6-0.3,3.7-0.6   c0.9-0.2,1.8-0.5,2.5-0.5s1.6,0.2,2.5,0.5c1.1,0.3,2.4,0.6,3.7,0.6c0.7,0,1.4-0.3,1.9-0.8c1.4-1.4,1.4-4.6,1.4-7.9l0-0.8   c0-2.2-0.1-4.2-0.2-6l6.2,2.7c0.2,0.1,0.3,0.1,0.5,0.1c0.3,0,0.6-0.1,0.8-0.3c0.4-0.3,0.5-0.8,0.4-1.3c-1.9-7.7-8.9-11.9-10.2-12.7   c-0.5-1.3-0.9-2.4-1.3-3.3c-0.6-1.4-1-2.4-1-3.2c0-3.4,0-7.3-4.8-7.3c-2.2,0-3.4,0.8-4,2.1c-1.7-0.8-3.6-0.8-3.8-0.8   c-0.7,0-1.2,0.6-1.2,1.3c0,0.7,0.6,1.2,1.3,1.2c0,0,0,0,0,0c0.6,0,2.2,0.1,3.2,0.8c-0.1,0.9-0.1,1.8-0.1,2.8   C20.2,10.9,19.8,11.9,19.2,13.3z M11,27.3c1.5-3.2,3.9-5.5,5.8-6.9c-0.3,1.4-0.6,3-0.9,4.8L11,27.3z M39,27.3L34,25.1   c-0.2-1.8-0.5-3.4-0.9-4.8C35,21.7,37.5,24.1,39,27.3z M25,5.3c1.9,0,2.2,0.7,2.2,4.8c0,1.3,0.5,2.6,1.2,4.2   c1.4,3.4,3.6,8.5,3.6,19.8l0,0.8c0,2.2,0,5.4-0.7,6.1c0,0,0,0-0.1,0c-1,0-2.1-0.3-3.1-0.5c-1-0.3-2.1-0.5-3.1-0.5s-2.1,0.3-3.1,0.5   c-1,0.3-2.1,0.5-3.1,0.5c-0.1,0-0.1,0-0.1,0c-0.7-0.7-0.7-4-0.7-6.1l0-0.8c0-11.3,2.2-16.4,3.6-19.8c0.7-1.6,1.2-2.9,1.2-4.2   C22.7,5.9,23.1,5.3,25,5.3z"></path><path d="M22.1,44.4c0,0-0.7,0.4-1.9,0.4c-1.2,0-1.9-0.4-1.9-0.4c-0.6-0.3-1.4-0.1-1.7,0.5c-0.3,0.6-0.1,1.4,0.5,1.7   c0.1,0.1,1.3,0.7,3.1,0.7s3-0.6,3.1-0.7c0.6-0.3,0.8-1.1,0.5-1.7C23.5,44.2,22.7,44,22.1,44.4z"></path><path d="M31.6,44.4c0,0-0.7,0.4-1.9,0.4c-1.2,0-1.9-0.4-1.9-0.4c-0.6-0.3-1.4-0.1-1.7,0.5c-0.3,0.6-0.1,1.4,0.5,1.7   c0.1,0.1,1.3,0.7,3.1,0.7c1.8,0,3-0.6,3.1-0.7c0.6-0.3,0.8-1.1,0.5-1.7C33,44.2,32.2,44,31.6,44.4z"></path></g></svg></g></g></svg>