<svg xmlns="http://www.w3.org/2000/svg" xmlns:xlink="http://www.w3.org/1999/xlink" width="100" height="100" viewBox="0 0 100 100"><g><g transform="translate(50 50) scale(0.69 0.69) rotate(0) translate(-50 -50)" style="fill:#000000"><svg fill="#000000" xmlns="http://www.w3.org/2000/svg" xmlns:xlink="http://www.w3.org/1999/xlink" version="1.1" x="0px" y="0px" viewBox="0 0 144.083 144" enable-background="new 0 0 144.083 144" xml:space="preserve"><path d="M72.042,13.167c-26.906,0-48.797,21.89-48.797,48.796v20.075c0,26.905,21.891,48.795,48.797,48.795  s48.796-21.89,48.796-48.795V61.963C120.837,35.057,98.948,13.167,72.042,13.167z M61.996,78.249  c2.764-1.805,6.276-3.41,10.046-3.41c3.743,0,7.253,1.605,10.021,3.41H61.996z M82.063,84.249c-2.769,1.805-6.278,3.41-10.021,3.41  s-7.254-1.605-10.022-3.41H82.063z M72.042,124.833c-12.471,0-23.71-5.364-31.539-13.903c0.014-0.117,0.035-0.231,0.035-0.353  V61.963c0-11.673,4.552-17.843,13.163-17.843c14.016,0,15.332,23.709,15.344,23.945c0.017,0.347,0.101,0.672,0.224,0.978  c-9.916,1.411-17.331,9.854-17.669,10.244l-1.697,1.962l1.696,1.962c0.369,0.427,9.164,10.448,20.443,10.448  c11.278,0,20.073-10.021,20.442-10.448l1.696-1.962l-1.696-1.962c-0.338-0.391-7.754-8.833-17.67-10.244  c0.123-0.305,0.208-0.631,0.224-0.978c0.012-0.239,1.286-23.945,15.647-23.945c10.628,0,12.859,9.703,12.859,17.843v49.005  C95.717,119.484,84.494,124.833,72.042,124.833z"></path><circle cx="51.339" cy="66.178" r="5.058"></circle><circle cx="92.744" cy="66.178" r="5.058"></circle></svg></g></g></svg>