<svg xmlns="http://www.w3.org/2000/svg" xmlns:xlink="http://www.w3.org/1999/xlink" width="100" height="100" viewBox="0 0 100 100"><g><g transform="translate(50 50) scale(0.69 0.69) rotate(0) translate(-50 -50)" style="fill:#000000"><svg fill="#000000" xmlns="http://www.w3.org/2000/svg" xmlns:xlink="http://www.w3.org/1999/xlink" version="1.1" x="0px" y="0px" viewBox="0 0 100 100" style="enable-background:new 0 0 100 100;" xml:space="preserve"><g><path d="M46.7,69.7c0,0,0-0.7-1-2c-1-1.3-3.4-8.5-3.4-8.5l-0.7,0.3l-1.3,6.9l2,3.5c0,0,0.1,1.7,1.6,2.2c1.5,0.4,3.9,7,4.1,7.9   c0.1,0.9-0.4,2.9-0.7,3.4c-0.3,0.4-2,1.5-1.6,2c0.4,0.6,5.2,0.1,5.2,0.1s0.3-0.3,0.3-2c0-1.7,0.4-2.9,0.7-3.5l0.4-0.5   c0.3-0.4,0.3-0.9,0-1.3C51,76.6,47.7,72.8,46.7,69.7z"></path><path d="M81.7,60.8c-1-3.2-4.2-6.7-4.2-6.7l-4.4,2.3l-1.3,0.7c0,0,3.5,1.6,5.7,7.7c2.2,6.1-0.6,9.5-2.9,14.3   c-2.3,4.8-3.8,5.7-3.8,6.4c0,0.7,1.3,0.7,1.3,0.7h2.2c0.7,0,1.4-0.5,1.5-1.3l0.5-3l0.2,0.1c0.7,0.3,1.5-0.2,1.7-0.9   c2.2-8.9,7.3-13.4,6.4-14.4C83.7,65.7,81.7,60.8,81.7,60.8z"></path><path d="M95.7,46.4c-0.3-0.9-0.1-9.3-2.2-13c-2-3.6-7.4-5-7.4-5v0v0c-7.6-3.2-6-2-13.7-2.8c-7.7-0.7-18.5-0.7-18.5-0.7   s-4.4-2.5-9-4.2c-3.2-1.2-9.8-1.9-15.6-2c-0.5,1.8-2.3,2.9-4.8,2.9c-0.6,0-1.1-0.1-1.4-0.2c-0.3-0.1-0.6-0.1-1-0.1   c-0.6,0-1.1,0.2-1.3,0.4c-0.5,0.7-1.5,1.2-2.8,1.2c-1.7,0-3.6-0.7-4.3-2.2c-0.3-0.6-0.4-1.2-0.3-1.8c-0.9,0.4-2.1,1.3-3.1,3.1   c-1.7,3.2-2.3,4.1-2.5,5.4c-0.1,1.3-0.7,12-0.7,12s0.1,0.8,0.2,1.7c0.6,0.1,2.4,0.5,2.8,0.4c0.4-0.1,0.4,1.2-0.1,2   C9.6,44,8.4,44,7.4,43.6c0.5,1,2.7,2.5,2.7,2.5s2.8,0.3,3.5-1c0,0,3.5-3.9,6-2.3c2.5,1.6,5.5,3.2,6.1,3.8c0.6,0.6-7-2.8-7.9-2.9   c-0.6-0.1-2.4,1.7-3.5,2.9c0.8,1.6,1.8,4,1.7,4.7c0.7-1.5,1-4.4,0.9-4.5c0,0,1.4,4.4,1,7.9c0.1-0.1,1.5-3.2,1.4-4.9   c0,0,0.9,4,0.9,6.9c0,0,1-3.5,1-5.2c0,0,1.5,5.1,1.5,7.7c0,0,1.5-5.4,1.5-6.9c0,0,2.6,1.7,4.2,3.2c1.6,1.5,3.5,3.5,4.7,3.6   c0,0-0.1-3.1-1.6-6.6c0,0,1.9,2.6,2.5,5.8c0.6,3.2,0.1,9.9,0.1,9.9s-0.3,0.7,0.1,3.4c0.3,1.7,1,8,0.3,12.2c0,0-1.2,1.9-1.9,2.6   c-0.7,0.7-1,1.6,1,1.6s5.1,0.6,4.8-0.9c-0.3-1.5-0.9-4.2-0.1-4.8l0.2,0c0.6-0.1,1-0.7,0.8-1.2c-0.6-1.7-1.7-5.2-1.5-8.7   c0,0,0.6-2.5,0.6-3.9c0-1.5,2.5-13.3,3.4-14.7V58c0,0,2.6-0.1,4.2-0.1c1.6,0,10.5,3.5,17.3,1.2c6.9-2.3,14.7-7.1,14.7-7.1   s2.9,3.8,5,7.6c2,3.8,4.4,6.7,5.1,9c0.7,2.3,0.9,10.4,0.9,13.7c0,3.4-2.3,6-2.3,6s-1.3,0.7-0.4,1.3c0.9,0.6,6.4,0.4,6.4-0.4   c0-0.9-0.6-3.2-0.1-3.4c0,0,0.1,0,0.2,0c0.7-0.2,1-1,0.7-1.6c-0.5-0.9-1-2.2-1-3c0-1.6,0.7-10.4,2.5-14.9c0,0,0.6-1.6-0.6-2.8   c-1.2-1.2-5.3-7.5-3.6-14.7c0.8-3.6,1.6-8.2,1-12.1c1.6,3.9,1.9,10.1,1.9,10.1l-1,9.9c0,0,0.7,1.5,1.3,3.4c0.6,1.9,3.9,3.4,3.9,3.4   C98.6,59.9,96,47.2,95.7,46.4z M13.9,28.5c-0.5,0-0.9-0.4-0.9-0.9c0-0.5,0.4-0.9,0.9-0.9s0.9,0.4,0.9,0.9   C14.8,28.1,14.4,28.5,13.9,28.5z M28.2,26.9c-0.1,0.2-0.1,0.3-0.2,0.4c-0.3,0.4-0.6,0.5-0.9,0.7c-0.6,0.4-1.2,0.6-1.7,0.8   c-0.5,0.2-0.9,0.4-1.2,0.5c-0.3,0.1-0.5,0.2-0.5,0.2s0.6-0.4,1.5-1c0.4-0.3,1-0.7,1.5-1.1c0.2-0.2,0.5-0.4,0.6-0.6c0,0,0,0,0,0   L27,26.3c-0.3-0.6-0.8-0.9-1.4-1.1c-0.3-0.1-0.5-0.2-0.8-0.2c-0.3-0.1-0.5-0.1-0.8-0.1c0,0-0.2,0-0.1,0c0,0,0,0-0.1,0   c-0.1,0-0.1,0-0.2,0c-0.1,0-0.3,0.1-0.4,0.1c-0.2,0.1-0.4,0.3-0.4,0.3c0,0-0.2-0.2-0.2-0.6c0-0.2,0.1-0.5,0.4-0.7   c0.1-0.1,0.3-0.2,0.4-0.3c0.1,0,0.2-0.1,0.3-0.1c0.2,0,0.1,0,0.3,0c0.3,0,0.6,0.1,0.9,0.1c0.3,0.1,0.7,0.2,1,0.3   c0.4,0.2,0.7,0.4,1,0.7c0.3,0.3,0.5,0.6,0.7,1c0.1,0.2,0.2,0.3,0.2,0.5c0,0,0.1,0.2,0.1,0.3C28.3,26.7,28.2,26.8,28.2,26.9z"></path><path d="M96,68.1c0,0-1.5,6.4-1.5,7.3c0,0.9-0.3,4.2-0.3,4.2s1.5-3.6,1.7-4.8c-0.2,1.3-0.8,6.6-0.5,7.4c0,0,2.3-11.5,2.3-12.7   c0-1.2-0.1-4.5-0.1-4.5L96,68.1z"></path><path d="M9.5,20.4c0,0,2.1-2.5,3.7-2.8c0,0,1-1.7,2.5-1.9c0,0-0.9-0.7-3.1-0.6c-2.2,0.1-2.4,1.3-2.9,1.4c-0.5,0.1-1.6-1.8-0.2-4.3   l1.7-1.9c0,0-3.6,0.9-4.5,4.8S9.5,20.4,9.5,20.4z"></path><path d="M2,22.7c0.5,1,1.5,1.4,1.5,2s3,2.5,3,2.5C6.4,25.5,8,23.1,8,23.1C6.5,22.2,2,22.7,2,22.7z"></path><path d="M14.6,20.3c0.5,1,2,1.5,3.3,1.5c0.8,0,1.6-0.2,1.8-0.6c0.4-0.7,1.4-0.9,2.2-0.9c0.5,0,0.9,0.1,1.3,0.2   c0.3,0.1,0.7,0.1,1.1,0.1c1.5,0,3.8-0.5,3.8-2.8c0-2.2-2.1-5.3-3.3-6.8c-0.1-0.1-0.1-0.1-0.2-0.1c-0.1,0-0.3,0.1-0.3,0.3   c0.4,2.1,1.2,6.6-0.2,6.6c-0.1,0-0.2,0-0.4-0.1c-1.5-0.6-3.1-1.5-4.9-1.5c-1,0-2.1,0.3-3.4,1.1C15.7,17.1,13.9,18.6,14.6,20.3z"></path></g></svg></g></g></svg>