<svg xmlns="http://www.w3.org/2000/svg" xmlns:xlink="http://www.w3.org/1999/xlink" width="100" height="100" viewBox="0 0 100 100"><g><g transform="translate(50 50) scale(0.69 0.69) rotate(0) translate(-50 -50)" style="fill:#000000"><svg fill="#000000" xmlns="http://www.w3.org/2000/svg" xmlns:xlink="http://www.w3.org/1999/xlink" version="1.1" x="0px" y="0px" viewBox="0 0 100 100" style="enable-background:new 0 0 100 100;" xml:space="preserve"><g><path d="M14.3,26.3c-0.8,0-1.5,0.7-1.5,1.5c0,0.8,0.7,1.5,1.5,1.5c0.8,0,1.5-0.7,1.5-1.5C15.8,27,15.2,26.3,14.3,26.3z M14.3,28.2   c-0.2,0-0.3-0.2-0.3-0.3c0-0.2,0.2-0.3,0.3-0.3c0.2,0,0.3,0.2,0.3,0.3C14.7,28,14.5,28.2,14.3,28.2z"></path><path d="M95.8,46.2c-0.1-0.2-0.1-1.1-0.2-1.9c-0.2-3.1-0.5-8.3-2-11c-2-3.6-7.1-5-7.7-5.2c-5.5-2.3-6.2-2.4-9.1-2.5   c-1.1,0-2.5-0.1-4.6-0.3c-7.1-0.7-16.9-0.7-18.2-0.7c-0.8-0.4-4.7-2.6-8.9-4.1c-3.5-1.3-10.4-1.9-15.6-2l-0.5,0c0-0.2,0-0.3,0-0.5   c0-2.3-2.1-5.4-3.4-7.1c-0.3-0.4-1-0.4-1.3,0c-0.2,0.2-0.2,0.4-0.2,0.7c0.9,4.3,0.6,5.7,0.4,5.8c0,0-0.1,0-0.1,0   c-0.3-0.1-0.6-0.3-0.9-0.4c-1.3-0.6-2.6-1.1-4.1-1.1c-0.7,0-1.3,0.1-1.9,0.3l-1-0.7c-0.1-0.1-1.1-0.8-3.5-0.7   c-1.8,0.1-2.5,0.8-2.9,1.2c0,0,0,0,0,0c-0.3-0.4-0.6-1.7,0.3-3.2l1.6-1.9c0.2-0.2,0.2-0.5,0.1-0.7C12,10.1,11.7,10,11.5,10   c-0.2,0-3.9,1-4.8,5.1c-0.8,3.4,1.7,5.4,3.1,6l0.8,0.4c-0.1,0.1-0.2,0.3-0.3,0.4c-0.2,0.4-0.4,0.8-0.6,1.1l-0.9-0.3   c-1.7-0.9-5.8-0.5-6.2-0.4c-0.2,0-0.3,0.1-0.4,0.3c-0.1,0.2-0.1,0.4,0,0.5c0.3,0.5,0.6,0.9,0.9,1.2c0.2,0.2,0.4,0.4,0.4,0.6   c0,0.2,0,1,3.3,3l0.9,0.5C7.4,31.3,7,39.1,7,39.4c0,0,0,0.1,0,0.1c0,0,0.1,0.7,0.2,1.6c-0.2,0.4-0.5,1.5,0.2,2.8c0,0,0,0,0,0   c0,0,0,0,0,0c0,0,0,0,0,0c0,0,0,0,0,0C8,45,10,46.4,10.3,46.6c0,0,0.1,0.1,0.1,0.1c0,0,0,0,0,0c0,0,0.1,0,0.1,0   c0.3,0,2.2,0.2,3.4-0.6c1.4,2.9,2,4.7,2,5c-0.1,0.3,0.1,0.6,0.4,0.7c0.3,0.1,0.6,0,0.7-0.3c0.2-0.5,0.4-1.1,0.5-1.7   c0.3,1.5,0.5,3.3,0.3,4.8c0,0.2,0.1,0.5,0.3,0.6c0.2,0.1,0.5,0,0.7-0.2c0.1-0.1,0.5-1.1,0.9-2.2c0.2,1.2,0.4,2.7,0.4,3.9   c0,0.3,0.2,0.5,0.5,0.6c0.3,0,0.5-0.1,0.6-0.4c0-0.1,0.3-1.2,0.6-2.4c0.4,1.6,0.7,3.5,0.7,4.7c0,0.3,0.2,0.5,0.5,0.6   c0.3,0,0.5-0.1,0.6-0.4c0.1-0.5,1.1-3.9,1.4-5.9c0.9,0.6,2.3,1.7,3.3,2.6c0.3,0.3,0.7,0.6,1,0.9c1.5,1.4,2.8,2.7,3.9,2.8   c0,0,0.1,0,0.1,0l0.4,0c0.3,3.1,0,7.8,0,8.5c-0.1,0.3-0.2,1.3,0.1,3.5c0.3,1.8,1,7.8,0.3,11.8c-0.4,0.6-1.2,1.9-1.7,2.4   c-0.8,0.8-0.8,1.4-0.6,1.7c0.3,0.7,1.3,0.8,2,0.8c0.4,0,0.9,0,1.4,0.1c1.6,0.1,3,0.2,3.7-0.5c0.2-0.2,0.4-0.5,0.2-1.1l0-0.1   c0-0.1,0-0.2,0-0.3c0-0.1,0-0.2-0.1-0.3c0,0,0,0,0,0c-0.4-2.3-0.4-3.1-0.3-3.4l0,0c0.5,0,0.9-0.3,1.1-0.7c0.2-0.4,0.3-0.9,0.1-1.3   c-0.6-1.7-1.6-5-1.4-8.3c0.1-0.4,0.6-2.6,0.6-4c0-0.4,0.1-1.2,0.3-2.4l0.4,0.4l1.9,3.3c0.1,0.5,0.4,2.1,2,2.5   c1,0.3,3.4,6.2,3.6,7.3c0.1,0.7-0.4,2.6-0.6,2.9c-0.1,0.1-0.3,0.3-0.5,0.4c-0.7,0.6-1.7,1.4-1.1,2.3c0.1,0.2,0.4,0.5,2.6,0.5   c0.8,0,1.8,0,3.1-0.2c0,0,0,0,0.1,0c0,0,0,0,0.1,0c0,0,0,0,0,0c0,0,0.1,0,0.1-0.1c0,0,0,0,0.1,0c0,0,0,0,0,0   c0.3-0.3,0.5-1.1,0.5-2.4c0-1.6,0.4-2.6,0.6-3.1l0.4-0.4c0.5-0.6,0.5-1.5,0-2c-1.3-1.4-4.5-5.1-5.5-8c0-0.3-0.2-1.1-1.1-2.3   c-0.8-1-2.6-6.3-3.2-8.2l-0.2-0.4c0.9,0,2.4-0.1,3.4-0.1c0.3,0,1.1,0.2,2.1,0.5c3.5,0.9,9.9,2.5,15.2,0.7c2.1-0.7,4.2-1.6,6.2-2.6   l1.6,0.7c0,0,3.3,1.6,5.3,7.3c1.7,4.9,0.2,7.8-1.7,11.5c-0.4,0.7-0.7,1.4-1.1,2.2c-1.4,2.8-2.4,4.2-3,5.1c-0.5,0.6-0.8,1-0.8,1.5   c0,0.9,0.9,1.3,1.9,1.3h2.2c1,0,1.9-0.7,2-1.7l0.4-2.3c0.4,0,0.7,0,1.1-0.2c0.5-0.3,0.8-0.7,0.9-1.2c1.3-5.2,3.5-8.8,5-11.2   c1.1-1.7,1.7-2.7,1.3-3.5c-0.1-0.8-0.4-2.2-0.5-3.4c0.2,0.3,0.4,0.6,0.5,0.9c1.1,1.8,2.1,3.4,2.5,4.7c0.7,2.1,0.8,9.7,0.8,13.4   c0,1.6-0.6,3.1-1.2,4.1c-0.1,0.1-0.2,0.1-0.2,0.3c0,0,0,0.1,0,0.1c-0.3,0.5-0.6,0.9-0.7,1c-0.3,0.2-0.9,0.6-0.9,1.3   c0,0.2,0.1,0.6,0.5,1c0.4,0.3,1.7,0.4,3,0.4c1.5,0,3.1-0.2,3.7-0.5c0.5-0.3,0.6-0.6,0.6-0.8c0-0.3-0.1-0.8-0.1-1.3   c-0.1-0.4-0.2-1.2-0.2-1.5c0.4-0.1,0.8-0.5,1-0.9c0.2-0.5,0.2-1,0-1.5c-0.6-1.2-0.9-2.1-0.9-2.7c0-0.7,0.1-2.7,0.4-5   c0.2,1.4,0.5,2.7,0.5,3c0,0.1,0.1,0.2,0.2,0.3l0.6,3c0.1,0.3,0.3,0.5,0.6,0.5c0,0,0,0,0,0c0.3,0,0.5-0.2,0.6-0.5   c0.2-1.2,2.3-11.5,2.3-12.7c0-1.1,0-6.3,0-6.8C98.6,59,96.1,47,95.8,46.2z M53.9,25.8c0,0,0.1,0,0.4,0c0,0.2,0.1,0.3,0.2,0.4   c0,0,3,2,4.1,3.9c0.3,0.6,0.7,1.1,1,1.5c-0.7-0.5-1.7-1.3-2.8-2.7c0,0,0-0.1-0.1-0.1l-3-2.4c0,0-0.1-0.1-0.2-0.1   c-0.2-0.3-0.4-0.6-0.7-0.9c0.4,0.2,0.7,0.4,0.7,0.4C53.7,25.7,53.8,25.8,53.9,25.8z M48,24.2c-0.3-0.7-0.6-1.3-0.9-1.7   c1.1,0.5,2.1,0.9,3,1.4c0,0,0,0,0,0c1.2,1.2,2.9,3.2,3,3.9c0.1,0.6,0.6,2.2,1.3,3.7c-0.7-0.8-1.3-1.7-1.8-2.6   c-1.3-2.8-4.4-4.6-4.5-4.6C48.1,24.3,48.1,24.3,48,24.2z M45.5,21.8c0,0.1,0,0.2,0.1,0.3c0,0,1.9,2.7,2,4.7c0.1,1.1,1,3.2,1.9,5   L48.7,31c-0.7-0.7-1.3-2.3-1.8-3.8c-0.4-1.1-0.8-2.3-1.3-3.2c-0.6-1.1-2.4-2.4-3.8-3.3c1.2,0.2,2.2,0.5,2.9,0.8   C45,21.6,45.2,21.7,45.5,21.8z M23.1,18c0.3,0.1,0.6,0.3,1,0.4c0.6,0.2,1.1,0.1,1.5-0.3c0.6-0.7,0.6-2.5,0.1-5.4   c1,1.5,2.3,3.7,2.3,5.2c0,2-2.2,2.2-3.2,2.2c-0.5,0-0.8-0.1-1-0.1c-0.4-0.1-0.9-0.2-1.4-0.2c-1.2,0-2.2,0.4-2.7,1.2   c-0.1,0.1-0.5,0.4-1.3,0.4c-1.1,0-2.4-0.4-2.8-1.2C15,19.1,16.4,18,16.4,18h0c1-0.7,2-1,3-1C20.7,17,21.9,17.5,23.1,18z M10.2,20.2   C10.2,20.2,10.2,20.1,10.2,20.2c-0.2-0.1-3.3-1.4-2.5-4.8c0.3-1.3,0.9-2.2,1.6-2.9c-0.8,1.8-0.6,3.4,0,4.2c0.1,0.1,0.1,0.2,0.2,0.2   l-0.4,1.5c-0.1,0.3,0.1,0.6,0.4,0.7c0.1,0,0.1,0,0.2,0c0.2,0,0.5-0.2,0.5-0.4l0.5-1.7c0.1-0.1,0.2-0.2,0.3-0.3   c0.3-0.3,0.8-0.8,2.1-0.9c1.9-0.1,2.7,0.5,2.7,0.5l0.5,0.3c-0.2,0.1-0.3,0.2-0.5,0.3c0,0-0.6,0.5-1,1.2c0,0,0,0,0,0l-1.2,0.5   c-0.7,0.3-1.6,0.9-2.4,1.9L10.2,20.2z M4.6,24.9c0-0.6-0.4-0.9-0.8-1.3c-0.1-0.1-0.1-0.1-0.2-0.2c1.5-0.1,3.7-0.1,4.6,0.4   c0,0,0.1,0,0.1,0l0.7,0.2c-0.8,1.5-1.2,2.2-1.3,3.1L7.3,27C6,26.2,4.8,25.3,4.6,24.9z M8.4,43.2c-0.3-0.5-0.3-1-0.2-1.3   c1.2,0.2,1.8,0.3,2.1,0.3c0,0.3-0.1,0.7-0.3,1.1C9.8,43.4,9.1,43.4,8.4,43.2z M33,87.1c0-0.1,0.1-0.2,0.4-0.5   c0.2-0.2,0.5-0.5,0.7-0.9l0.9,0.4l-0.4,1c0,0,0,0,0,0c-0.2,0-0.4,0-0.6,0C33.3,87.2,33.1,87.1,33,87.1z M38.2,87.1   c-0.2,0.3-1.6,0.2-2.4,0.2l0.4-1c0.8-0.1,1.7-0.1,1.9,0.3c0,0.1,0,0.2,0.1,0.3L38.2,87.1C38.2,87.1,38.2,87.1,38.2,87.1L38.2,87.1z    M46.4,84.6c0.2-0.2,0.6-0.5,0.8-0.7c0.2-0.1,0.3-0.3,0.5-0.4c0.5,0.1,1.7,0.3,2.4,1.1C48.6,84.7,47,84.7,46.4,84.6z M45.4,67.8   c0.8,1.1,0.9,1.7,0.9,1.7c0,0.1,0,0.1,0,0.2c1.1,3.2,4.4,7,5.7,8.5c0.1,0.1,0.1,0.4,0,0.5l-0.4,0.5c0,0-0.1,0.1-0.1,0.1   c-0.3,0.6-0.8,1.8-0.8,3.7c0,0.2,0,0.4,0,0.6c-0.8-0.7-1.8-1-2.5-1.2c0.3-0.9,0.6-2.2,0.5-2.9c-0.1-0.6-2.5-7.7-4.4-8.2   c-1-0.3-1.2-1.6-1.2-1.7c0-0.1,0-0.2-0.1-0.2l-2-3.5c0,0,0-0.1-0.1-0.1l-1-1.1c0.4-1.9,0.9-4.2,1.4-6.1l0.4,0l0.3,0.7   C42.2,60,44.3,66.5,45.4,67.8z M71.9,85.4c-0.3,0-0.7-0.1-0.7-0.2c0-0.1,0.3-0.5,0.5-0.8c0.1-0.2,0.3-0.4,0.5-0.7   c0.9,0.4,2,1.1,2.1,1.6c-0.1,0-0.2,0-0.2,0H71.9z M83.8,66.7c0,0.1,0,0.2,0.1,0.2c0,0.3-0.7,1.4-1.3,2.3c-1.4,2.3-3.9,6.1-5.2,11.5   c0,0.2-0.2,0.4-0.3,0.5c-0.2,0.1-0.4,0.1-0.6,0l-0.2-0.1c-0.2-0.1-0.3,0-0.5,0c-0.1,0.1-0.2,0.2-0.3,0.4l-0.5,2.7   c-0.6-0.7-1.6-1.3-2.2-1.6c0.6-0.9,1.2-2,2-3.6c0.4-0.7,0.7-1.5,1.1-2.1c2-3.8,3.7-7.1,1.8-12.4c-2.2-6.2-5.8-7.9-5.9-8l-0.7-0.3   c3.1-1.5,5.7-3,6.7-3.6c0.8,1.1,3,4.1,4.6,7c0.2,0.4,0.4,0.7,0.6,1.1c0,0,0,0.1,0,0.1C82.9,61.8,83.7,66.2,83.8,66.7z M86.4,88.6   c0.1-0.1,0.2-0.2,0.4-0.3c0.1,0,0.1-0.1,0.1-0.1c0,0,0.4-0.4,0.8-1.1l0.5,0.2l-0.8,1.6C86.9,88.8,86.5,88.7,86.4,88.6   C86.4,88.6,86.4,88.6,86.4,88.6z M88.7,88.9l0.8-1.5c0.9-0.1,1.8-0.1,2.2,0c0,0.1,0,0.1,0,0.2c0.1,0.4,0.1,0.7,0.1,1   C91.4,88.7,90,88.9,88.7,88.9z M96.7,69.3c0,0.7-0.9,5.5-1.8,9.7l-0.2-0.8c0.2-1.1,0.8-4,1-5c0.1-0.3-0.1-0.6-0.5-0.7   c-0.3-0.1-0.6,0.1-0.7,0.5c-0.1,0.5-0.3,1.5-0.5,2.4c-0.3-1.5-0.5-2.9-0.5-3.3c0-0.1,0-0.2-0.1-0.3c0.4-2.1,0.9-4.2,1.5-5.8   c0-0.1,0.7-1.9-0.7-3.3c-0.3-0.3-1-1.2-1.7-2.6c0,0,0-0.1,0-0.1l0.1-3.6l1-9.8c0,0,0-0.1,0-0.1c0-0.3-0.3-6.2-1.9-10.1   c-0.3-1.3-1.1-3.4-1.1-3.5c-0.1-0.3-0.4-0.4-0.7-0.3c-0.3,0.1-0.4,0.4-0.3,0.7c0,0,0.8,2.2,1.1,3.4c0.4,3.1,0.1,6.9-1,11.8   c-1.8,7.6,2.8,14.1,3.8,15.1c0.9,0.9,0.5,2.1,0.4,2.1c-1.8,4.7-2.5,13.5-2.5,14.9c0,0.8,0.4,1.9,1,3.3c0.1,0.2,0.1,0.3,0,0.5   c0,0.1-0.1,0.2-0.3,0.3c-0.1,0-0.1,0-0.2,0.1c-0.5,0.2-0.6,0.6-0.5,1.4c-0.4,0-1,0-1.5,0l0.1-0.2c0.1-0.3,0-0.6-0.3-0.8   c-0.3-0.1-0.6,0-0.8,0.3l-0.4,0.8c0,0,0,0,0,0l-0.5-0.2c0.6-1.1,1.1-2.6,1.1-4.2c0-1.1,0-11-0.9-13.7c-0.5-1.4-1.5-3.1-2.6-4.9   c-0.8-1.2-1.6-2.6-2.5-4.1c-2-3.7-4.9-7.5-5-7.6c-0.2-0.2-0.5-0.3-0.7-0.1c-0.1,0-7.8,4.8-14.5,7c-5,1.7-11.2,0.1-14.6-0.7   c-1.2-0.3-1.9-0.5-2.4-0.5c-1.6,0-4.1,0.1-4.2,0.1l-0.5,0c0.4-1.6,0.8-2.8,1-3.2c0.2-0.3,0.1-0.6-0.2-0.8c-0.3-0.2-0.6-0.1-0.8,0.2   c-0.9,1.6-3.4,13.3-3.4,14.9c0,1.4-0.6,3.7-0.6,3.8c0,0,0,0.1,0,0.1c-0.2,3.5,0.8,7,1.5,8.8c0.1,0.1,0,0.3,0,0.3   c0,0.1-0.1,0.1-0.3,0.2l-0.2,0c-0.1,0-0.2,0.1-0.3,0.1c-0.7,0.5-0.7,1.9-0.4,3.5c-0.4-0.1-0.9-0.1-1.2-0.1l0-0.1   c0.1-0.3,0-0.6-0.3-0.7c-0.3-0.1-0.6,0-0.7,0.3l-0.2,0.5l-0.6-0.3c0.3-0.5,0.6-0.9,0.6-0.9c0-0.1,0.1-0.1,0.1-0.2   c0.7-4.2,0-10.4-0.3-12.3c-0.4-2.3-0.2-3-0.2-3c0-0.1,0-0.1,0-0.2c0-0.3,0.4-5.7,0-9c0-0.1,0-0.1,0-0.2c0-0.1,0-0.2-0.1-0.2   c0-0.2,0-0.3-0.1-0.5c-0.6-3.3-2.5-5.9-2.6-6c-0.2-0.3-0.5-0.3-0.8-0.1c-0.3,0.2-0.3,0.5-0.1,0.8c0,0,1.8,2.5,2.4,5.5c0,0,0,0,0,0   l-0.3,0c-0.7-0.1-2.1-1.5-3.3-2.5c-0.3-0.3-0.7-0.6-1-0.9c-1.6-1.5-4.1-3.2-4.3-3.2c-0.2-0.1-0.4-0.1-0.6,0   c-0.2,0.1-0.3,0.3-0.3,0.5c0,0.6-0.3,2.2-0.7,3.7c-0.4-2.3-1.1-4.5-1.1-4.7c-0.1-0.3-0.3-0.4-0.6-0.4c-0.3,0-0.5,0.3-0.5,0.6   c0,0.5-0.1,1-0.2,1.6c-0.3-1.8-0.6-3.3-0.6-3.4c-0.1-0.3-0.3-0.5-0.6-0.4c-0.3,0-0.5,0.3-0.5,0.6c0,0.5-0.1,1.1-0.3,1.8   c-0.3-2.6-1-4.9-1-5c-0.1-0.3-0.4-0.4-0.7-0.4c-0.3,0.1-0.5,0.3-0.4,0.6c0,0.2-0.1,1.2-0.3,2.3c-0.3-0.9-0.9-2.1-1.7-3.9   c0.8-0.8,3.3-3,4.9-1.9c1.1,0.7,2.3,1.4,3.3,2c1.2,0.7,2.3,1.4,2.6,1.6c0.2,0.2,0.6,0.2,0.8,0c0.2-0.2,0.2-0.6,0-0.8   c-0.4-0.4-1.3-0.9-2.8-1.8c-1-0.6-2.2-1.3-3.3-2c-2.8-1.8-6.4,2.1-6.6,2.4c0,0-0.1,0.1-0.1,0.1c-0.2,0.3-0.7,0.5-1.2,0.6   c0.7-0.8,1.3-1.8,1.4-2c0.2-0.3,0.1-0.6-0.2-0.8c-0.3-0.2-0.6-0.1-0.8,0.2c-0.4,0.7-1.4,2.1-2.1,2.5c-0.4-0.3-0.8-0.6-1.2-0.9   c0.6,0,1.1-0.2,1.4-0.6c0.5-0.7,0.7-2,0.2-2.6C11,41,10.6,40.9,10.4,41c-0.1,0-0.8,0-2.1-0.3c-0.1-0.6-0.1-1.1-0.2-1.3   c0-0.8,0.6-10.5,0.7-11.7c0.1-1,0.5-1.7,1.7-3.9c0.2-0.4,0.4-0.8,0.7-1.3c0.9-1.6,2-2.4,2.8-2.8l0.3-0.1c0,0.4,0.1,0.8,0.2,1.2   c0.6,1.3,2.3,1.8,3.8,1.8c1.1,0,1.9-0.3,2.3-0.9c0.4-0.6,1.2-0.7,1.7-0.7c0.4,0,0.8,0.1,1.1,0.1c0.3,0.1,0.8,0.1,1.3,0.1   c1.5,0,3.2-0.5,3.9-1.7l0.8,0c3.2,0,6.4,0.3,9.2,0.6c0,0,0.1,0.1,0.1,0.1c1.3,0.7,5,2.8,5.9,4.3c0.4,0.8,0.8,1.9,1.2,3   c0.5,1.6,1.1,3.3,2,4.3l3.5,3.5c0.1,0.1,0.3,0.2,0.4,0.2c0.1,0,0.2,0,0.3-0.1c0.2-0.2,0.3-0.5,0.1-0.7c-1-1.7-3.5-6.3-3.6-8   c0-0.2-0.1-0.5-0.1-0.8c0.9,0.7,2.3,1.9,3,3.4c0.7,1.5,1.8,2.8,2.8,3.9c0.7,0.8,1.3,1.4,1.6,2c0.1,0.1,0.1,0.2,0.1,0.3   c0.1,0.2,0.3,0.3,0.5,0.3c0.1,0,0.1,0,0.2,0c0.3-0.1,0.4-0.4,0.3-0.7c0-0.1-0.1-0.2-0.2-0.4c-0.9-2.1-2.2-5.1-2.6-6.5l1.6,1.3   c2.6,3.1,4.3,3.7,5.2,3.7c0.5,0,0.8-0.2,0.9-0.2c0.2-0.1,0.2-0.3,0.2-0.5c0-0.2-0.1-0.4-0.3-0.5c0,0-1.4-0.8-2.5-2.6   c-0.8-1.5-2.6-2.9-3.6-3.7c3.5,0,10.7,0.2,16.2,0.7c2.1,0.2,3.5,0.3,4.6,0.3c2.8,0.1,3.4,0.1,8.8,2.4c0,0,0.1,0,0.1,0   c0.1,0,5.1,1.3,7,4.6c1.4,2.5,1.7,7.7,1.9,10.5c0.1,1.3,0.1,1.9,0.2,2.2c0.3,1,2.7,12.7,2,15.8c0,0,0,0.1,0,0.1h0   C96.7,62.5,96.7,68.2,96.7,69.3z M92.1,41.5c0.4,2.6,0.6,4.8,0.6,5.2l-1,9.8L91.6,58c-0.9-2.5-1.5-5.7-0.7-9.2   C91.6,46.1,92,43.7,92.1,41.5z"></path><path d="M21.6,24.9C21.6,24.9,21.5,24.9,21.6,24.9c-0.1,0-0.1,0-0.2,0c0,0-0.1,0-0.1,0.1c0,0-0.1,0.1-0.1,0.1c0,0-0.1,0.1-0.1,0.1   c0,0,0,0,0,0.1c0,0,0,0.1,0,0.1c0,0,0,0,0,0c0,0,0,0,0,0l-0.1,3.7c0,0.3,0.2,0.6,0.5,0.6c0,0,0,0,0,0c0.3,0,0.6-0.2,0.6-0.5   l0.1-2.8c0.2,0.1,0.4,0.2,0.5,0.3c0.4,0.4,1.4,1.8,1.3,2.8c-0.1,0.7-1.4,1.4-1.9,1.5c-0.3,0.1-0.4,0.4-0.4,0.7   c0.1,0.3,0.3,0.4,0.5,0.4c0,0,0.1,0,0.1,0c0.4-0.1,3.9-0.7,4.7-2.5c0.2-0.4,0.4-1.1-0.1-2C25.4,24.6,21.8,24.9,21.6,24.9z M26,29.1   c-0.2,0.4-0.6,0.7-1.1,1c0-0.1,0.1-0.3,0.1-0.4c0.1-1.2-0.7-2.6-1.2-3.3c0.8,0.3,1.6,0.8,2.1,1.8C26.2,28.6,26.1,28.9,26,29.1z"></path></g></svg></g></g></svg>