<?xml version="1.0" encoding="UTF-8" standalone="no"?>
<!-- Created with Inkscape (http://www.inkscape.org/) -->

<svg
   xmlns:dc="http://purl.org/dc/elements/1.1/"
   xmlns:cc="http://creativecommons.org/ns#"
   xmlns:rdf="http://www.w3.org/1999/02/22-rdf-syntax-ns#"
   xmlns:svg="http://www.w3.org/2000/svg"
   xmlns="http://www.w3.org/2000/svg"
   xmlns:sodipodi="http://sodipodi.sourceforge.net/DTD/sodipodi-0.dtd"
   xmlns:inkscape="http://www.inkscape.org/namespaces/inkscape"
   width="10in"
   height="11.7in"
   viewBox="0 0 254.00001 297.17998"
   version="1.1"
   id="svg8"
   inkscape:version="0.92.4 5da689c313, 2019-01-14"
   sodipodi:docname="20190718-gnulinuxOnly.svg">
  <defs
     id="defs2" />
  <sodipodi:namedview
     id="base"
     pagecolor="#ffffff"
     bordercolor="#666666"
     borderopacity="1.0"
     inkscape:pageopacity="0.0"
     inkscape:pageshadow="2"
     inkscape:zoom="0.35"
     inkscape:cx="448.57143"
     inkscape:cy="560"
     inkscape:document-units="in"
     inkscape:current-layer="text817"
     showgrid="false"
     units="in"
     inkscape:window-width="1366"
     inkscape:window-height="747"
     inkscape:window-x="0"
     inkscape:window-y="0"
     inkscape:window-maximized="0" />
  <metadata
     id="metadata5">
    <rdf:RDF>
      <cc:Work
         rdf:about="">
        <dc:format>image/svg+xml</dc:format>
        <dc:type
           rdf:resource="http://purl.org/dc/dcmitype/StillImage" />
        <dc:title></dc:title>
      </cc:Work>
    </rdf:RDF>
  </metadata>
  <g
     inkscape:label="Layer 1"
     inkscape:groupmode="layer"
     id="layer1"
     transform="translate(0,0.18000056)">
    <g
       aria-label="GNU/LINUX"
       style="font-style:normal;font-weight:normal;font-size:9.41107273px;line-height:1.25;font-family:sans-serif;letter-spacing:0px;word-spacing:0px;fill:#000000;fill-opacity:1;stroke:none;stroke-width:0.2352768"
       id="text817">
      <path
         d="M 22.483728,38.226219 H 28.53693 V 21.376635 H 17.108123 v 4.788353 h 5.375605 v 2.303831 c 0,2.800735 -1.535887,4.833527 -4.562488,4.833527 -3.930064,0 -5.240085,-3.342813 -5.240085,-8.447379 v -5.149739 c 0,-5.059393 1.264848,-8.085994 4.698007,-8.085994 3.116948,0 4.15593,2.484524 4.833527,5.149739 L 28.53693,15.233086 C 27.272082,9.8123084 24.019615,6.1532833 17.514682,6.1532833 c -8.1763402,0 -12.0160579,5.8725097 -12.0160579,16.5785457 0,10.028439 3.3428131,16.036468 9.5315349,16.036468 3.88489,0 6.008028,-2.394177 7.047011,-5.01422 h 0.406558 z"
         style="font-style:normal;font-variant:normal;font-weight:bold;font-stretch:normal;font-size:45.17314911px;font-family:'IBM Plex Mono';-inkscape-font-specification:'IBM Plex Mono Bold';stroke-width:0.2352768"
         id="path846"
         inkscape:connector-curvature="0" />
      <path
         d="m 47.220969,38.226219 h 8.131167 V 6.6953611 H 49.569973 V 27.655702 H 49.073068 L 41.890537,6.6953611 H 33.759371 V 38.226219 h 5.782163 V 17.265878 h 0.496904 z"
         style="font-style:normal;font-variant:normal;font-weight:bold;font-stretch:normal;font-size:45.17314911px;font-family:'IBM Plex Mono';-inkscape-font-specification:'IBM Plex Mono Bold';stroke-width:0.2352768"
         id="path848"
         inkscape:connector-curvature="0" />
      <path
         d="M 60.574576,6.6953611 V 25.75843 c 0,8.628072 1.897273,13.009867 11.067422,13.009867 9.170149,0 11.067421,-4.381795 11.067421,-13.009867 V 6.6953611 H 75.933447 V 26.661893 c 0,4.02041 -0.316212,6.640453 -4.291449,6.640453 -3.975237,0 -4.291449,-2.620043 -4.291449,-6.640453 V 6.6953611 Z"
         style="font-style:normal;font-variant:normal;font-weight:bold;font-stretch:normal;font-size:45.17314911px;font-family:'IBM Plex Mono';-inkscape-font-specification:'IBM Plex Mono Bold';stroke-width:0.2352768"
         id="path850"
         inkscape:connector-curvature="0" />
      <path
         d="M 94.481968,44.460114 108.98255,3.8946259 h -6.00803 L 88.473939,44.460114 Z"
         style="font-style:normal;font-variant:normal;font-weight:bold;font-stretch:normal;font-size:45.17314911px;font-family:'IBM Plex Mono';-inkscape-font-specification:'IBM Plex Mono Bold';stroke-width:0.2352768"
         id="path852"
         inkscape:connector-curvature="0" />
      <path
         d="M 136.79156,38.226219 V 32.669922 H 123.23962 V 6.6953611 h -6.82115 V 38.226219 Z"
         style="font-style:normal;font-variant:normal;font-weight:bold;font-stretch:normal;font-size:45.17314911px;font-family:'IBM Plex Mono';-inkscape-font-specification:'IBM Plex Mono Bold';stroke-width:0.2352768"
         id="path854"
         inkscape:connector-curvature="0" />
      <path
         d="M 163.0647,38.226219 V 33.212 h -6.77598 V 11.709581 h 6.77598 V 6.6953611 h -20.32792 v 5.0142199 h 6.77597 V 33.212 h -6.77597 v 5.014219 z"
         style="font-style:normal;font-variant:normal;font-weight:bold;font-stretch:normal;font-size:45.17314911px;font-family:'IBM Plex Mono';-inkscape-font-specification:'IBM Plex Mono Bold';stroke-width:0.2352768"
         id="path856"
         inkscape:connector-curvature="0" />
      <path
         d="m 182.6522,38.226219 h 8.13116 V 6.6953611 H 185.0012 V 27.655702 h -0.49691 L 177.32176,6.6953611 H 169.1906 V 38.226219 h 5.78216 V 17.265878 h 0.49691 z"
         style="font-style:normal;font-variant:normal;font-weight:bold;font-stretch:normal;font-size:45.17314911px;font-family:'IBM Plex Mono';-inkscape-font-specification:'IBM Plex Mono Bold';stroke-width:0.2352768"
         id="path858"
         inkscape:connector-curvature="0" />
      <path
         d="M 196.0058,6.6953611 V 25.75843 c 0,8.628072 1.89727,13.009867 11.06742,13.009867 9.17015,0 11.06742,-4.381795 11.06742,-13.009867 V 6.6953611 h -6.77597 V 26.661893 c 0,4.02041 -0.31621,6.640453 -4.29145,6.640453 -3.97523,0 -4.29145,-2.620043 -4.29145,-6.640453 V 6.6953611 Z"
         style="font-style:normal;font-variant:normal;font-weight:bold;font-stretch:normal;font-size:45.17314911px;font-family:'IBM Plex Mono';-inkscape-font-specification:'IBM Plex Mono Bold';stroke-width:0.2352768"
         id="path860"
         inkscape:connector-curvature="0" />
      <path
         d="M 238.45091,22.009059 246.7176,6.6953611 h -7.09218 l -2.71039,5.0142199 -2.34901,5.059392 h -0.36138 l -2.30383,-5.059392 -2.57487,-5.0142199 h -7.72461 l 8.26669,15.2233509 -8.85394,16.307507 h 7.09218 l 3.34282,-6.279068 2.25865,-4.969046 h 0.40656 l 2.21349,4.969046 3.25246,6.279068 h 7.72461 z"
         style="font-style:normal;font-variant:normal;font-weight:bold;font-stretch:normal;font-size:45.17314911px;font-family:'IBM Plex Mono';-inkscape-font-specification:'IBM Plex Mono Bold';stroke-width:0.2352768"
         id="path862"
         inkscape:connector-curvature="0" />
    </g>
  </g>
</svg>
